 <svg  version="1.0" xmlns="http://www.w3.org/2000/svg"  width="200.000000pt" height="400.000000pt" viewBox="0 0 200.000000 400.000000"  preserveAspectRatio="xMidYMid meet">  <g transform="translate(0.000000,400.000000) scale(0.100000,-0.100000)" fill="#ffffff" stroke="none"> <path d="M958 3919 c4 -24 0 -31 -17 -36 -11 -3 -21 -9 -21 -14 0 -5 -6 -9 -13 -9 -9 0 -12 -11 -9 -35 2 -19 8 -35 13 -35 17 0 9 -29 -10 -39 -26 -15 -47 10 -32 38 10 18 6 51 -7 51 -14 0 -220 -204 -258 -255 -16 -22 -31 -42 -34 -45 -16 -15 -70 -103 -95 -155 -17 -33 -34 -63 -39 -66 -8 -6 6 -59 27 -107 13 -27 -10 -56 -36 -47 -13 5 -15 17 -11 58 l5 52 -16 -40 c-9 -22 -21 -48 -26 -57 -5 -9 -12 -35 -15 -58 -4 -22 -10 -40 -15 -40 -5 0 -9 -9 -9 -20 0 -11 -5 -20 -11 -20 -6 0 -9 -6 -6 -14 3 -7 2 -17 -3 -22 -5 -5 -10 -28 -11 -51 -3 -50 -19 -58 -20 -10 -1 36 -37 -215 -44 -308 -11 -149 -27 -598 -27 -775 -1 -276 12 -944 21 -1075 4 -60 7 -138 6 -172 0 -34 3 -59 7 -57 7 4 14 -116 9 -153 -1 -7 3 -13 9 -13 6 0 8 5 5 10 -3 6 -2 10 2 10 5 0 13 -10 18 -22 6 -14 23 -25 45 -30 38 -8 349 -2 358 7 3 3 29 5 58 5 54 0 74 15 87 65 2 11 4 -16 4 -60 0 -44 -2 -63 -4 -43 -4 36 -23 55 -23 23 0 -8 -4 -15 -9 -15 -5 0 -9 -37 -9 -83 0 -55 3 -74 8 -57 7 21 8 17 9 -21 1 -34 7 -51 24 -67 13 -12 28 -22 34 -22 6 0 13 -4 15 -9 2 -6 23 -12 48 -15 56 -7 162 3 154 15 -3 5 3 9 13 10 25 0 66 55 69 93 3 52 6 121 4 126 -1 3 -4 17 -6 33 -5 27 -5 27 55 27 33 0 63 -5 67 -11 4 -6 19 -9 36 -5 19 4 27 2 22 -5 -4 -8 0 -8 14 0 11 6 32 11 46 11 14 0 26 5 26 10 0 6 -4 10 -9 10 -5 0 -11 69 -13 153 -4 142 -6 156 -32 210 -31 64 -86 125 -144 157 l-37 21 0 167 0 167 38 3 c20 2 37 7 37 13 0 5 7 9 14 9 43 0 122 59 200 150 17 20 31 29 34 22 2 -7 9 -12 15 -12 32 -1 76 -60 84 -114 4 -28 35 -66 53 -66 7 0 20 24 20 37 0 2 -12 3 -27 1 l-27 -3 2 152 3 151 -34 26 c-19 14 -46 26 -62 26 -22 0 -26 3 -19 18 17 34 16 488 -1 627 -35 291 -47 351 -69 338 -5 -4 -7 1 -3 11 8 19 -31 69 -46 59 -7 -4 -8 1 -3 13 4 10 4 15 0 12 -4 -4 -19 6 -35 23 -17 18 -33 28 -40 23 -7 -4 -9 -3 -6 3 7 12 -124 58 -207 73 -186 32 -418 -14 -526 -104 -83 -69 -111 -135 -130 -302 -5 -49 -14 -123 -20 -164 -13 -103 -13 -586 0 -611 10 -17 7 -19 -19 -19 -17 0 -42 -11 -61 -26 l-31 -27 1 -101 c2 -202 3 -196 -25 -196 -24 0 -26 -2 -19 -37 9 -50 14 -54 14 -13 0 43 16 29 25 -23 6 -28 4 -37 -6 -37 -8 0 1 -13 18 -29 40 -34 40 -41 8 -71 -20 -18 -28 -21 -37 -12 -17 17 -33 15 -18 -3 7 -8 24 -15 38 -15 20 0 23 -3 14 -12 -7 -7 -12 -36 -12 -65 0 -42 -3 -51 -15 -47 -11 5 -15 22 -15 62 0 30 -3 52 -7 48 -8 -7 -6 -80 3 -108 3 -10 12 -18 20 -18 8 0 14 -7 14 -15 0 -8 -7 -15 -15 -15 -24 0 -17 -28 8 -32 21 -3 22 -7 28 -158 4 -85 7 -190 8 -232 0 -45 5 -78 11 -78 6 0 10 12 10 26 l0 26 136 -6 c133 -5 164 -13 164 -42 0 -10 -36 -14 -167 -16 -147 -3 -171 -1 -195 15 -15 10 -30 28 -34 40 -11 35 -11 427 1 427 6 0 4 4 -3 9 -18 11 -25 231 -8 231 7 0 8 3 1 8 -17 12 -20 56 -18 286 3 250 4 254 93 315 l47 32 6 297 c9 400 38 583 136 880 95 284 199 372 440 372 310 0 409 -131 540 -715 30 -132 52 -421 50 -660 l-2 -169 39 -26 c48 -31 93 -79 99 -105 2 -11 7 -120 10 -242 5 -197 4 -225 -11 -248 -15 -23 -15 -25 0 -19 17 7 22 -11 6 -21 -6 -4 -10 -109 -11 -278 -1 -338 -6 -382 -44 -413 -15 -12 -33 -20 -39 -18 -7 3 -18 -14 -27 -37 l-15 -41 -64 0 c-55 0 -66 3 -70 18 -9 35 -26 24 -25 -16 1 -46 12 -61 28 -40 8 10 30 15 69 15 31 0 54 -3 52 -6 -4 -7 20 -19 37 -19 6 0 7 20 3 49 -6 48 -6 49 24 56 17 3 44 21 60 40 29 33 30 36 36 182 4 81 11 191 16 243 6 52 10 179 11 283 0 113 4 185 10 182 5 -4 9 21 9 59 0 35 3 73 6 83 5 15 4 15 -5 3 -8 -11 -11 81 -11 333 0 192 3 346 8 343 4 -2 4 33 -1 77 -4 45 -10 129 -12 187 -3 58 -10 114 -16 126 -6 12 -9 56 -7 101 2 45 0 79 -4 76 -5 -2 -8 23 -8 57 0 41 -4 59 -11 55 -12 -8 -4 -328 8 -348 11 -18 22 -321 21 -592 0 -226 -1 -238 -15 -202 -9 20 -19 37 -24 37 -4 0 -23 14 -41 30 -18 17 -40 32 -49 35 -14 5 -17 38 -22 293 -3 158 -10 323 -16 367 -27 191 -33 224 -52 305 -49 207 -131 410 -200 493 -74 90 -173 121 -357 115 -73 -3 -128 -10 -134 -16 -7 -7 -19 -12 -28 -12 -29 0 -95 -42 -137 -87 -23 -25 -46 -42 -51 -39 -6 3 -13 -1 -16 -10 -4 -9 -2 -13 5 -8 8 4 9 -1 4 -17 -9 -29 -30 -50 -40 -41 -4 4 -6 0 -5 -8 4 -23 -12 -80 -20 -75 -16 10 -32 -26 -27 -58 3 -17 3 -26 0 -19 -11 27 -24 10 -17 -24 5 -27 4 -35 -5 -30 -7 5 -11 -1 -11 -14 0 -11 -4 -28 -9 -38 -12 -21 -41 -149 -41 -178 0 -11 -3 -24 -7 -28 -4 -3 -8 -14 -9 -24 -1 -9 -7 -53 -13 -97 -21 -152 -32 -331 -32 -531 l0 -201 -44 -31 c-25 -17 -45 -36 -45 -42 0 -5 -7 -10 -16 -10 -12 0 -14 5 -8 18 4 9 11 166 16 347 7 313 9 331 28 347 22 18 26 43 9 54 -14 9 -4 253 11 268 6 6 10 29 10 51 0 23 3 45 8 49 4 4 7 11 8 14 0 4 4 27 8 52 4 25 10 58 12 74 3 16 9 37 14 47 6 10 10 29 10 43 0 14 4 26 9 26 5 0 12 16 15 35 5 24 15 39 31 47 29 13 41 43 26 62 -8 10 -8 22 -1 40 18 47 62 141 68 146 4 3 16 21 26 40 27 49 55 86 99 130 20 21 37 46 37 54 0 9 5 16 11 16 12 0 48 40 49 55 0 5 -18 -9 -40 -30 -22 -21 -40 -43 -40 -47 0 -5 -22 -31 -49 -58 -50 -50 -82 -100 -141 -217 -17 -35 -36 -63 -41 -63 -11 0 -12 37 -1 42 4 2 16 21 27 43 48 98 155 242 251 338 75 76 96 93 88 74 -3 -10 -1 -17 6 -17 6 0 18 -7 26 -15 21 -20 47 -19 68 4 13 14 14 24 6 45 -14 38 -12 66 4 66 11 0 13 -9 9 -34 -4 -24 -1 -40 10 -50 17 -18 77 -22 77 -6 0 6 -16 10 -36 10 -39 0 -39 1 -21 75 3 11 6 23 6 28 2 15 31 6 31 -10 0 -28 30 -106 47 -125 9 -10 27 -18 40 -18 12 0 23 -5 23 -10 0 -10 -32 -6 -78 11 -32 12 -99 11 -107 -1 -3 -5 -14 -10 -24 -10 -19 0 -72 -36 -69 -48 1 -7 -7 -33 -23 -67 -20 -44 -39 -109 -39 -131 0 -15 9 -28 28 -38 15 -8 36 -23 48 -34 24 -23 109 -39 119 -22 5 7 -2 9 -22 4 -25 -7 -27 -6 -14 9 9 12 28 17 60 16 40 -1 42 -2 16 -8 -26 -6 -22 -8 29 -14 37 -5 63 -4 70 3 5 5 32 10 58 10 41 0 50 3 57 23 14 35 -20 177 -41 177 -4 0 -8 7 -8 15 0 8 -4 15 -9 15 -5 0 -12 16 -15 35 -5 22 -11 33 -18 29 -7 -4 -8 -2 -4 5 4 6 2 19 -5 27 -10 13 -10 17 2 24 14 9 69 -37 138 -114 112 -125 263 -384 241 -411 -14 -17 -9 -57 8 -63 9 -3 11 3 7 21 -4 14 -2 28 4 31 20 13 12 40 -39 141 -77 151 -178 280 -328 417 -47 43 -73 52 -51 18 22 -36 -4 -59 -40 -34 -21 15 -21 15 -1 36 27 29 25 34 -10 47 -17 6 -30 17 -30 27 0 12 4 14 13 7 6 -6 21 -13 31 -17 15 -5 17 -4 7 8 -6 8 -23 17 -37 20 -23 6 -25 10 -18 39 l6 32 -22 -20 c-20 -18 -22 -18 -31 -2 -15 27 -26 20 -21 -14z m128 -224 c44 -10 115 -240 76 -246 -4 -1 -80 -3 -170 -4 -205 -4 -202 -6 -160 123 32 99 56 132 96 132 15 0 33 4 41 9 11 7 34 5 117 -14z m111 -167 c-3 -7 -5 -2 -5 12 0 14 2 19 5 13 2 -7 2 -19 0 -25z m15 -79 c-3 -23 -9 -29 -30 -29 l-26 0 22 16 c14 10 22 26 23 47 0 24 2 28 8 13 4 -10 5 -31 3 -47z m-282 -34 c0 -9 -9 -15 -25 -15 -16 0 -25 6 -25 15 0 9 9 15 25 15 16 0 25 -6 25 -15z m180 0 c0 -9 -9 -15 -25 -15 -16 0 -25 6 -25 15 0 9 9 15 25 15 16 0 25 -6 25 -15z m-700 -269 c0 -13 -6 -39 -14 -57 -17 -40 -54 -186 -72 -284 l-13 -70 4 80 c3 83 22 203 34 220 4 6 16 38 27 73 20 64 34 80 34 38z m-118 -468 c-1 -146 2 -220 9 -235 14 -26 -3 -55 -27 -46 -12 4 -14 29 -10 142 9 250 17 351 29 351 1 0 1 -96 -1 -212z m719 135 c1 -20 3 -22 6 -9 5 17 12 18 84 12 138 -11 265 -71 312 -145 30 -48 58 -111 49 -111 -4 0 -17 11 -29 24 -31 32 -115 72 -191 91 -73 17 -136 20 -127 5 3 -5 23 -10 44 -10 96 0 281 -84 312 -141 17 -32 6 -31 -29 2 -74 69 -211 115 -362 121 l-70 3 0 53 c0 39 -4 52 -14 52 -11 0 -16 -15 -18 -52 l-3 -52 -55 -2 c-102 -6 -165 -14 -205 -29 -22 -8 -48 -14 -57 -15 -10 0 -18 -4 -18 -9 0 -5 -10 -11 -23 -15 -13 -3 -44 -24 -69 -46 l-46 -40 13 57 c19 80 39 116 83 149 20 15 39 31 42 35 9 12 159 69 183 69 13 0 28 5 35 12 24 24 24 -2 -1 -31 -14 -17 -28 -45 -32 -63 -4 -18 -12 -39 -17 -45 -7 -8 -7 -13 -1 -13 6 0 18 17 29 38 10 20 21 39 24 42 3 3 12 18 20 34 17 32 57 53 74 36 14 -14 26 -12 26 5 0 28 30 16 31 -12z m141 -184 c133 -27 223 -63 289 -118 30 -25 38 -40 48 -93 7 -35 17 -79 22 -98 15 -52 23 -549 10 -650 -14 -116 -30 -189 -47 -222 -36 -70 -139 -141 -246 -169 l-48 -13 -2 -155 -3 -155 -177 -2 c-130 -2 -178 1 -179 9 0 7 0 67 1 135 1 79 -3 122 -9 122 -7 0 -11 -52 -11 -150 l0 -150 -54 0 c-35 0 -58 -5 -66 -15 -16 -19 -40 -19 -40 0 0 8 -7 15 -15 15 -8 0 -15 -4 -15 -10 0 -5 -13 -10 -29 -10 l-28 0 -7 98 c-14 234 -18 372 -10 372 5 0 23 -12 39 -28 39 -35 62 -47 160 -78 69 -23 103 -27 246 -31 152 -5 167 -4 173 12 9 24 3 27 -28 15 -32 -12 -238 -7 -319 8 -141 26 -240 86 -290 175 -11 20 -24 37 -28 37 -20 0 -82 -34 -101 -55 -25 -29 -42 -33 -34 -7 3 9 6 51 8 92 3 82 19 110 62 110 27 0 31 -9 42 -82 4 -32 11 -48 21 -48 10 0 12 6 8 21 -4 12 -8 31 -10 42 -1 12 -6 34 -10 49 -4 15 -8 47 -9 70 -2 24 -7 90 -11 149 -9 124 9 441 31 544 8 39 17 80 19 91 3 12 19 35 36 52 27 27 54 42 161 93 9 5 47 13 85 19 37 6 69 13 72 16 9 9 241 4 293 -7z m-887 -397 c-14 -443 -15 -545 -6 -556 7 -8 6 -21 -4 -39 -7 -15 -16 -44 -18 -64 -3 -21 -3 88 -1 242 2 154 6 291 8 305 2 14 4 80 5 148 1 78 5 121 11 117 6 -4 8 -62 5 -153z m1324 -617 c34 -17 37 -27 40 -135 l2 -85 -33 31 c-18 17 -48 37 -66 44 -22 8 -29 16 -23 24 5 6 12 31 16 56 7 45 21 80 31 80 3 0 18 -7 33 -15z m-1084 -199 c11 -26 15 -96 17 -290 l3 -256 -62 0 c-34 0 -67 -2 -75 -5 -27 -10 -37 9 -28 50 4 22 11 72 13 110 3 39 8 77 12 87 4 9 0 29 -8 45 -8 15 -20 50 -27 77 -12 42 -11 50 1 60 8 6 16 27 17 46 3 38 22 63 67 91 42 26 54 24 70 -15z m1262 -103 c-3 -10 -5 -4 -5 12 0 17 2 24 5 18 2 -7 2 -21 0 -30z m-1510 -185 c-3 -7 -5 -2 -5 12 0 14 2 19 5 13 2 -7 2 -19 0 -25z m0 -110 c-2 -18 -4 -6 -4 27 0 33 2 48 4 33 2 -15 2 -42 0 -60z m913 -113 c0 -19 8 -28 34 -39 80 -33 167 -150 181 -243 4 -21 7 -84 8 -141 l2 -102 -47 0 c-36 0 -48 4 -48 15 0 12 -14 15 -64 15 l-63 0 -6 48 c-10 79 -26 142 -39 155 -42 40 -174 50 -237 19 -30 -14 -38 -26 -53 -77 -10 -33 -18 -79 -18 -102 l0 -43 -65 0 c-61 0 -65 1 -65 23 0 13 4 27 9 33 5 5 11 34 14 64 6 66 28 150 39 150 4 0 8 5 8 11 0 19 65 69 105 82 52 15 199 15 252 -1 52 -16 98 -54 122 -101 20 -39 41 -145 41 -204 0 -20 5 -37 10 -37 14 0 12 125 -3 180 -28 101 -90 166 -179 190 -58 15 -213 17 -231 2 -7 -5 -25 -12 -40 -16 -16 -4 -48 -26 -72 -50 -46 -46 -63 -93 -72 -196 -3 -30 -10 -61 -15 -67 -7 -9 -50 -13 -147 -13 l-136 0 3 192 c2 106 5 194 6 195 7 7 284 14 288 7 3 -5 -1 -52 -8 -104 -8 -52 -19 -124 -23 -160 -14 -105 -7 -100 -131 -100 -71 0 -111 -4 -116 -11 -9 -15 224 -5 239 10 6 6 14 34 18 63 4 29 13 80 19 113 28 150 29 179 9 197 -10 9 -19 19 -19 22 0 3 32 6 70 6 63 0 70 2 70 20 0 19 7 20 175 20 l175 0 0 -25z m-533 -31 c-3 -3 -12 -4 -19 -1 -8 3 -5 6 6 6 11 1 17 -2 13 -5z m396 -251 c-18 -2 -48 -2 -65 0 -18 2 -4 4 32 4 36 0 50 -2 33 -4z m68 -73 c13 -33 18 -73 18 -147 1 -56 5 -105 11 -108 13 -8 13 -132 0 -140 -6 -4 -8 -11 -5 -16 4 -5 -2 -6 -11 -2 -13 5 -16 3 -11 -10 5 -14 2 -16 -17 -11 -13 3 -27 1 -31 -6 -8 -13 -135 -11 -135 3 0 5 -12 7 -27 3 -16 -3 -22 -3 -15 0 16 7 5 25 -11 18 -7 -2 -14 3 -15 13 -1 10 -4 37 -7 60 -2 22 1 58 8 80 8 23 13 79 13 141 -1 56 2 102 7 102 4 0 7 7 7 15 0 8 9 24 20 35 18 18 31 20 102 18 l80 -3 19 -45z m25 15 c3 -20 4 -39 0 -42 -3 -4 -6 4 -6 16 0 12 -5 31 -10 42 -7 12 -7 19 -1 19 6 0 13 -16 17 -35z m37 -173 c8 -10 8 -15 0 -20 -6 -4 -13 -23 -16 -42 -2 -19 -4 6 -4 55 0 50 2 74 4 55 3 -19 10 -41 16 -48z"/> <path d="M968 3673 c6 -2 18 -2 25 0 6 3 1 5 -13 5 -14 0 -19 -2 -12 -5z"/> <path d="M903 3658 c-31 -49 -42 -88 -24 -88 4 0 11 16 14 36 3 20 14 42 24 50 10 7 13 14 6 14 -6 0 -15 -6 -20 -12z"/> <path d="M1070 3660 c0 -5 5 -10 10 -10 6 0 10 -7 10 -17 0 -9 3 -14 6 -10 8 8 -5 47 -17 47 -5 0 -9 -4 -9 -10z"/> <path d="M852 3531 c-22 -61 -22 -61 86 -59 l97 2 -93 3 c-89 4 -92 4 -82 24 6 11 10 30 8 42 -3 19 -5 17 -16 -12z"/> <path d="M1122 3540 c0 -14 2 -19 5 -12 2 6 2 18 0 25 -3 6 -5 1 -5 -13z"/> <path d="M1058 3473 c7 -3 16 -2 19 1 4 3 -2 6 -13 5 -11 0 -14 -3 -6 -6z"/> <path d="M1140 2741 c0 -5 7 -12 16 -15 14 -5 15 -4 4 9 -14 17 -20 19 -20 6z"/> <path d="M878 2611 c8 -5 55 -8 105 -8 110 0 194 -10 262 -30 58 -17 154 -62 173 -80 21 -20 27 -15 8 6 -10 11 -43 32 -74 47 -32 15 -65 31 -75 36 -10 5 -47 12 -83 15 -35 3 -67 10 -70 14 -3 5 -62 9 -132 9 -74 0 -121 -4 -114 -9z"/> <path d="M755 2593 c-11 -2 -29 -8 -40 -12 -11 -5 -40 -17 -65 -27 -25 -10 -51 -24 -58 -31 -7 -7 -17 -13 -22 -13 -4 0 -10 -7 -13 -14 -4 -10 -1 -13 9 -9 7 3 14 8 14 12 0 11 135 71 157 71 11 0 23 4 29 9 5 5 27 11 49 14 l40 4 -40 0 c-22 0 -49 -1 -60 -4z"/> <path d="M1150 2566 c0 -2 9 -6 20 -9 11 -3 18 -1 14 4 -5 9 -34 13 -34 5z"/> <path d="M1218 2543 c7 -3 16 -2 19 1 4 3 -2 6 -13 5 -11 0 -14 -3 -6 -6z"/> <path d="M695 2530 c3 -5 8 -10 11 -10 2 0 4 5 4 10 0 6 -5 10 -11 10 -5 0 -7 -4 -4 -10z"/> <path d="M1275 2530 c-3 -5 1 -10 9 -10 9 0 16 5 16 10 0 6 -4 10 -9 10 -6 0 -13 -4 -16 -10z"/> <path d="M658 2513 c7 -3 16 -2 19 1 4 3 -2 6 -13 5 -11 0 -14 -3 -6 -6z"/> <path d="M1310 2516 c0 -2 7 -6 15 -10 8 -3 15 -1 15 4 0 6 -7 10 -15 10 -8 0 -15 -2 -15 -4z"/> <path d="M618 2493 c7 -3 16 -2 19 1 4 3 -2 6 -13 5 -11 0 -14 -3 -6 -6z"/> <path d="M855 2198 c-112 -26 -178 -52 -211 -83 -31 -29 -34 -58 -34 -302 0 -209 2 -252 16 -271 l15 -22 345 0 c310 0 347 2 362 17 15 14 17 48 20 261 2 174 0 253 -9 274 -23 57 -85 89 -242 127 -55 13 -204 13 -262 -1z m263 -29 c91 -20 154 -44 185 -70 l32 -27 0 -122 c0 -81 -4 -124 -11 -127 -7 -2 -13 26 -16 81 -7 106 -26 143 -91 174 -73 35 -130 45 -266 48 -167 4 -179 -9 -16 -18 143 -7 205 -16 205 -28 0 -5 17 -11 38 -15 68 -12 101 -60 103 -154 2 -70 12 -96 37 -95 22 1 22 -2 22 -127 0 -123 -1 -127 -22 -131 -13 -2 -169 -4 -348 -3 l-325 0 -8 250 c-9 301 -14 286 123 344 65 27 274 39 358 20z"/> <path d="M669 1880 c-3 -8 -3 -28 1 -45 5 -25 7 -26 11 -10 7 25 -5 77 -12 55z"/> <path d="M674 1728 c4 -40 9 -80 11 -88 10 -33 48 -44 165 -48 63 -2 113 -2 110 1 -3 3 -43 7 -89 8 -93 2 -144 16 -166 45 -9 12 -14 43 -15 87 0 43 -4 67 -11 67 -8 0 -10 -21 -5 -72z"/> <path d="M555 2100 c-3 -5 -1 -19 5 -31 8 -14 11 -99 9 -267 -1 -136 -1 -251 0 -256 0 -5 8 -3 16 4 8 7 13 16 10 20 -9 14 -13 500 -4 506 5 3 9 12 9 20 0 16 -35 19 -45 4z"/> <path d="M1397 1828 c1 -205 5 -283 13 -283 9 0 12 72 11 268 -1 174 2 267 8 267 6 0 8 7 5 15 -4 8 -14 15 -23 15 -14 0 -16 -26 -14 -282z"/> <path d="M938 993 c7 -3 16 -2 19 1 4 3 -2 6 -13 5 -11 0 -14 -3 -6 -6z"/> <path d="M638 956 c-10 -7 -18 -16 -18 -20 0 -11 28 -6 33 7 4 9 8 8 16 -3 5 -8 13 -11 17 -7 7 7 -13 37 -25 37 -3 0 -14 -7 -23 -14z"/> <path d="M835 880 c-11 -5 53 -9 150 -8 113 0 160 3 141 8 -36 11 -264 11 -291 0z"/> <path d="M635 820 c27 -12 35 -12 35 0 0 6 -12 10 -27 9 -25 0 -26 -1 -8 -9z"/> <path d="M488 813 c6 -2 18 -2 25 0 6 3 1 5 -13 5 -14 0 -19 -2 -12 -5z"/> <path d="M443 760 c0 -30 2 -43 4 -27 2 15 2 39 0 55 -2 15 -4 2 -4 -28z"/> <path d="M640 781 c0 -25 6 -27 13 -6 4 8 2 17 -3 20 -6 4 -10 -3 -10 -14z"/> <path d="M1361 504 c0 -11 3 -14 6 -6 3 7 2 16 -1 19 -3 4 -6 -2 -5 -13z"/> <path d="M923 550 c-16 -6 -23 -18 -23 -35 l0 -25 96 0 c93 0 95 1 92 22 -2 12 -14 28 -28 35 -29 15 -104 16 -137 3z m61 -21 c-8 -14 -24 -10 -24 6 0 9 6 12 15 9 8 -4 12 -10 9 -15z m36 1 c0 -5 -2 -10 -4 -10 -3 0 -8 5 -11 10 -3 6 -1 10 4 10 6 0 11 -4 11 -10z m50 0 c0 -5 -4 -10 -10 -10 -5 0 -10 5 -10 10 0 6 5 10 10 10 6 0 10 -4 10 -10z"/> <path d="M905 460 c3 -5 42 -10 86 -10 l80 0 -3 -67 -3 -68 -52 0 c-74 -1 -74 -10 -1 -13 80 -3 90 -12 86 -76 -3 -47 -6 -52 -38 -68 -19 -9 -49 -17 -67 -18 -55 0 -118 38 -109 66 2 6 1 26 -4 45 -7 31 -8 29 -9 -21 -1 -60 19 -90 59 -90 11 0 20 -3 20 -7 0 -19 124 2 152 26 22 19 26 117 6 123 -9 3 -14 35 -16 96 l-4 92 -95 0 c-60 0 -92 -4 -88 -10z"/> <path d="M890 305 c0 -9 6 -12 15 -9 8 4 12 10 9 15 -8 14 -24 10 -24 -6z"/> <path d="M812 3894 c-12 -8 -22 -12 -22 -7 0 4 -7 -3 -16 -15 -8 -12 -23 -22 -33 -22 -10 0 -28 -11 -42 -26 -19 -20 -20 -24 -5 -18 14 5 17 3 14 -7 -3 -8 -11 -14 -19 -14 -8 0 -22 -13 -32 -28 -9 -15 -21 -26 -26 -23 -9 6 -48 -36 -69 -73 -11 -19 -11 -22 0 -16 7 3 5 0 -4 -8 -10 -8 -18 -20 -18 -26 0 -7 -5 -9 -12 -5 -8 5 -9 2 -5 -10 4 -10 3 -15 -3 -11 -13 8 -72 -85 -65 -103 2 -7 0 -10 -5 -7 -6 3 -10 1 -10 -4 0 -6 -11 -21 -25 -33 -14 -12 -25 -26 -25 -32 0 -6 5 -3 11 7 5 9 15 17 20 17 13 0 2 -57 -16 -83 -10 -14 -14 -15 -24 -4 -6 8 -7 18 -3 22 4 5 2 5 -5 2 -6 -4 -9 -16 -6 -26 3 -11 -5 -45 -16 -77 -12 -31 -20 -63 -17 -71 3 -7 2 -13 -3 -13 -8 0 -20 -43 -23 -85 -1 -11 -5 -22 -8 -25 -4 -3 -10 -25 -13 -50 -5 -39 -5 -41 4 -15 6 17 15 40 21 52 6 12 8 28 5 37 -4 10 -1 13 9 9 9 -3 14 2 14 16 0 20 18 74 46 138 8 17 14 38 14 47 0 9 6 19 14 22 8 3 18 20 22 37 3 18 19 55 34 82 15 28 35 66 46 85 10 19 21 37 24 40 3 3 14 19 24 35 32 50 127 157 195 218 55 50 69 58 93 53 36 -7 46 11 13 24 -32 12 -26 13 -53 -6z m-72 -63 c0 -12 -20 -25 -27 -18 -7 7 6 27 18 27 5 0 9 -4 9 -9z m-135 -141 c-10 -11 -21 -18 -23 -15 -6 6 31 44 37 39 2 -2 -4 -13 -14 -24z m-101 -144 c-3 -9 -10 -16 -15 -16 -5 0 -4 9 3 20 14 22 21 20 12 -4z"/> <path d="M1118 3903 c-27 -7 -24 -59 4 -74 61 -33 203 -180 290 -302 63 -87 168 -292 168 -326 0 -6 5 -11 10 -11 6 0 10 -11 10 -25 0 -14 4 -25 9 -25 5 0 12 -19 16 -42 4 -23 11 -49 16 -58 9 -16 24 -81 40 -169 11 -60 15 -71 30 -71 12 0 1 137 -13 160 -6 11 -7 8 -2 -9 4 -16 3 -21 -5 -17 -6 4 -11 17 -11 28 0 12 -8 46 -17 75 -12 39 -14 59 -7 71 14 22 -1 99 -24 125 -9 11 -12 17 -6 14 13 -8 -26 117 -40 130 -5 4 -6 0 -3 -9 4 -10 2 -18 -4 -18 -7 0 -8 12 -4 31 5 23 4 30 -5 24 -7 -4 -10 -2 -9 6 5 27 -11 58 -28 52 -12 -5 -14 -1 -8 17 5 16 4 20 -5 15 -7 -4 -10 -1 -8 11 2 12 -2 18 -11 16 -9 -2 -11 3 -7 14 8 20 -12 47 -27 37 -6 -4 -8 0 -4 10 4 11 -1 22 -13 29 -11 7 -20 19 -20 26 0 7 -4 10 -10 7 -5 -3 -11 -1 -11 4 -1 6 -2 16 -3 21 0 6 -19 26 -40 45 -22 19 -36 35 -32 35 4 0 -2 14 -14 30 -12 17 -27 30 -33 30 -7 0 -4 -5 6 -11 9 -5 17 -15 17 -20 0 -6 -29 19 -65 55 -36 36 -70 66 -75 66 -4 0 -14 2 -22 4 -7 2 -21 2 -30 -1z m71 -47 c71 -60 146 -141 210 -228 39 -53 71 -99 71 -101 0 -2 18 -37 40 -78 23 -40 39 -82 38 -94 -3 -15 -11 -6 -31 35 -49 94 -135 215 -205 287 -18 19 -29 39 -26 45 4 6 3 8 -2 5 -15 -9 -88 59 -79 74 5 7 4 10 -3 5 -16 -10 -82 33 -82 54 0 35 24 33 69 -4z m365 -422 c3 -8 2 -12 -4 -9 -6 3 -10 10 -10 16 0 14 7 11 14 -7z m36 -155 c9 -24 22 -57 28 -72 7 -16 12 -37 12 -48 0 -10 5 -19 10 -19 6 0 10 -7 10 -15 0 -28 -16 -15 -29 23 -7 20 -23 60 -36 87 -29 63 -37 97 -22 92 6 -2 18 -23 27 -48z"/> <path d="M788 3713 c7 -3 16 -2 19 1 4 3 -2 6 -13 5 -11 0 -14 -3 -6 -6z"/> <path d="M747 3383 c-4 -3 -7 -11 -7 -17 0 -6 5 -5 12 2 6 6 9 14 7 17 -3 3 -9 2 -12 -2z"/> <path d="M900 3359 c0 -5 5 -7 10 -4 6 3 10 8 10 11 0 2 -4 4 -10 4 -5 0 -10 -5 -10 -11z"/> <path d="M680 3255 c-9 -10 -9 -15 -1 -15 6 0 11 4 11 9 0 5 8 12 18 14 14 4 14 5 1 6 -9 0 -22 -6 -29 -14z"/> <path d="M878 3243 c7 -3 16 -2 19 1 4 3 -2 6 -13 5 -11 0 -14 -3 -6 -6z"/> <path d="M645 3220 c-3 -5 -1 -10 4 -10 6 0 11 5 11 10 0 6 -2 10 -4 10 -3 0 -8 -4 -11 -10z"/> <path d="M1547 3203 c-7 -12 -1 -57 11 -80 19 -34 62 -202 87 -332 28 -152 33 -322 10 -341 -21 -18 -19 -36 8 -57 13 -10 27 -25 32 -33 6 -8 13 -100 16 -205 l6 -190 1 207 c0 114 4 213 7 219 5 7 1 9 -11 5 -11 -3 -28 1 -38 9 -18 14 -18 16 -3 33 14 15 17 42 17 157 0 90 -5 156 -14 189 -8 28 -22 87 -31 131 -9 44 -20 91 -24 105 -5 14 -17 52 -27 85 -22 72 -40 109 -47 98z"/> <path d="M693 3148 c-23 -30 -24 -41 -2 -21 12 12 20 25 17 28 -3 3 -10 0 -15 -7z"/> <path d="M580 3120 c0 -5 5 -10 10 -10 6 0 10 5 10 10 0 6 -4 10 -10 10 -5 0 -10 -4 -10 -10z"/> <path d="M853 3115 c-20 -14 -23 -25 -23 -84 0 -39 5 -72 12 -79 8 -8 56 -12 150 -12 130 0 138 1 149 21 14 27 7 135 -9 151 -8 8 -57 14 -135 16 -101 3 -126 1 -144 -13z m265 -64 c7 -91 7 -91 -122 -91 -63 0 -121 3 -130 6 -20 8 -22 104 -4 122 9 9 48 12 133 10 l120 -3 3 -44z"/> <path d="M945 3070 c11 -5 46 -9 77 -9 62 -1 57 4 71 -66 3 -11 5 4 6 33 l1 52 -87 -1 c-59 0 -81 -3 -68 -9z"/> <path d="M885 3000 c-4 -6 3 -10 14 -10 25 0 27 6 6 13 -8 4 -17 2 -20 -3z"/> <path d="M1666 3095 c-4 -12 -3 -21 3 -23 6 -2 12 -16 12 -30 1 -15 3 -20 6 -10 2 9 0 31 -5 49 -7 29 -9 31 -16 14z"/> <path d="M602 2967 c-19 -50 -38 -101 -43 -112 -16 -38 -41 -135 -37 -147 5 -13 18 20 43 107 10 33 21 68 26 77 5 10 9 26 9 36 0 9 8 33 19 52 24 46 34 80 24 80 -4 0 -23 -42 -41 -93z"/> <path d="M1341 3044 c0 -11 3 -14 6 -6 3 7 2 16 -1 19 -3 4 -6 -2 -5 -13z"/> <path d="M1360 3000 c0 -11 4 -20 9 -20 5 0 7 9 4 20 -3 11 -7 20 -9 20 -2 0 -4 -9 -4 -20z"/> <path d="M1381 2954 c0 -11 3 -14 6 -6 3 7 2 16 -1 19 -3 4 -6 -2 -5 -13z"/> <path d="M1411 2874 c0 -11 3 -14 6 -6 3 7 2 16 -1 19 -3 4 -6 -2 -5 -13z"/> <path d="M1440 2761 c0 -11 4 -22 9 -25 4 -3 6 6 3 19 -5 30 -12 33 -12 6z"/> <path d="M216 2545 c-3 -9 -5 -38 -5 -63 2 -46 2 -46 9 13 7 64 6 76 -4 50z"/> <path d="M1769 2515 c5 -17 12 -39 15 -50 3 -11 3 -2 1 19 -2 22 -9 44 -15 50 -7 7 -8 2 -1 -19z"/> <path d="M201 2414 c0 -11 3 -14 6 -6 3 7 2 16 -1 19 -3 4 -6 -2 -5 -13z"/> <path d="M1793 2395 c0 -22 2 -30 4 -17 2 12 2 30 0 40 -3 9 -5 -1 -4 -23z"/> <path d="M211 2374 c0 -11 3 -14 6 -6 3 7 2 16 -1 19 -3 4 -6 -2 -5 -13z"/> <path d="M1803 2260 c0 -47 2 -66 4 -42 2 23 2 61 0 85 -2 23 -4 4 -4 -43z"/> <path d="M211 2283 c0 -17 -6 -33 -13 -35 -27 -9 -48 -639 -30 -883 11 -142 15 -200 28 -418 2 -51 8 -95 12 -99 4 -4 1 75 -6 175 -8 114 -14 370 -14 684 -1 459 0 504 16 528 10 15 15 38 13 53 -4 25 -4 25 -6 -5z"/> <path d="M182 2280 c0 -14 2 -19 5 -12 2 6 2 18 0 25 -3 6 -5 1 -5 -13z"/> <path d="M1814 2070 c0 -58 1 -81 3 -52 2 28 2 76 0 105 -2 28 -3 5 -3 -53z"/> <path d="M1815 1665 c-4 -135 -5 -248 -3 -251 3 -2 9 106 13 241 4 136 5 248 2 251 -3 3 -8 -106 -12 -241z"/> <path d="M1711 1764 c0 -11 3 -14 6 -6 3 7 2 16 -1 19 -3 4 -6 -2 -5 -13z"/> <path d="M1706 1714 c-5 -14 -4 -15 9 -4 17 14 19 20 6 20 -5 0 -12 -7 -15 -16z"/> <path d="M1572 1690 c0 -14 2 -19 5 -12 2 6 2 18 0 25 -3 6 -5 1 -5 -13z"/> <path d="M1799 1195 c-3 -82 -4 -152 -3 -154 12 -13 14 22 12 155 l-3 149 -6 -150z"/> <path d="M1640 1212 c-7 -15 -19 -40 -27 -55 -19 -36 -10 -74 22 -89 26 -11 55 -5 55 12 0 7 -6 8 -18 1 -12 -6 -23 -4 -40 9 -30 25 -28 45 8 70 17 12 30 17 30 11 0 -6 4 -11 9 -11 5 0 8 12 8 28 0 15 -2 21 -4 15 -3 -7 -13 -13 -24 -13 -17 0 -18 3 -9 21 7 11 10 23 7 25 -2 2 -9 -8 -17 -24z"/> <path d="M300 1180 c0 -11 4 -20 9 -20 5 0 7 9 4 20 -3 11 -7 20 -9 20 -2 0 -4 -9 -4 -20z"/> <path d="M312 1123 c4 -20 18 -26 37 -14 18 12 5 31 -20 31 -14 0 -19 -6 -17 -17z"/> <path d="M1634 1129 c-7 -12 15 -31 31 -26 6 2 11 11 13 20 4 19 -32 24 -44 6z"/> <path d="M1616 1043 c4 -10 8 -35 9 -55 0 -54 21 -56 24 -2 1 29 -3 50 -13 59 -20 20 -30 19 -20 -2z"/> <path d="M1682 1001 c-1 -38 -7 -58 -19 -67 -17 -13 -17 -13 0 -14 24 0 29 17 24 81 l-3 54 -2 -54z"/> <path d="M1792 970 c0 -14 2 -19 5 -12 2 6 2 18 0 25 -3 6 -5 1 -5 -13z"/> <path d="M1610 911 c0 -6 5 -13 10 -16 6 -3 10 1 10 9 0 9 -4 16 -10 16 -5 0 -10 -4 -10 -9z"/> <path d="M1643 883 c-29 -6 -31 -13 -38 -223 -3 -96 -7 -193 -8 -214 -2 -48 19 -60 26 -14 2 18 6 107 7 198 3 234 2 224 33 228 18 2 24 8 20 18 -3 8 -8 13 -12 13 -3 -1 -16 -4 -28 -6z"/> <path d="M211 798 c0 -9 -4 -25 -7 -35 -5 -17 -5 -17 6 0 6 10 9 25 7 35 -4 15 -5 15 -6 0z"/> <path d="M1761 654 c0 -11 3 -14 6 -6 3 7 2 16 -1 19 -3 4 -6 -2 -5 -13z"/> <path d="M1662 600 c0 -19 2 -27 5 -17 2 9 2 25 0 35 -3 9 -5 1 -5 -18z"/> <path d="M321 594 c0 -11 3 -14 6 -6 3 7 2 16 -1 19 -3 4 -6 -2 -5 -13z"/> <path d="M321 524 c0 -11 3 -14 6 -6 3 7 2 16 -1 19 -3 4 -6 -2 -5 -13z"/> <path d="M1750 465 c-1 -11 -2 -23 -1 -27 0 -4 -6 -26 -15 -48 -9 -23 -14 -43 -11 -46 9 -9 39 94 34 118 -4 21 -5 21 -7 3z"/> <path d="M1440 420 c0 -5 5 -10 10 -10 6 0 10 5 10 10 0 6 -4 10 -10 10 -5 0 -10 -4 -10 -10z"/> <path d="M1450 370 c0 -6 32 -10 75 -10 43 0 75 4 75 10 0 6 -32 10 -75 10 -43 0 -75 -4 -75 -10z"/> <path d="M1217 332 c4 -9 9 -10 19 -1 8 6 23 9 34 6 11 -3 20 -1 20 4 0 5 -17 8 -39 7 -26 -2 -37 -7 -34 -16z"/> <path d="M1547 213 c-9 -2 -15 -9 -11 -14 4 -6 10 -6 17 0 7 5 23 11 37 14 l25 4 -25 0 c-14 1 -33 -1 -43 -4z"/> <path d="M1156 103 c-11 -11 -6 -23 9 -23 8 0 15 4 15 9 0 13 -16 22 -24 14z"/> </g> </svg> 