<?xml version="1.0" standalone="no"?>
<!DOCTYPE svg PUBLIC "-//W3C//DTD SVG 20010904//EN"
 "http://www.w3.org/TR/2001/REC-SVG-20010904/DTD/svg10.dtd">
<svg version="1.0" xmlns="http://www.w3.org/2000/svg"
 width="300.000000pt" height="1200.000000pt" viewBox="0 0 300.000000 1200.000000"
 preserveAspectRatio="xMidYMid meet">
<metadata>
Created by potrace 1.10, written by Peter Selinger 2001-2011
</metadata>
<g transform="translate(0.000000,1200.000000) scale(0.100000,-0.100000)"
fill="#ffffff" stroke="none">
<path d="M1495 11703 c-68 -13 -100 -44 -129 -128 -10 -27 -22 -58 -27 -67 -5
-10 -9 -22 -9 -28 0 -5 -11 -33 -24 -62 -13 -29 -31 -75 -41 -103 -9 -27 -23
-64 -31 -82 -8 -17 -14 -40 -14 -51 0 -11 -3 -22 -8 -24 -4 -1 -18 -37 -31
-78 -13 -41 -32 -92 -42 -113 -10 -21 -21 -52 -25 -70 -3 -17 -10 -38 -15 -47
-11 -20 -128 -364 -141 -415 -5 -22 -13 -49 -18 -60 -4 -11 -16 -47 -25 -80
-10 -33 -21 -67 -25 -75 -4 -9 -11 -36 -15 -60 -4 -24 -11 -51 -16 -60 -9 -17
-28 -90 -36 -135 -2 -16 -12 -46 -21 -65 -15 -33 -22 -61 -52 -215 -7 -33 -15
-67 -18 -75 -3 -8 -12 -49 -19 -90 -7 -41 -20 -113 -29 -160 -8 -47 -17 -103
-21 -125 -3 -22 -9 -44 -13 -50 -4 -5 -10 -35 -14 -65 -4 -30 -11 -68 -16 -85
-5 -16 -14 -66 -20 -110 -7 -44 -16 -100 -21 -125 -8 -44 -34 -199 -45 -270
-2 -19 -9 -51 -14 -70 -15 -60 -19 -120 -7 -117 6 1 13 -6 15 -15 2 -12 -1
-16 -11 -12 -16 6 -24 -18 -33 -93 -3 -27 -1 -43 5 -43 6 0 11 4 11 10 0 5 6
7 14 4 9 -4 15 5 19 28 21 132 40 251 47 293 5 28 16 95 25 150 19 115 27 159
49 270 9 44 21 114 27 155 6 41 14 84 19 95 5 11 13 54 19 95 5 41 15 98 21
125 6 28 14 70 18 95 l7 45 739 -1 739 -1 2 -24 c2 -13 10 -62 19 -109 9 -47
19 -103 22 -125 3 -22 9 -49 14 -60 4 -11 13 -54 19 -95 5 -41 19 -117 30
-169 12 -52 21 -108 21 -126 0 -17 3 -35 8 -39 4 -4 12 -44 19 -89 14 -101 41
-273 53 -347 16 -94 17 -103 29 -180 6 -41 15 -104 21 -140 6 -36 17 -110 26
-165 20 -132 44 -362 52 -506 5 -75 12 -122 21 -133 12 -14 10 -16 -17 -16
-26 0 -31 -4 -34 -27 -7 -66 3 -603 12 -598 6 3 9 126 9 297 0 160 3 293 6
296 3 3 5 -135 5 -306 0 -255 2 -312 13 -312 10 0 14 -14 13 -46 l-1 -45 -23
26 c-14 17 -21 34 -17 46 4 12 1 21 -9 25 -9 3 -32 40 -52 82 -35 74 -231 470
-345 697 -65 128 -119 242 -119 250 0 3 -11 23 -25 44 -13 22 -27 51 -31 65
-3 14 -10 26 -15 26 -5 0 -9 6 -9 13 0 6 -9 23 -20 37 -11 14 -20 33 -20 42 0
9 -4 19 -9 23 -12 7 -798 8 -810 1 -8 -5 -264 -516 -521 -1039 -63 -128 -120
-232 -131 -237 -10 -6 -19 -7 -20 -3 -5 76 -2 613 4 613 4 0 7 -6 7 -12 0
-380 4 -568 11 -568 5 0 9 134 9 305 0 298 0 305 -20 305 -18 0 -20 7 -20 77
0 42 4 104 10 137 5 34 14 113 20 176 10 121 23 219 39 310 6 30 15 97 22 148
13 99 6 128 -23 95 -18 -21 -31 -86 -53 -268 -9 -71 -20 -159 -26 -195 -30
-193 -33 -360 -36 -1982 -2 -912 -1 -1658 2 -1658 3 0 14 7 24 17 17 14 20 31
20 150 1 112 -1 133 -14 133 -8 0 -15 4 -15 10 0 5 7 7 15 4 13 -5 15 120 15
1028 0 686 3 1033 10 1032 5 -1 14 -2 18 -2 5 -1 15 -21 22 -44 7 -24 19 -62
26 -86 8 -23 14 -51 14 -62 0 -10 4 -21 9 -24 5 -3 12 -21 15 -39 3 -18 17
-68 31 -111 l25 -78 0 -726 1 -727 -38 -3 c-66 -6 -76 -24 -69 -121 4 -47 9
-87 12 -90 2 -3 25 -8 50 -11 l46 -5 0 -87 c0 -48 -3 -91 -5 -95 -3 -5 -46
-22 -96 -38 -50 -17 -91 -35 -91 -42 0 -7 -7 -10 -17 -6 -15 6 -16 -56 -10
-883 4 -489 7 -1116 7 -1394 l1 -504 -26 -13 c-32 -18 -32 -32 3 -45 l27 -10
-3 -412 c-2 -382 -1 -412 15 -424 14 -10 129 -12 538 -12 459 1 521 -1 531
-14 14 -20 31 -20 50 -2 18 19 18 45 -1 52 -8 4 -15 15 -15 25 0 14 7 19 25
19 22 0 25 4 25 38 1 27 3 33 10 21 15 -26 6 -130 -13 -141 -21 -11 -22 -28
-2 -28 19 0 20 -30 2 -54 -18 -25 -49 -17 -65 17 -18 38 -33 34 -21 -5 5 -18
9 -34 9 -35 0 -2 22 -3 50 -3 48 0 49 1 55 34 4 19 4 44 0 55 l-6 20 531 3
c459 3 532 5 540 18 6 9 9 235 7 573 l-2 559 75 -7 c41 -4 79 -8 85 -8 5 -1
11 7 12 18 5 30 -50 60 -140 75 -57 9 -77 17 -73 26 3 7 1 16 -4 19 -6 4 -7
13 -2 23 5 9 8 35 6 57 -3 63 -4 158 -2 185 2 16 -2 25 -11 25 -11 0 -14 -30
-13 -162 l0 -161 -31 4 c-18 2 -75 9 -127 15 -52 5 -151 17 -220 25 -69 9
-151 18 -183 21 -54 5 -58 7 -53 27 3 11 6 38 6 59 0 34 2 37 28 37 27 0 28
-2 28 -47 -1 -25 4 -48 9 -50 6 -2 10 20 9 54 l-1 58 -52 3 -53 3 4 -65 3 -66
-33 0 c-18 0 -52 5 -75 11 l-42 10 0 170 c0 93 3 169 7 169 4 0 9 -73 11 -163
l3 -162 2 186 c1 102 5 189 8 192 7 7 79 -45 102 -72 7 -9 12 -46 12 -98 l0
-83 55 0 c42 0 55 -3 55 -15 0 -8 5 -15 10 -15 11 0 4 42 -12 73 -11 21 -5 32
11 23 14 -9 34 -113 33 -178 -1 -62 13 -79 21 -26 7 52 -14 169 -40 215 -16
30 -23 58 -23 97 l0 56 -32 2 c-18 0 -40 1 -48 0 -17 -1 -110 59 -110 72 0 4
13 27 28 50 15 22 31 49 35 58 14 38 22 15 22 -64 l0 -83 50 0 50 0 3 113 3
112 -36 0 c-46 0 -49 27 -2 32 31 3 32 5 33 47 0 25 6 47 12 49 7 2 12 7 12
12 0 4 20 39 45 76 34 53 42 71 33 82 -14 16 -55 8 -82 -16 -12 -11 -36 -17
-70 -17 l-51 0 0 -70 c0 -65 -20 -135 -37 -135 -5 0 -8 -4 -8 -10 0 -10 -82
-141 -103 -162 -6 -7 -18 -25 -26 -40 -8 -16 -18 -28 -22 -28 -4 0 -10 -14
-14 -30 -4 -17 -11 -30 -16 -30 -13 0 -11 31 5 61 17 34 5 125 -24 176 -24 42
-84 93 -110 93 -10 0 -31 6 -48 13 -23 10 -29 16 -22 27 7 10 10 11 10 3 0 -7
5 -13 10 -13 6 0 10 49 10 126 0 121 -1 125 -20 119 -11 -4 -20 -2 -20 4 0 6
7 11 15 11 8 0 15 7 15 15 0 17 -35 21 -45 5 -4 -6 -7 -77 -8 -157 l-2 -147
-31 -7 c-74 -15 -144 -106 -144 -187 0 -21 -5 -43 -12 -50 -9 -9 -8 -12 4 -12
9 0 18 -10 22 -22 8 -33 -4 -98 -19 -98 -7 0 -15 -20 -19 -50 -9 -69 -26 -63
-26 10 0 55 2 60 23 61 l22 0 -22 9 c-20 8 -25 35 -12 79 2 7 -2 16 -8 18 -8
3 -13 -4 -13 -16 0 -12 -4 -21 -10 -21 -17 0 -11 32 8 46 13 10 14 15 5 25
-20 20 -40 4 -35 -29 3 -25 0 -31 -20 -37 -12 -4 -37 -18 -55 -31 -17 -13 -36
-24 -42 -24 -6 0 -9 44 -8 118 l2 117 -53 3 -54 3 4 -75 c2 -45 -1 -76 -7 -76
-5 0 -28 18 -50 40 -22 22 -68 61 -102 87 -34 27 -95 74 -136 106 -77 59 -107
66 -107 23 0 -36 31 -70 145 -160 61 -48 144 -114 186 -147 l76 -60 -5 -57
c-2 -31 -11 -64 -18 -73 -8 -8 -14 -23 -14 -32 0 -9 -4 -18 -9 -21 -16 -10
-34 -126 -27 -181 7 -61 31 -130 54 -158 8 -9 13 -19 11 -22 -3 -2 -47 -21
-99 -41 -52 -20 -99 -39 -105 -43 -5 -4 -50 -22 -100 -40 -49 -19 -100 -40
-113 -48 -12 -7 -27 -11 -33 -7 -6 4 -14 2 -18 -4 -3 -6 -19 -14 -34 -17 -23
-6 -27 -4 -27 15 0 13 -4 19 -11 14 -6 -3 -9 -15 -6 -25 4 -16 -17 -39 -35
-39 -3 0 -5 338 -6 751 -1 574 2 751 11 755 9 3 11 151 9 634 l-4 630 1059 2
c582 2 1076 1 1098 -2 25 -3 35 -8 28 -13 -10 -6 -13 -128 -13 -551 0 -298 3
-546 8 -550 4 -4 7 -41 8 -82 1 -61 -2 -74 -15 -74 -14 0 -16 -29 -14 -277 2
-190 6 -278 13 -278 7 0 12 43 13 123 1 75 6 121 12 120 6 -2 9 -54 9 -133 -2
-129 -2 -130 -25 -133 -24 -3 -24 -3 -22 -135 1 -73 4 -131 7 -129 3 1 9 2 14
2 4 0 7 55 7 122 0 81 4 123 11 125 8 3 11 -75 10 -284 -1 -185 3 -289 9 -290
11 -3 11 82 7 3112 -2 1649 -3 1782 -19 1805 -16 22 -16 23 0 17 16 -6 17 19
17 331 -1 185 -5 396 -10 467 -17 239 -70 681 -105 880 -17 92 -24 139 -45
280 -7 44 -15 87 -18 95 -3 8 -11 53 -19 100 -7 47 -17 110 -23 140 -5 30 -15
91 -21 135 -6 44 -14 89 -19 100 -4 11 -13 52 -18 90 -6 39 -16 93 -22 120 -6
28 -17 82 -24 120 -7 39 -15 77 -18 85 -4 8 -9 40 -13 70 -3 30 -10 69 -15 85
-5 17 -17 66 -26 110 -9 44 -20 89 -24 100 -4 11 -13 45 -19 75 -6 30 -18 67
-25 82 -8 14 -17 46 -21 70 -4 24 -11 48 -15 53 -4 6 -11 30 -15 55 -4 24 -11
51 -15 60 -5 8 -16 42 -25 75 -9 33 -20 67 -24 75 -5 9 -12 31 -15 50 -7 33
-10 42 -34 100 -5 14 -20 57 -32 95 -11 39 -25 79 -29 90 -5 11 -23 65 -40
120 -18 55 -36 108 -41 117 -6 10 -10 23 -10 29 0 5 -11 34 -24 63 -13 29 -29
68 -34 87 -6 19 -25 72 -42 119 -17 47 -45 123 -62 170 -17 47 -33 87 -37 90
-3 3 -15 31 -25 62 -27 80 -86 131 -141 121z m-43 -43 c-23 -21 -29 -40 -13
-40 11 0 24 -31 16 -39 -3 -3 -11 1 -16 9 -7 10 -8 3 -3 -25 6 -38 5 -39 -9
-19 -22 29 -34 80 -17 69 8 -5 11 -3 8 6 -6 15 29 59 46 59 5 0 0 -9 -12 -20z
m66 -17 c-1 -28 93 -293 146 -415 9 -20 16 -43 16 -52 0 -9 4 -16 9 -16 5 0
12 -16 16 -36 3 -20 10 -44 15 -53 5 -9 21 -52 35 -96 15 -44 30 -89 35 -100
4 -11 18 -49 30 -85 12 -36 25 -72 29 -80 4 -8 15 -42 25 -75 11 -33 29 -91
42 -130 13 -38 34 -110 48 -158 14 -49 32 -103 40 -120 8 -18 19 -52 26 -77 6
-25 15 -58 20 -75 17 -61 71 -271 80 -310 25 -112 33 -141 43 -147 16 -10 37
2 37 23 0 12 -5 16 -14 13 -18 -7 -40 32 -30 54 6 14 8 13 15 -8 6 -17 6 -10
2 20 -7 58 -15 71 -25 40 -4 -14 -4 -3 -1 25 5 45 4 49 -10 37 -13 -12 -15 -8
-10 30 3 33 2 40 -7 28 -8 -11 -9 -4 -4 33 5 40 4 46 -9 41 -13 -5 -15 1 -11
33 3 31 2 34 -6 18 -8 -16 -9 -9 -5 28 4 45 -8 66 -19 30 -3 -10 -2 2 1 27 3
25 12 54 20 65 13 18 14 16 8 -22 -4 -27 -3 -43 3 -43 6 0 12 6 15 13 3 6 3
-8 0 -33 -4 -35 -2 -42 7 -30 9 12 11 7 8 -22 -4 -37 5 -50 16 -25 3 6 4 -8 3
-33 -2 -25 -2 -37 0 -27 3 9 9 15 14 12 12 -8 12 -45 -1 -45 -5 0 -10 -9 -10
-19 0 -11 5 -23 10 -26 6 -3 10 4 10 17 0 18 2 20 10 8 5 -9 5 -19 -1 -27 -11
-13 -3 -53 10 -53 4 0 6 -15 4 -32 -4 -27 -2 -30 7 -18 9 12 10 5 6 -32 -5
-44 5 -65 17 -35 3 6 3 -12 0 -41 -5 -40 -2 -56 8 -63 8 -5 -292 -9 -727 -9
l-742 0 6 68 c2 37 9 69 13 70 5 2 9 12 9 23 0 10 5 19 10 19 13 0 13 53 0 66
-5 5 -6 21 -3 34 l7 25 8 -25 c5 -16 6 -8 2 22 -4 41 -3 47 10 42 13 -5 15 0
10 25 -5 25 -4 30 8 26 12 -5 14 1 10 26 -3 24 -1 30 8 24 9 -6 10 2 5 36 -7
41 -6 43 10 29 16 -14 17 -12 11 30 -4 34 -3 40 4 25 8 -15 9 -8 5 30 -5 48
-5 49 11 27 21 -30 32 -98 14 -87 -10 6 -12 -1 -6 -36 7 -42 6 -43 -9 -24 -15
19 -16 17 -11 -30 4 -37 3 -45 -4 -30 -8 15 -9 7 -5 -30 5 -47 5 -49 -10 -30
-16 19 -16 17 -11 -30 3 -27 3 -44 0 -37 -13 29 -25 10 -19 -30 5 -33 4 -40
-5 -28 -9 12 -10 4 -6 -35 4 -30 2 -45 -3 -36 -14 21 -23 -4 -16 -46 4 -27 3
-32 -4 -18 -8 18 -9 18 -16 -8 -5 -17 -3 -33 3 -39 17 -17 42 9 42 43 0 15 5
31 10 34 6 3 10 22 10 41 0 20 5 44 10 55 6 10 15 38 20 61 23 108 32 144 39
163 9 22 46 147 62 210 6 22 14 49 19 60 5 11 22 67 40 125 17 58 36 113 41
122 5 10 9 27 9 37 0 11 4 22 9 25 5 3 12 21 15 40 4 20 13 48 21 63 8 15 15
38 15 50 0 12 5 25 10 28 6 3 10 13 10 22 0 8 6 29 13 46 23 54 59 161 64 190
3 15 9 27 14 27 4 0 11 17 15 38 4 20 15 53 25 73 10 19 27 64 39 100 11 35
28 78 36 96 7 17 14 36 14 42 0 6 7 27 16 48 9 21 20 47 24 58 4 11 13 32 20
47 12 24 11 30 -5 48 -10 11 -15 23 -12 27 4 4 14 -2 22 -13 15 -18 16 -18 14
6 -2 36 -1 40 15 40 9 0 14 -10 14 -27z m42 -17 c6 -8 18 -12 26 -9 12 4 14
-1 9 -23 -3 -16 -2 -23 1 -16 11 24 23 11 18 -20 -4 -25 -3 -29 5 -18 14 19
14 1 0 -39 -13 -38 -32 -41 -23 -3 4 20 3 23 -5 12 -15 -21 -25 -5 -11 19 10
20 7 25 -14 22 -4 -1 -5 10 -2 25 6 22 4 25 -9 20 -9 -3 -13 -2 -10 3 3 5 1
12 -5 16 -12 8 -13 25 -1 25 5 0 14 -6 21 -14z m-154 -81 c17 -41 19 -68 3
-45 -7 11 -8 6 -4 -20 6 -31 5 -33 -8 -20 -21 20 -35 76 -17 65 10 -6 12 -1 7
23 -9 42 0 41 19 -3z m244 -50 c0 -8 -9 -29 -20 -47 -22 -36 -27 -20 -9 31 11
32 29 42 29 16z m-264 -84 c-7 -44 -13 -49 -32 -25 -17 21 -17 25 2 -48 5 -19
4 -20 -6 -8 -9 12 -11 10 -6 -12 3 -15 2 -30 -4 -33 -5 -3 -10 0 -10 7 0 7 -5
5 -11 -6 -9 -15 -13 -16 -20 -5 -10 16 -12 56 -3 46 8 -7 34 17 34 32 0 6 -4
11 -10 11 -5 0 -10 -5 -10 -12 0 -6 -3 -9 -6 -5 -4 3 4 27 16 52 20 42 23 44
36 28 12 -16 13 -16 14 -1 0 9 -4 20 -10 23 -5 3 -10 14 -10 23 1 14 5 12 21
-8 16 -18 19 -33 15 -59z m284 50 c0 -5 3 -17 6 -25 5 -12 2 -15 -10 -10 -11
4 -16 1 -16 -10 0 -9 5 -16 10 -16 6 0 10 -7 10 -16 0 -14 3 -14 15 -4 18 15
19 11 4 -27 -8 -22 -12 -24 -20 -13 -8 13 -10 13 -20 0 -8 -11 -9 -6 -3 19 5
29 4 33 -10 28 -20 -8 -20 3 1 48 16 33 33 46 33 26z m23 -178 c-12 -26 -19
-33 -21 -21 -2 10 5 34 15 55 12 26 19 33 21 21 2 -10 -5 -34 -15 -55z m31 -8
c-4 -15 -2 -25 5 -25 18 0 13 -36 -9 -61 -21 -26 -25 -15 -10 28 9 25 9 26 -4
10 -18 -23 -27 -1 -12 28 28 51 40 60 30 20z m-429 -17 c8 -19 14 -26 15 -15
0 24 20 22 20 -3 0 -11 -4 -20 -10 -20 -5 0 -10 -8 -10 -17 0 -27 -29 18 -36
56 -8 41 3 40 21 -1z m1 -95 c-10 -10 -34 17 -38 42 -8 39 5 39 25 -1 10 -20
16 -38 13 -41z m447 -10 c-23 -50 -30 -19 -7 34 12 27 18 33 21 21 2 -10 -4
-34 -14 -55z m-468 -23 c6 -32 6 -34 -8 -15 -8 11 -18 36 -22 55 -6 32 -6 34
8 15 8 -11 18 -36 22 -55z m517 -47 c19 -23 48 -87 48 -105 -1 -9 -5 -7 -15 5
-13 18 -14 18 -17 -4 -2 -12 -9 -24 -16 -27 -10 -3 -11 3 -6 25 4 15 11 31 17
34 5 4 7 13 5 20 -3 9 -11 3 -22 -16 l-17 -30 4 31 c2 23 0 31 -10 27 -10 -4
-11 3 -7 28 4 23 3 30 -4 20 -18 -25 -20 11 -3 48 l16 34 6 -37 c3 -20 13 -44
21 -53z m-532 -1 c0 -25 -1 -26 -14 -7 -7 11 -16 34 -20 50 l-6 30 20 -24 c11
-13 20 -35 20 -49z m-14 -41 c4 -18 2 -31 -3 -31 -10 0 -33 64 -33 91 0 22 30
-27 36 -60z m-20 -43 c6 -31 5 -32 -9 -13 -8 11 -18 36 -22 55 -7 34 -6 34 9
13 9 -12 19 -37 22 -55z m-16 -46 c0 -13 -4 -20 -10 -17 -6 4 -8 -7 -5 -27 3
-18 3 -27 -1 -20 -12 26 -25 10 -19 -25 3 -21 2 -32 -1 -25 -9 19 -37 -37 -28
-57 5 -14 7 -13 14 4 5 11 9 14 9 7 1 -7 -4 -22 -10 -33 -10 -20 -11 -20 -26
-2 -14 17 -14 17 -8 -2 16 -44 17 -55 7 -55 -6 0 -13 6 -16 13 -3 6 -4 -6 -1
-28 2 -22 2 -34 -1 -27 -12 26 -23 10 -18 -25 5 -30 3 -35 -6 -23 -9 12 -10 6
-5 -25 6 -38 6 -39 -10 -20 -15 19 -16 18 -10 -25 6 -41 5 -43 -8 -25 -8 11
-18 35 -22 52 -5 28 -4 32 9 27 13 -5 15 0 10 27 -4 26 -3 30 5 19 12 -16 14
-10 12 35 -2 24 0 27 9 15 7 -11 8 -6 4 18 -5 25 -3 32 7 30 10 -2 13 5 11 26
-3 20 0 26 9 21 9 -6 10 -1 5 19 -5 19 -3 26 8 26 14 0 15 27 1 49 -3 5 -1 12
4 15 5 4 11 -2 14 -11 3 -14 6 -12 15 10 7 16 9 40 5 55 -5 23 -4 25 9 15 12
-11 14 -8 11 20 -4 30 -3 31 11 13 9 -11 16 -30 16 -44z m620 -9 c1 -16 2 -16
16 2 14 19 15 17 9 -20 -5 -30 -4 -36 4 -25 15 21 14 -1 -1 -51 -10 -35 -28
-54 -28 -30 0 5 -3 17 -7 27 -4 12 -3 15 5 10 16 -10 15 6 -3 40 -11 22 -15
25 -15 10 0 -11 -3 -17 -6 -13 -9 8 6 67 17 67 5 0 9 -8 9 -17z m55 -115 c-5
-25 -4 -29 4 -18 9 13 11 12 11 -6 0 -27 -20 -84 -29 -84 -4 0 -5 14 -3 31 4
24 2 30 -8 24 -10 -6 -12 -1 -7 25 7 31 23 60 34 60 3 0 2 -15 -2 -32z m29
-95 c-6 -36 -5 -37 10 -18 15 19 16 18 10 -25 -4 -35 -3 -42 6 -30 9 12 10 7
5 -24 -6 -36 -5 -38 9 -27 14 12 15 10 9 -19 -4 -24 -3 -31 5 -26 16 9 15 -18
0 -61 -16 -45 -30 -42 -23 5 5 29 4 34 -5 22 -9 -12 -10 -6 -5 24 6 37 5 39
-10 26 -16 -13 -17 -12 -10 18 5 24 3 32 -6 30 -9 -2 -13 7 -11 32 2 28 1 32
-8 20 -9 -11 -10 -7 -4 20 13 67 40 98 28 33z m-870 -229 c14 -42 14 -45 0
-40 -14 5 -15 1 -9 -30 4 -24 3 -34 -4 -29 -7 4 -11 -4 -11 -19 0 -14 -5 -26
-11 -26 -7 0 -9 -13 -6 -37 3 -21 3 -30 1 -20 -10 32 -26 18 -20 -17 8 -42
-10 -98 -25 -76 -6 10 -7 0 -3 -30 6 -45 6 -45 -10 -17 -8 15 -18 45 -22 65
-6 35 -5 36 10 17 15 -19 15 -19 10 13 -5 22 -3 32 6 32 9 0 10 11 6 38 -3 20
-3 31 0 24 4 -9 13 -3 26 19 14 22 16 35 9 42 -8 8 -11 6 -11 -7 0 -10 -5 -14
-11 -10 -8 4 -8 9 0 17 6 6 11 19 11 29 0 23 17 23 23 1 3 -10 3 2 0 27 -4 42
-3 44 11 26 14 -17 15 -16 9 18 -8 50 2 45 21 -10z m952 -8 c-4 -18 -1 -46 5
-62 10 -27 12 -28 20 -9 6 14 7 8 3 -18 -5 -31 -4 -36 9 -31 13 5 15 0 10 -32
-5 -28 -3 -35 7 -29 9 6 11 0 5 -24 -7 -31 7 -44 19 -18 3 6 3 -6 0 -28 -3
-22 -12 -47 -21 -55 -13 -13 -14 -11 -8 20 7 32 6 33 -10 20 -15 -13 -16 -11
-10 26 4 26 3 34 -3 25 -14 -19 -22 8 -9 30 10 17 -10 79 -25 79 -5 0 -8 9 -8
20 0 11 -5 20 -11 20 -7 0 -8 12 -4 33 14 63 42 94 31 33z m99 -308 c-4 -18
-14 -42 -21 -53 -13 -19 -14 -18 -14 7 0 32 19 78 32 78 6 0 6 -14 3 -32z
m-828 -2353 c-21 -15 -22 -41 -1 -49 28 -11 70 -6 90 9 19 14 19 15 -3 32 -22
17 -17 18 147 18 94 0 170 -2 170 -4 0 -2 -8 -10 -17 -17 -17 -13 -17 -15 1
-29 25 -19 66 -19 91 -2 21 16 13 34 -19 47 -12 5 15 7 69 5 l90 -3 0 -34 0
-33 -390 -1 -390 -1 -96 -194 c-54 -107 -143 -288 -199 -404 -56 -115 -146
-300 -200 -410 -54 -110 -110 -226 -124 -257 -19 -43 -31 -58 -46 -58 -11 0
-20 2 -20 4 0 2 16 32 35 67 33 61 177 350 471 944 74 149 134 275 134 281 0
6 11 23 25 38 13 15 29 34 34 44 7 14 25 17 87 18 64 1 75 -1 61 -11z m73 -25
c0 -5 -16 -10 -35 -10 -19 0 -35 5 -35 10 0 6 16 10 35 10 19 0 35 -4 35 -10z
m390 0 c0 -5 -13 -10 -30 -10 -16 0 -30 5 -30 10 0 6 14 10 30 10 17 0 30 -4
30 -10z m346 -348 c-4 -3 -10 -1 -15 4 -20 20 -151 295 -151 316 0 13 39 -53
86 -145 47 -93 83 -172 80 -175z m-171 261 c10 -21 66 -137 125 -258 59 -121
138 -283 175 -360 37 -77 114 -236 171 -353 57 -116 104 -215 104 -218 0 -3 9
-19 21 -36 12 -16 19 -31 17 -33 -2 -2 -37 12 -77 31 -40 19 -90 41 -110 48
-59 23 -145 56 -166 66 -11 4 -46 20 -77 34 -116 53 -138 55 -576 56 -415 0
-477 -4 -554 -39 -24 -11 -99 -43 -168 -71 -69 -28 -160 -67 -204 -86 -43 -20
-81 -33 -84 -30 -3 3 13 43 36 88 22 46 79 164 127 263 180 373 320 659 343
700 6 11 33 68 61 128 l51 107 384 0 384 0 17 -37z m191 -290 c3 -10 10 -25
15 -33 5 -8 20 -40 34 -70 14 -30 31 -66 39 -80 7 -14 53 -104 101 -200 167
-334 243 -485 269 -534 30 -57 32 -66 11 -66 -10 0 -50 71 -117 208 -217 448
-268 552 -282 584 -9 18 -20 40 -26 48 -14 22 -70 142 -70 152 0 15 21 8 26
-9z m-1687 -540 c1 -287 3 -338 15 -335 26 5 27 -16 2 -45 -16 -19 -26 -45
-28 -74 -2 -24 -5 144 -6 374 -2 254 1 417 7 417 6 0 10 -135 10 -337z m2202
2 c0 -169 -2 -310 -5 -313 -4 -3 -6 138 -6 313 0 175 2 316 5 313 3 -3 6 -144
6 -313z m-673 -317 l-3 -99 -430 0 c-236 1 -432 1 -435 1 -3 0 -6 45 -7 100
l-2 100 440 -1 440 -1 -3 -100z m-898 2 c0 -49 0 -93 0 -97 -1 -5 -18 -7 -38
-5 -41 3 -23 17 -229 -174 l-102 -95 4 -80 c3 -76 1 -82 -24 -105 -31 -29 -43
-27 -53 12 -4 16 -12 49 -18 74 -5 25 -15 54 -20 65 -5 11 -14 38 -19 60 -5
22 -19 72 -31 110 -29 94 -29 97 0 105 14 4 50 18 80 32 30 14 105 45 165 68
120 47 231 95 255 110 28 17 30 10 30 -80z m1105 15 c44 -18 132 -54 195 -80
63 -27 131 -54 150 -61 19 -6 35 -16 35 -21 0 -4 -15 -53 -33 -108 -31 -98
-44 -141 -78 -260 -10 -33 -19 -62 -21 -64 -1 -2 -12 4 -22 13 -17 15 -19 29
-16 109 l3 92 -77 75 c-42 41 -105 100 -140 130 -61 53 -66 55 -120 55 l-56 0
2 95 c1 52 2 96 3 97 0 1 21 -7 48 -18 26 -12 83 -36 127 -54z m-28 -212 c30
-27 83 -74 117 -105 58 -53 86 -73 71 -48 -13 22 4 8 19 -15 14 -21 14 -24 1
-19 -14 6 -15 -34 -13 -349 2 -195 0 -353 -4 -350 -15 9 -31 -9 -17 -18 10 -6
6 -8 -11 -7 -15 2 -24 -2 -23 -8 1 -7 -5 -10 -16 -7 -9 2 -23 -3 -30 -11 -8
-9 -19 -16 -25 -16 -21 0 -59 -32 -47 -40 13 -7 4 -40 -10 -40 -5 0 -9 -5 -9
-11 0 -5 5 -7 10 -4 6 4 10 -6 9 -22 0 -25 -1 -26 -9 -8 -6 14 -8 2 -8 -40 0
-48 2 -54 8 -30 5 20 8 -4 8 -70 0 -64 -2 -93 -8 -80 -8 18 -9 17 -9 -8 -1
-16 3 -26 8 -23 14 9 16 -37 11 -279 -3 -126 -7 -221 -8 -211 -2 20 -2 20 -17
0 -13 -17 -15 9 -16 236 -1 140 0 301 1 358 2 88 0 102 -14 102 -14 0 -16 -35
-16 -334 l0 -333 -90 -1 -90 -2 1 363 c0 216 -4 394 -10 442 -7 44 -16 114
-21 155 -5 41 -12 91 -15 110 -3 19 -8 60 -12 90 -3 30 -9 60 -13 65 -4 6 -10
48 -14 95 -4 47 -10 88 -15 93 -4 4 -133 6 -287 5 l-279 -3 -7 -65 c-3 -36
-13 -114 -23 -175 -9 -60 -20 -144 -24 -185 -9 -80 -27 -215 -40 -291 -7 -43
-8 -143 -3 -502 2 -146 2 -148 23 -137 19 11 20 19 18 143 -1 76 2 131 7 130
5 -2 10 -63 12 -136 l3 -132 -32 -12 c-25 -10 -29 -16 -24 -32 6 -20 3 -21
-89 -21 l-96 0 0 336 c0 298 -2 335 -16 332 -13 -3 -15 -41 -14 -327 0 -178 3
-328 6 -332 3 -5 0 -17 -5 -27 -8 -15 -22 -20 -67 -21 -31 0 -59 -3 -62 -5 -4
-2 -45 -6 -90 -7 l-84 -3 1 719 1 720 21 18 c12 9 25 17 30 17 5 0 7 -113 4
-265 l-6 -265 23 -10 c13 -5 55 -29 93 -53 l70 -44 2 -387 c2 -373 6 -416 32
-416 3 0 5 175 4 390 -2 352 -4 392 -20 417 l-17 28 22 -19 c12 -11 22 -15 22
-9 0 10 -24 34 -49 48 -9 5 -12 4 -7 -3 9 -14 -4 -15 -24 -2 -13 8 -13 10 0
10 10 0 8 5 -7 15 -12 8 -29 12 -39 8 -11 -4 -15 -3 -11 4 8 13 -42 49 -62 45
-7 -2 -10 1 -7 6 8 13 9 653 1 673 -4 11 6 28 28 50 46 46 148 141 172 159 35
27 -68 -84 -125 -133 -30 -27 -56 -53 -57 -58 -1 -5 1 -5 4 1 19 38 23 -24 23
-339 l0 -350 28 -19 c15 -10 47 -29 72 -41 73 -37 82 -48 79 -106 -3 -40 0
-51 14 -53 15 -3 17 6 17 60 0 67 -1 68 -65 104 -83 46 -101 57 -107 63 -4 4
-8 159 -8 345 l-1 338 23 16 c13 9 38 31 56 49 18 18 37 33 42 33 15 0 12 11
-6 24 -13 10 -7 19 43 61 l59 50 538 -2 538 -3 55 -47z m465 52 c11 -4 13
-208 10 -1171 -1 -790 1 -1171 8 -1185 13 -24 -7 -26 -53 -5 -18 8 -54 21 -81
29 l-50 14 1 94 1 94 48 5 c27 3 55 9 62 13 17 11 17 181 -1 195 -7 6 -34 12
-60 14 l-48 3 0 737 c0 437 4 745 10 755 5 10 21 61 36 113 49 176 89 300 96
300 4 0 13 -2 21 -5z m-192 -1175 c0 -394 -2 -719 -4 -721 -3 -2 -54 0 -115 5
l-111 9 0 408 0 408 96 59 96 59 -1 250 c-1 137 1 252 5 256 4 4 13 2 21 -4
11 -9 13 -141 13 -729z m-620 630 l0 -100 -265 0 -265 0 0 54 c0 29 3 74 6
100 l7 46 258 0 259 0 0 -100z m68 -370 c35 -280 36 -284 17 -324 -10 -20 -20
-36 -24 -36 -3 0 -4 53 -3 117 2 64 -1 157 -7 207 -6 51 -13 145 -15 211 -4
92 -3 105 3 55 5 -36 18 -139 29 -230z m-334 248 l273 3 7 -93 c4 -51 9 -123
13 -160 l5 -67 -292 -1 -293 0 7 57 c16 145 19 240 7 247 -6 4 -11 13 -10 19
0 7 2 8 5 2 2 -6 102 -9 278 -7z m-289 -140 c-4 -51 -9 -113 -11 -138 -2 -25
-4 -109 -5 -187 -1 -78 -6 -140 -10 -137 -16 10 -41 73 -35 91 3 10 10 63 15
118 22 225 39 345 48 345 3 0 2 -42 -2 -92z m505 -196 l85 -2 0 -155 1 -155
-32 0 c-17 0 -42 9 -55 20 -22 20 -35 21 -212 19 -172 -1 -191 -3 -205 -20
-10 -11 -29 -19 -49 -19 l-33 0 0 155 0 154 138 3 c139 3 209 3 362 0z m-538
-295 c21 -52 19 -113 -6 -149 -10 -16 -21 -28 -25 -28 -3 0 -6 50 -6 110 0
120 9 137 37 67z m692 -67 c1 -55 -2 -100 -6 -100 -19 0 -38 49 -38 96 0 46
27 121 39 109 2 -3 4 -50 5 -105z m-194 62 c0 -26 -30 -32 -165 -32 -135 0
-165 6 -165 32 0 4 74 8 165 8 91 0 165 -4 165 -8z m-343 -21 c10 -16 8 -23
-15 -43 -15 -13 -48 -48 -74 -77 -32 -35 -53 -51 -63 -47 -12 4 1 26 57 95 40
49 75 90 78 90 3 1 10 -8 17 -18z m427 -72 c-2 -9 3 -22 11 -29 13 -11 14 -10
9 4 -9 24 0 20 40 -20 20 -20 33 -40 30 -45 -3 -6 -2 -15 3 -22 5 -7 6 -25 2
-42 -7 -33 -9 -32 -14 6 -2 14 -21 44 -42 66 -21 22 -58 63 -81 92 -36 43 -42
54 -32 67 11 12 18 9 46 -23 18 -22 31 -45 28 -54z m-504 55 c0 -11 -37 -53
-42 -48 -13 12 6 54 23 54 11 0 19 -3 19 -6z m550 -25 c0 -27 -2 -30 -16 -19
-8 8 -20 22 -25 32 -8 15 -6 18 16 18 21 0 25 -4 25 -31z m-117 -22 c18 -18
53 -56 79 -84 l46 -50 -1 -119 -2 -119 -294 -3 c-162 -1 -300 -1 -305 1 -7 3
-9 45 -6 126 l5 121 73 80 73 80 150 0 151 0 31 -33z m169 -304 c-4 -58 -15
-64 -18 -10 -1 18 -3 37 -4 42 -1 6 1 26 6 45 l8 35 6 -29 c3 -16 3 -53 2 -83z
m-2 -112 c0 -45 -10 -49 -107 -46 -118 3 -143 5 -143 13 0 5 52 6 115 4 79 -3
115 -1 115 6 0 8 -41 12 -117 14 -82 2 -118 7 -121 16 -3 9 24 12 112 12 66 0
117 4 121 10 13 22 25 8 25 -29z m-442 7 c-3 -9 -38 -15 -109 -18 -61 -3 -99
-8 -91 -13 7 -5 51 -7 97 -6 46 2 87 1 90 -2 8 -9 -166 -19 -194 -12 -20 5
-23 3 -18 -10 6 -15 -4 -17 -82 -17 -48 0 -109 -3 -135 -6 -31 -5 -46 -3 -46
5 0 7 27 11 78 12 69 1 196 14 165 18 -19 2 -16 21 3 21 8 0 12 5 8 11 -13 21
21 29 129 29 83 0 108 -3 105 -12z m172 -35 l0 -38 -80 0 -80 0 0 38 0 37 80
0 80 0 0 -37z m499 -44 c3 -9 -13 -10 -59 -6 -35 4 -99 7 -144 8 -51 0 -74 3
-61 8 31 13 259 4 264 -10z m-671 -11 c-3 -7 -28 -14 -64 -15 -221 -11 -565
-34 -578 -39 -20 -8 -23 -126 -3 -142 6 -5 153 -19 326 -31 173 -12 317 -23
319 -26 3 -3 3 -8 -1 -11 -6 -6 -370 14 -737 39 l-165 12 -2 77 c-2 51 2 79
10 87 14 11 25 12 447 36 145 9 266 18 269 20 2 3 44 5 94 5 65 0 88 -3 85
-12z m412 3 c84 -10 122 -12 479 -31 101 -6 188 -13 192 -16 5 -3 9 -41 9 -84
0 -75 -1 -80 -22 -84 -38 -8 -774 -56 -855 -56 -18 0 -33 4 -33 9 0 10 62 16
380 36 135 9 253 18 263 21 14 4 17 17 17 74 0 38 -4 72 -10 75 -8 5 -380 29
-579 37 -41 2 -66 8 -69 16 -5 15 102 16 228 3z m-260 -101 l0 -101 -57 3 -58
3 -1 90 c0 50 1 93 3 98 2 4 29 7 59 7 l54 0 0 -100z m-159 -30 c-1 -52 -3
-95 -4 -96 -2 -2 -326 18 -524 31 l-91 7 -4 55 c-1 30 0 57 4 59 3 2 125 11
270 19 145 9 270 17 278 19 8 2 28 3 44 3 l29 -2 -2 -95z m554 75 c132 -8 248
-15 258 -15 14 0 17 -9 17 -54 0 -30 -4 -57 -8 -60 -7 -4 -349 -27 -575 -39
l-49 -2 -4 99 -3 98 62 -6 c34 -4 170 -13 302 -21z m-510 -165 c3 -5 28 -10
55 -10 27 0 52 5 55 10 11 18 25 10 25 -15 0 -25 -1 -25 -80 -25 -79 0 -80 0
-80 25 0 25 14 33 25 15z m-440 -50 c314 -19 298 -16 326 -61 13 -21 28 -39
34 -40 5 0 70 -1 143 -1 143 -1 163 6 176 57 5 21 13 24 68 29 80 7 345 24
506 32 l123 7 -3 -89 -3 -89 -885 0 -885 0 -1 85 c0 47 1 87 2 90 1 3 51 2
111 -1 59 -4 189 -12 288 -19z m549 -6 c35 -13 13 -24 -49 -24 -60 0 -75 6
-58 23 8 9 86 9 107 1z m-150 -29 c4 -12 25 -15 96 -15 71 0 92 3 96 15 4 9
19 15 40 15 39 0 41 -6 15 -37 -18 -22 -27 -23 -149 -23 -127 0 -130 1 -146
25 -21 33 -21 35 13 35 16 0 31 -6 35 -15z m1049 -162 c60 -18 36 -18 -943
-23 -553 -3 -1012 -3 -1020 -1 -7 3 8 12 35 22 45 15 133 17 958 18 836 1 912
0 970 -16z m162 -1445 c0 -149 -19 -161 -23 -15 -2 59 -1 115 2 123 14 36 21
-2 21 -108z m-540 -115 c-24 -38 -56 -83 -71 -101 -14 -18 -35 -49 -46 -70
-36 -67 -48 -87 -167 -278 -151 -241 -201 -313 -215 -308 -16 6 -13 12 97 189
38 61 74 119 80 130 7 11 31 48 55 83 23 35 42 65 42 67 0 2 19 35 43 72 23
38 47 77 54 88 68 112 100 159 121 175 49 39 52 21 7 -47z m-65 31 c0 -15 -47
-84 -57 -84 -11 0 -10 36 3 78 3 11 54 18 54 6z m-1285 -221 c55 -47 143 -118
195 -157 52 -40 136 -104 185 -144 50 -40 117 -94 149 -120 32 -26 82 -66 109
-89 28 -24 54 -43 59 -43 4 0 8 -7 8 -15 0 -33 -34 -11 -195 123 -11 9 -38 30
-60 46 -22 17 -42 33 -45 36 -3 3 -77 62 -165 130 -250 195 -319 250 -337 272
-18 21 -24 48 -10 48 4 0 52 -39 107 -87z m824 51 c6 -5 -28 -54 -39 -54 -13
0 -40 30 -40 45 0 7 6 16 13 19 12 5 58 -2 66 -10z m-89 -46 c20 -27 23 -41
21 -110 -2 -65 -7 -85 -27 -115 -13 -20 -24 -44 -24 -54 0 -16 -8 -19 -45 -19
l-45 0 0 71 c0 39 -5 79 -11 90 -8 16 -7 29 5 54 9 18 16 36 16 41 0 10 67 74
78 74 4 0 19 -14 32 -32z m173 2 c43 -37 70 -111 56 -149 -6 -14 -9 -51 -8
-82 1 -30 -1 -60 -4 -66 -3 -5 -23 -9 -44 -8 -33 2 -38 6 -50 41 -17 48 -50
84 -71 77 -10 -4 -13 -2 -8 5 4 7 14 12 22 12 11 0 14 15 14 65 0 51 -3 65
-15 65 -8 0 -15 5 -15 11 0 5 5 7 11 4 12 -8 49 23 49 42 0 22 27 15 63 -17z
m-575 -143 c1 -53 -1 -97 -6 -97 -5 0 -17 9 -27 20 -14 16 -18 35 -16 92 2 81
6 90 29 86 14 -3 17 -19 20 -101z m944 98 c10 -4 13 -29 11 -98 -1 -92 -1 -92
-27 -92 -26 0 -26 0 -30 98 -3 87 -1 97 15 97 9 0 23 -2 31 -5z m-461 -197
c18 -29 20 -45 16 -130 -4 -88 -3 -97 14 -100 18 -3 18 -4 0 -27 -14 -18 -23
-22 -37 -16 -25 11 -43 7 -74 -15 -26 -18 -27 -18 -58 6 -46 36 -42 54 12 54
l45 0 0 101 c0 77 5 107 18 130 22 38 38 37 64 -3z m-335 3 c-8 -12 -87 -53
-92 -48 -6 6 69 56 84 56 7 1 11 -3 8 -8z m720 -63 c10 -15 -9 -8 -57 23 -26
18 -46 36 -43 41 5 8 89 -46 100 -64z m-686 32 c0 -30 -14 -41 -23 -17 -3 6
-5 -6 -5 -28 0 -22 2 -32 5 -22 7 28 22 19 21 -13 -1 -16 -3 -30 -6 -30 -3 0
-27 17 -53 37 l-49 37 28 18 c15 10 33 18 40 18 7 0 15 7 18 15 10 25 24 17
24 -15z m765 -42 c2 -7 6 -52 8 -100 l4 -88 -31 0 -31 0 2 93 c1 50 2 95 2
100 2 12 41 8 46 -5z m-964 -21 c23 -20 25 -27 21 -94 -4 -72 -4 -73 -32 -73
l-28 0 2 95 c0 52 3 95 6 95 3 0 16 -10 31 -23z m604 -48 c-19 -29 -35 -57
-35 -61 0 -5 -9 -8 -21 -8 -15 0 -19 4 -15 16 3 9 6 38 6 66 0 48 1 50 24 44
13 -3 35 -2 48 3 34 13 33 0 -7 -60z m-211 -8 l2 -61 -38 0 c-21 0 -38 -4 -38
-10 0 -5 -7 -10 -15 -10 -12 0 -14 10 -10 55 5 47 3 55 -15 65 -34 18 -13 29
51 26 l60 -3 3 -62z m330 -119 c-1 -177 0 -168 -21 -151 -9 8 -18 12 -21 9 -3
-3 -9 7 -13 22 -4 16 -4 30 0 33 12 7 21 -6 21 -28 0 -11 3 -17 7 -13 4 4 8
64 9 134 2 146 2 142 12 142 4 0 6 -66 6 -148z m-611 88 l58 -45 -3 -139 -3
-139 -35 -15 c-19 -8 -54 -23 -78 -34 -46 -20 -73 -21 -79 -1 -3 7 10 13 34
15 l38 3 2 107 c1 113 -1 120 -46 124 -41 5 -57 -10 -55 -53 2 -21 -2 -58 -8
-83 -9 -38 -8 -51 6 -77 18 -35 20 -53 8 -53 -20 0 -62 134 -62 195 0 56 35
175 51 175 12 0 12 2 -11 -65 -21 -60 -27 -175 -10 -175 6 0 7 18 4 43 -3 24
0 59 8 82 13 39 13 39 60 36 56 -3 64 11 53 96 -4 30 -3 54 2 52 4 -2 34 -24
66 -49z m157 9 c0 -24 -4 -38 -10 -34 -5 3 -10 22 -10 41 0 19 5 34 10 34 6 0
10 -18 10 -41z m420 -64 c0 -59 -5 -65 -27 -37 -16 19 -14 11 7 -30 15 -31 9
-44 -15 -35 -8 4 -15 18 -15 34 0 21 -3 24 -9 14 -6 -10 -4 -25 5 -44 18 -33
18 -32 -19 -41 -25 -6 -28 -5 -22 14 3 11 7 34 7 51 1 17 7 33 15 36 7 3 13
12 13 19 0 8 7 17 15 20 8 4 15 14 15 23 0 10 3 21 7 24 16 17 23 3 23 -48z
m-496 -95 c0 -44 -2 -80 -6 -80 -5 0 -8 39 -8 87 0 47 3 83 6 80 4 -3 7 -42 8
-87z m39 -38 l0 -91 36 15 c23 10 37 11 39 4 2 -5 12 -10 22 -10 41 0 29 -22
-27 -46 -32 -15 -76 -34 -98 -44 -22 -11 -62 -28 -90 -38 -59 -23 -184 -75
-315 -130 -416 -175 -447 -186 -478 -174 -18 6 70 47 198 91 52 18 127 48 165
66 68 32 172 76 322 136 88 34 286 120 293 126 2 2 -14 1 -36 -3 -37 -5 -42
-4 -47 17 -12 44 -8 181 5 177 7 -3 11 -35 11 -96z m262 58 c-3 -5 -17 -10
-31 -10 -13 0 -24 5 -24 10 0 6 14 10 31 10 17 0 28 -4 24 -10z m-198 -12 c4
-7 17 -18 27 -24 32 -17 33 -38 2 -30 -32 8 -66 36 -66 53 0 17 27 17 37 1z
m-277 -103 l0 -95 -31 0 -32 0 7 46 c3 26 6 69 6 95 0 46 2 49 25 49 25 0 25
0 25 -95z m493 84 c74 -38 86 -88 35 -139 -31 -30 -36 -32 -87 -27 -69 7 -101
35 -101 88 0 51 39 79 118 88 7 0 23 -4 35 -10z m-245 -60 c-4 -33 -4 -34 -15
-9 -12 28 -5 66 9 52 5 -5 8 -25 6 -43z m552 -58 c91 -12 219 -28 285 -36 66
-8 188 -22 270 -31 244 -26 373 -52 360 -74 -5 -8 -101 3 -225 25 -47 9 -123
20 -170 25 -251 27 -375 42 -465 55 -55 8 -130 17 -168 20 -77 6 -121 20 -112
36 4 5 19 8 33 5 15 -3 101 -14 192 -25z m-159 -66 c4 -22 5 -68 2 -102 l-6
-61 -44 -4 c-25 -2 -47 0 -49 3 -2 4 -11 39 -19 78 -15 70 -14 73 7 102 19 26
28 30 63 27 38 -3 40 -5 46 -43z m-267 2 c3 -12 20 -40 39 -62 19 -22 37 -55
40 -72 l7 -33 -85 0 c-69 0 -85 -3 -85 -15 0 -8 -5 -15 -11 -15 -5 0 -7 5 -3
11 3 6 2 14 -3 18 -11 7 -33 132 -26 145 7 11 84 46 104 46 9 0 19 -10 23 -23z
m498 -4 c11 -10 26 -13 43 -9 22 6 26 4 23 -11 -2 -12 -14 -19 -36 -21 -30 -3
-32 -6 -32 -41 0 -32 -6 -43 -39 -69 -51 -41 -175 -103 -193 -97 -8 3 -21 -9
-32 -30 -30 -55 -49 -46 -33 16 9 38 12 40 37 35 28 -5 30 -4 46 54 3 8 7 52
11 98 5 69 9 82 22 80 10 -2 16 -14 16 -33 1 -23 6 -31 23 -33 19 -3 22 1 22
32 0 29 -3 34 -17 30 -15 -5 -15 -3 2 10 23 19 110 12 137 -11z m-448 -9 c15
-39 -4 -42 -24 -3 -8 15 -7 19 4 19 7 0 17 -7 20 -16z m63 -40 c26 -111 54
-245 73 -349 11 -60 30 -150 42 -200 30 -130 53 -267 50 -292 -5 -37 -30 -27
-37 15 -3 20 -10 56 -16 79 -5 23 -9 55 -9 71 0 16 -13 80 -29 143 -16 63 -34
148 -41 189 -7 41 -17 95 -22 120 -5 25 -13 72 -19 105 -5 33 -14 76 -19 95
-14 49 -13 83 3 78 6 -3 17 -27 24 -54z m723 16 c166 -22 210 -31 210 -42 0
-5 0 -224 0 -488 l0 -480 -221 2 -222 3 2 108 2 107 -55 0 -56 0 0 -110 0
-110 -179 0 c-189 0 -211 3 -211 27 0 12 3 13 13 4 21 -17 26 -4 20 60 l-4 60
43 -3 c33 -2 45 -8 53 -25 13 -31 49 -30 63 2 10 21 19 25 52 25 33 0 40 -3
40 -20 0 -11 6 -20 14 -20 16 0 29 92 20 139 -6 31 -7 31 -68 31 l-61 0 -28
138 c-15 75 -35 172 -45 215 -19 88 -19 88 53 108 52 14 180 76 195 95 23 27
36 16 32 -27 l-4 -40 53 3 54 3 3 100 c3 115 21 168 57 160 11 -3 90 -14 175
-25z m-988 -16 c-3 -25 17 -121 34 -161 17 -39 17 -43 0 -43 -31 0 -236 121
-236 140 0 10 108 50 136 50 13 0 28 9 34 21 14 24 36 20 32 -7z m730 -108
c-3 -81 -6 -95 -22 -99 -31 -8 -36 5 -35 93 2 106 0 100 33 100 l27 0 -3 -94z
m532 84 c23 -8 26 -15 26 -55 0 -31 -5 -47 -15 -51 -8 -4 -15 -11 -15 -16 0
-6 7 -8 15 -5 12 5 14 -53 12 -438 -2 -390 0 -445 13 -445 13 0 15 21 14 129
-1 70 -5 134 -9 141 -4 7 -4 15 1 19 5 3 9 60 9 126 0 75 4 118 10 115 13 -7
14 -523 0 -532 -5 -4 -9 -30 -8 -58 l2 -50 -512 2 -512 3 -3 42 -3 43 486 0
c522 0 507 -2 486 51 l-10 24 0 -27 -1 -28 -485 0 c-317 0 -485 3 -485 10 0 7
163 10 469 10 417 0 470 2 475 16 3 8 6 230 6 492 -1 262 -1 480 0 485 0 9 4
9 34 -3z m73 -75 c0 -84 -20 -81 -25 3 -3 50 -1 62 11 62 11 0 15 -14 14 -65z
m-1553 -7 c-1 -24 -3 -56 -3 -71 -1 -25 -4 -28 -28 -25 -25 3 -27 6 -27 56 -1
48 2 56 24 68 36 19 37 18 34 -28z m165 -80 c30 -15 63 -28 72 -28 10 0 21 -5
25 -11 17 -28 -164 48 -221 92 -44 36 -27 41 23 7 26 -18 71 -45 101 -60z
m687 57 c-35 -28 -163 -91 -202 -101 -41 -9 -19 10 28 25 50 17 141 67 163 91
10 11 22 17 28 13 6 -4 -1 -15 -17 -28z m-934 -36 l-4 -60 54 3 53 3 -3 38
c-2 20 -1 37 1 37 3 0 36 -18 73 -40 38 -22 98 -49 134 -60 49 -15 76 -30 105
-60 l40 -41 5 -184 5 -185 -128 0 -127 0 -11 -27 c-7 -18 -8 -49 -2 -88 8 -60
25 -80 31 -37 3 21 7 22 122 22 l118 0 -5 -59 c-4 -38 -2 -61 6 -65 8 -5 11
10 11 48 0 31 4 56 10 56 5 0 9 -27 7 -62 -1 -48 -6 -63 -17 -63 -9 0 -14 -9
-13 -23 l3 -22 -476 0 c-467 0 -476 0 -481 20 -8 30 -25 24 -21 -8 l3 -27 488
-3 488 -2 -3 -43 -3 -42 -512 -3 -513 -2 0 55 c0 49 2 55 21 55 15 0 19 4 15
16 -3 9 -6 135 -6 280 0 165 -4 264 -10 264 -6 0 -10 -99 -9 -265 0 -190 -4
-271 -13 -288 -12 -21 -12 -21 -19 12 -4 19 -7 180 -6 358 1 304 2 323 19 323
15 0 18 -9 18 -55 0 -37 -4 -55 -12 -56 -7 0 -4 -4 7 -8 19 -8 20 -3 25 63 3
39 10 71 15 72 6 0 33 11 60 24 69 33 438 188 450 189 6 1 9 -23 7 -60z m703
31 c3 -6 -5 -10 -19 -10 -14 0 -31 -9 -40 -22 -15 -21 -17 -19 -20 14 -1 11
20 19 66 27 4 0 10 -3 13 -9z m-177 -16 c14 -11 14 -13 2 -14 -13 0 -14 -16
-12 -99 3 -82 1 -99 -12 -104 -10 -4 -20 2 -27 16 -6 12 -23 34 -37 49 -18 20
-22 31 -15 40 15 18 6 68 -18 100 l-19 28 60 -2 c34 -1 69 -7 78 -14z m-123
-66 c4 -17 2 -35 -4 -41 -13 -13 -45 57 -37 80 9 22 33 -1 41 -39z m1232 -108
c-1 -107 -5 -151 -14 -154 -15 -6 -29 14 -17 23 11 7 12 261 2 261 -5 0 -8 5
-8 10 0 6 9 10 19 10 19 0 20 -8 18 -150z m-1070 58 c6 -46 12 -165 12 -265 2
-160 0 -183 -13 -183 -9 0 -16 -4 -16 -10 0 -5 6 -10 14 -10 16 0 21 -86 5
-96 -5 -3 -9 0 -9 7 0 7 -6 4 -14 -7 -11 -14 -17 -16 -27 -7 -6 6 -18 9 -25 6
-11 -4 -14 7 -14 46 0 28 5 51 10 51 6 0 10 -15 10 -34 0 -42 20 -60 21 -19 0
15 0 112 0 216 -1 180 0 187 19 187 11 0 20 5 20 10 0 6 -4 10 -10 10 -6 0
-10 37 -10 90 0 50 4 90 8 90 4 0 13 -37 19 -82z m-65 -268 c0 -82 1 -155 2
-162 1 -6 -5 -13 -11 -15 -10 -4 -13 33 -13 161 0 104 4 166 10 166 6 0 11
-58 12 -150z m143 -157 c5 -20 1 -23 -22 -23 l-28 0 -3 121 c-1 66 1 126 5
132 4 7 15 -37 25 -98 10 -60 20 -120 23 -132z m-183 -84 c2 -22 2 -42 -1 -45
-2 -2 -55 -4 -117 -4 -122 0 -125 1 -117 58 l5 32 113 0 113 0 4 -41z m192 33
c2 -4 7 -24 11 -45 l7 -37 -39 0 -40 0 0 45 c0 43 2 45 28 45 15 0 30 -3 33
-8z m184 -39 l-3 -48 -35 3 c-19 2 -35 5 -36 5 -1 1 -4 21 -8 45 l-6 42 45 0
46 0 -3 -47z m192 -114 l0 -100 -27 3 -26 3 1 95 c1 52 1 96 2 98 0 1 11 2 25
2 l25 0 0 -101z m-486 -75 c1 -90 -2 -109 -14 -109 -12 0 -16 19 -18 99 -3
106 1 130 20 124 8 -3 12 -38 12 -114z m33 71 c1 -19 -3 -35 -8 -35 -5 0 -9
16 -9 35 0 19 4 35 8 35 4 0 8 -16 9 -35z m-79 -157 c-1 -13 2 -50 6 -83 7
-53 6 -58 -8 -46 -23 19 -22 151 1 151 1 0 2 -10 1 -22z"/>
<path d="M1438 11343 c-10 -2 -19 -12 -19 -21 -1 -9 -3 -33 -5 -54 -4 -51 11
-59 98 -56 l73 3 3 59 c2 41 -1 62 -10 67 -13 9 -110 10 -140 2z m126 -44 c13
-68 12 -69 -59 -69 l-65 0 0 43 c0 24 3 47 7 50 3 4 30 7 58 7 51 0 53 -1 59
-31z"/>
<path d="M1319 10870 c-8 -100 -2 -110 69 -110 70 0 79 8 77 70 l-1 45 -72 3
c-45 2 -72 -1 -73 -8z m59 -23 c2 -12 -3 -17 -17 -17 -12 0 -21 6 -21 13 0 31
32 34 38 4z m62 -2 c0 -8 -7 -15 -16 -15 -8 0 -12 -5 -9 -10 4 -6 11 -8 16 -5
5 4 9 -3 9 -14 0 -24 -28 -29 -36 -6 -8 20 -24 19 -24 -1 0 -9 -7 -14 -17 -12
-29 6 -26 28 6 39 17 6 31 17 31 25 0 8 9 14 20 14 11 0 20 -7 20 -15z"/>
<path d="M1547 10872 c-3 -4 -7 -27 -8 -50 -4 -55 10 -64 89 -60 l57 3 3 58 3
57 -70 0 c-38 0 -72 -3 -74 -8z m53 -28 c0 -8 -9 -14 -20 -14 -22 0 -28 26 -7
33 16 6 27 -1 27 -19z m70 1 c0 -9 -9 -15 -25 -15 -16 0 -25 6 -25 15 0 9 9
15 25 15 16 0 25 -6 25 -15z m-45 -25 c3 -5 15 -10 26 -10 27 0 19 -24 -9 -28
-15 -2 -22 2 -22 12 0 9 -4 16 -10 16 -5 0 -10 -7 -10 -16 0 -9 -7 -14 -17
-12 -25 5 -26 22 -1 34 31 15 36 16 43 4z"/>
<path d="M1207 10552 c-15 -3 -17 -17 -17 -103 l0 -99 80 0 80 0 0 100 0 100
-27 2 c-53 3 -99 3 -116 0z m113 -102 l0 -80 -50 0 -50 0 0 80 0 80 50 0 50 0
0 -80z"/>
<path d="M1269 10255 c0 0 -1 -68 -2 -151 l-2 -151 239 2 239 2 0 144 0 144
-59 2 c-41 2 -366 8 -415 8z m97 -34 c32 0 73 1 89 2 17 2 35 -1 42 -5 6 -5
14 -5 17 0 3 5 26 6 51 2 24 -4 47 -4 50 -1 3 2 28 5 55 6 44 1 48 0 39 -16
-5 -11 -16 -16 -24 -13 -9 4 -15 0 -15 -9 0 -8 6 -14 13 -13 6 0 12 -3 12 -9
0 -5 -6 -9 -13 -9 -7 1 -11 -3 -9 -10 2 -6 11 -10 19 -8 9 1 18 -4 21 -12 5
-12 -26 -15 -209 -15 -164 0 -214 3 -211 12 3 9 52 12 180 12 97 1 178 5 179
10 2 5 -45 9 -104 8 -87 0 -108 3 -108 14 0 8 7 13 16 11 10 -2 19 2 21 8 2 6
-15 10 -44 11 -131 1 -143 3 -143 19 0 8 4 13 8 10 5 -3 36 -5 68 -5z m64 -55
c0 -17 -132 -15 -138 2 -3 10 13 12 67 11 46 -1 71 -6 71 -13z m-35 -86 c0
-11 -12 -14 -50 -11 -56 3 -66 8 -45 21 23 14 95 7 95 -10z m35 8 c0 -8 3 -9
8 -3 4 6 61 10 137 10 107 -1 130 -4 130 -15 0 -9 -8 -14 -17 -12 -10 2 -18
-2 -18 -8 0 -5 9 -10 21 -10 12 0 19 -5 16 -12 -2 -7 -12 -12 -21 -12 -9 1
-16 -4 -16 -11 0 -7 6 -12 13 -11 6 0 12 -3 12 -9 0 -6 -74 -10 -202 -10 -148
0 -203 3 -203 11 0 7 6 12 13 11 43 -1 77 4 73 12 -3 5 -25 7 -47 4 -33 -5
-41 -3 -37 8 5 13 26 16 151 18 47 1 49 21 2 21 -24 0 -35 5 -35 15 0 8 5 15
10 15 6 0 10 -6 10 -12z"/>
<path d="M1493 10187 c4 -14 120 -12 125 2 3 8 -17 11 -63 10 -38 -1 -64 -6
-62 -12z"/>
<path d="M1492 10059 c2 -7 28 -11 63 -11 35 0 61 4 63 11 2 7 -18 11 -63 11
-45 0 -65 -4 -63 -11z"/>
<path d="M1393 10018 c-5 -10 -9 -10 135 -10 67 0 122 3 122 7 0 10 -251 12
-257 3z"/>
<path d="M984 9689 c-12 -20 11 -29 79 -29 71 0 109 11 93 27 -11 11 -165 13
-172 2z"/>
<path d="M1269 9689 c-27 -18 14 -29 96 -27 63 2 80 6 80 18 0 12 -16 15 -81
16 -45 1 -88 -2 -95 -7z"/>
<path d="M1565 9689 c-14 -22 13 -30 91 -27 62 2 79 6 79 18 0 12 -17 16 -82
18 -52 2 -84 -2 -88 -9z"/>
<path d="M1855 9690 c-14 -23 13 -31 91 -28 62 2 79 6 79 18 0 12 -17 16 -82
18 -52 2 -84 -1 -88 -8z"/>
<path d="M1200 7685 c0 -54 -1 -55 -25 -49 -17 4 -27 1 -31 -9 -9 -24 7 -44
18 -23 11 20 28 21 28 2 0 -8 6 -16 13 -19 9 -3 9 -7 0 -18 -8 -10 -12 -44
-10 -92 2 -64 -1 -77 -13 -75 -12 3 -15 20 -15 82 0 78 0 80 -31 97 -28 15
-34 16 -53 3 -11 -8 -18 -21 -15 -29 9 -22 35 -27 54 -10 24 22 26 14 22 -80
-3 -72 -6 -82 -25 -90 -19 -9 -22 -19 -25 -80 -5 -108 -1 -115 58 -115 l49 0
3 -137 3 -138 289 -3 c212 -2 292 1 303 10 11 9 13 37 10 139 l-4 128 51 3 51
3 3 93 c2 54 -1 92 -7 92 -5 0 -17 7 -25 16 -13 12 -16 40 -16 135 0 123 -2
129 -42 108 -20 -11 -21 -10 -14 50 l7 61 -306 0 -305 0 0 -55z m570 -154 l0
-180 -37 2 c-42 2 -55 13 -47 39 7 23 -36 97 -61 104 -11 3 -74 4 -140 2
l-120 -3 -22 -44 c-14 -27 -20 -53 -17 -68 4 -12 2 -23 -2 -24 -5 0 -24 -2
-43 -5 -22 -3 -38 1 -42 8 -5 7 -8 88 -7 181 l0 167 269 0 269 0 0 -179z m70
-21 c0 -67 -4 -110 -10 -110 -11 0 -14 202 -3 213 12 13 13 7 13 -103z m-365
-47 c-4 -10 -10 -45 -14 -78 -5 -52 -9 -60 -28 -63 -12 -2 -35 4 -52 13 -25
12 -31 22 -31 48 0 58 20 86 65 90 22 2 46 4 54 5 9 1 11 -4 6 -15z m167 -25
c10 -18 18 -43 18 -55 0 -41 -86 -84 -105 -53 -4 6 -9 36 -12 68 -3 31 -10 62
-14 68 -7 8 6 10 43 8 48 -2 54 -5 70 -36z m-121 -49 c7 -62 5 -69 -22 -69
-21 0 -23 11 -13 84 9 62 27 54 35 -15z m-335 -14 c-4 -11 2 -15 20 -15 16 0
24 -5 22 -12 -3 -7 -10 -13 -16 -12 -7 1 -30 2 -52 3 -43 1 -57 21 -15 21 18
0 23 4 19 15 -4 10 0 15 11 15 11 0 15 -5 11 -15z m704 -25 c0 -5 -18 -10 -39
-10 -22 0 -46 -3 -55 -6 -11 -4 -16 -1 -16 10 0 13 11 16 55 16 30 0 55 -4 55
-10z m-542 -68 l3 -53 -43 3 -43 3 -2 45 c-2 51 3 56 49 55 33 0 33 0 36 -53z
m392 2 l0 -54 -45 0 -45 0 0 48 c0 27 2 51 5 54 3 3 23 5 45 5 l40 0 0 -53z
m-512 -6 l-3 -43 -52 -3 -53 -3 0 45 0 46 56 0 55 0 -3 -42z m662 -3 l0 -45
-55 0 -55 0 0 45 0 45 55 0 55 0 0 -45z m-500 0 c0 -19 0 -38 1 -42 0 -4 -3
-9 -8 -10 -4 -2 -9 17 -11 42 -2 26 2 45 8 45 5 0 10 -16 10 -35z m245 -9 c0
-24 -3 -48 -7 -52 -5 -4 -8 16 -8 44 0 29 4 52 8 52 4 0 7 -20 7 -44z m-45 -6
l0 -40 -84 0 -84 0 -5 33 c-2 17 -3 35 0 40 2 4 42 7 89 7 l84 0 0 -40z m-360
-50 c0 -5 -25 -10 -55 -10 -30 0 -55 5 -55 10 0 6 25 10 55 10 30 0 55 -4 55
-10z m88 -6 c6 -2 12 -19 12 -38 0 -57 23 -66 175 -66 150 0 176 11 179 71 1
29 6 34 33 40 52 10 161 10 168 -1 6 -9 -48 -16 -100 -12 -19 2 -20 -2 -14
-81 3 -45 5 -104 5 -132 l-1 -50 -270 0 -270 0 -3 116 c-1 64 2 128 8 143 10
27 21 28 78 10z m52 -4 c0 -5 7 -10 15 -10 23 0 18 -17 -7 -24 -17 -4 -20 -8
-11 -17 19 -19 45 -2 41 27 l-3 26 100 0 100 0 -3 -25 c-4 -32 15 -44 36 -23
15 15 15 16 -1 16 -21 0 -22 7 -3 26 36 36 51 -12 17 -53 -18 -22 -27 -23
-149 -23 -91 0 -133 4 -140 13 -9 11 -16 49 -13 70 2 11 21 9 21 -3z"/>
<path d="M1256 7073 c-3 -3 -6 -13 -6 -22 0 -12 3 -12 12 -3 20 20 47 15 41
-8 -4 -14 -12 -20 -27 -18 -18 3 -21 -2 -21 -32 l0 -35 88 0 c57 0 87 3 87 11
0 7 -19 9 -55 6 -49 -4 -55 -2 -55 15 0 16 6 18 40 15 25 -3 40 0 40 7 0 6
-17 11 -39 11 -40 0 -61 13 -41 25 6 4 33 4 60 0 47 -6 50 -9 50 -36 0 -16 4
-29 10 -29 5 0 7 -7 3 -16 -4 -12 -2 -15 8 -12 17 6 25 40 21 88 l-4 37 -102
1 c-57 1 -106 -1 -110 -5z m44 -88 c10 -12 9 -16 -5 -21 -19 -8 -40 9 -31 25
10 15 21 14 36 -4z"/>
<path d="M1537 7073 c-2 -5 -1 -33 2 -63 l6 -55 97 -3 c59 -1 99 2 103 8 4 7
-2 9 -18 5 -14 -4 -28 -2 -31 4 -4 6 -2 11 3 11 6 0 11 7 11 15 0 13 4 14 20
5 16 -9 20 -8 20 5 0 8 -7 15 -15 15 -18 0 -39 36 -26 44 5 4 17 -1 25 -10 15
-14 16 -14 16 5 0 20 -5 21 -104 21 -58 0 -107 -3 -109 -7z m150 -40 c3 -9 -8
-13 -36 -13 -24 0 -41 -5 -41 -11 0 -8 14 -10 41 -6 34 4 40 3 37 -11 -3 -14
-16 -17 -64 -17 l-60 -1 4 29 c3 17 13 32 25 36 32 12 90 8 94 -6z"/>
<path d="M846 7094 c-8 -20 -8 -88 0 -108 8 -21 136 -23 152 -3 17 20 18 107
1 118 -8 5 -44 9 -80 9 -52 0 -68 -4 -73 -16z m139 -47 c0 -47 -8 -54 -65 -53
l-45 1 -3 48 -3 48 58 -3 58 -3 0 -38z"/>
<path d="M2007 7103 c-4 -3 -7 -32 -7 -64 0 -66 4 -69 90 -69 66 0 74 6 76 65
2 67 -7 75 -85 75 -37 0 -71 -3 -74 -7z m128 -63 l0 -45 -40 -1 c-66 -2 -75 3
-75 45 0 21 3 41 7 45 4 4 30 6 58 4 l50 -3 0 -45z"/>
<path d="M1102 6828 c-19 -19 -14 -46 12 -63 28 -18 58 -9 75 24 20 37 -56 70
-87 39z m57 -17 c17 -11 5 -31 -19 -31 -24 0 -36 20 -19 31 8 5 16 9 19 9 3 0
11 -4 19 -9z"/>
<path d="M1826 6821 c-20 -22 -12 -47 17 -58 29 -9 49 -5 65 15 16 21 15 27
-4 46 -21 21 -57 20 -78 -3z m62 -18 c5 -17 -26 -29 -40 -15 -6 6 -7 15 -3 22
9 14 37 9 43 -7z"/>
<path d="M628 6634 c-11 -22 -10 -28 7 -40 24 -18 45 -18 73 1 21 15 21 17 6
40 -23 35 -70 34 -86 -1z m66 -9 c7 -18 -16 -30 -40 -21 -13 5 -14 9 -4 21 16
19 36 19 44 0z"/>
<path d="M2130 6317 c0 -7 27 -36 60 -65 l60 -53 -2 -341 -3 -341 -85 -47 -85
-47 0 -67 c0 -37 4 -66 10 -66 6 0 10 22 10 49 0 26 6 55 13 64 8 9 47 34 87
56 41 23 76 45 80 51 3 5 6 164 6 352 l-1 343 -65 63 c-64 62 -85 74 -85 49z"/>
<path d="M1257 6263 c-4 -3 -7 -17 -7 -29 0 -17 7 -25 24 -30 61 -15 115 16
87 50 -14 16 -91 23 -104 9z m81 -30 c2 -9 -7 -13 -27 -13 -30 0 -46 11 -34
24 11 11 56 2 61 -11z"/>
<path d="M1646 6254 c-20 -20 -20 -24 2 -40 26 -20 86 -17 106 4 15 18 15 20
-2 35 -23 21 -86 22 -106 1z m78 -10 c24 -9 9 -24 -24 -24 -31 0 -48 15 -28
23 19 8 34 8 52 1z"/>
<path d="M1263 6134 c-16 -7 -17 -36 -1 -52 17 -17 69 -15 93 4 29 22 8 48
-41 51 -21 1 -45 0 -51 -3z m77 -24 c0 -12 -45 -24 -60 -15 -5 3 -8 11 -5 16
8 12 65 12 65 -1z"/>
<path d="M1646 6122 c-15 -18 -15 -20 3 -36 24 -22 89 -18 104 6 27 42 -71 69
-107 30z m82 -14 c-3 -7 -15 -13 -28 -13 -13 0 -25 6 -27 13 -3 8 6 12 27 12
21 0 30 -4 28 -12z"/>
<path d="M820 5861 c0 -46 2 -51 25 -57 14 -3 36 -3 50 0 23 6 25 11 23 54
l-3 47 -47 3 -48 3 0 -50z m63 9 c3 -11 0 -20 -5 -20 -6 0 -5 -6 2 -15 10 -13
9 -15 -9 -15 -16 0 -20 5 -17 23 3 12 5 28 5 35 1 19 18 14 24 -8z"/>
<path d="M824 5751 c-2 -2 -4 -26 -4 -53 l0 -48 49 0 50 0 -2 51 -2 52 -43 1
c-24 0 -46 -1 -48 -3z m56 -20 c0 -5 3 -16 6 -25 4 -11 0 -16 -13 -16 -28 0
-34 9 -20 31 12 20 27 25 27 10z"/>
<path d="M1295 5720 c-10 -16 4 -30 31 -30 17 0 24 5 24 20 0 15 -7 20 -24 20
-14 0 -28 -4 -31 -10z"/>
<path d="M1413 5708 c-5 -7 -7 -39 -5 -70 l4 -58 88 0 c49 0 95 3 104 6 20 8
23 103 4 122 -17 17 -182 16 -195 0z m177 -58 l0 -50 -80 0 -80 0 0 50 0 50
80 0 80 0 0 -50z"/>
<path d="M1300 5525 c-16 -19 -4 -35 26 -35 28 0 34 34 8 44 -21 8 -20 8 -34
-9z"/>
<path d="M1338 5409 c-15 -8 -18 -26 -18 -114 0 -94 2 -105 20 -115 25 -13
307 -12 332 1 15 8 18 25 18 115 0 103 0 105 -26 114 -34 13 -304 12 -326 -1z
m326 -114 l0 -100 -157 -3 -157 -3 0 99 c0 54 3 102 7 106 4 3 74 5 156 4
l150 -3 1 -100z"/>
<path d="M1404 5032 c-50 -24 -112 -94 -120 -137 -14 -78 71 -173 175 -196 93
-20 209 23 257 96 46 70 18 163 -66 220 -39 26 -55 30 -125 33 -62 2 -89 -2
-121 -16z m231 -33 c68 -46 93 -125 60 -188 -18 -35 -98 -87 -147 -96 -119
-22 -257 87 -233 183 10 42 50 87 97 111 59 31 170 25 223 -10z"/>
<path d="M1480 4425 c-15 -18 2 -45 30 -45 28 0 45 27 30 45 -7 8 -20 15 -30
15 -10 0 -23 -7 -30 -15z"/>
<path d="M1504 2028 c3 -13 6 -27 6 -31 0 -21 23 2 26 26 2 21 -2 27 -18 27
-16 0 -19 -5 -14 -22z"/>
<path d="M1486 1961 c-9 -15 22 -33 44 -26 31 10 25 35 -9 35 -17 0 -32 -4
-35 -9z"/>
<path d="M1947 1264 c-4 -4 -7 -56 -7 -116 l0 -108 55 0 56 0 -3 113 -3 112
-45 3 c-25 2 -49 0 -53 -4z m71 -111 c-3 -97 -3 -98 -28 -98 -14 0 -25 6 -24
13 1 6 2 50 3 97 1 84 1 85 26 85 l26 0 -3 -97z"/>
<path d="M1940 897 l0 -115 34 -4 c19 -2 44 0 56 4 19 7 21 14 18 115 l-3 108
-52 3 -53 3 0 -114z m80 -1 c0 -96 -6 -112 -38 -102 -15 5 -17 18 -15 93 1 49
2 91 2 96 1 4 12 7 26 7 25 0 25 0 25 -94z"/>
<path d="M997 1264 c-4 -4 -7 -56 -7 -116 l0 -108 55 0 56 0 -3 113 -3 112
-45 3 c-25 2 -49 0 -53 -4z m73 -114 c0 -100 0 -100 -25 -100 -25 0 -25 0 -25
100 0 100 0 100 25 100 25 0 25 0 25 -100z"/>
<path d="M527 1210 c-4 -8 -6 -168 -5 -355 l3 -340 458 -3 c295 -1 457 1 457
8 0 6 -67 11 -172 12 l-171 3 -1 105 -1 105 -52 3 -53 3 0 -110 0 -111 -225 0
-225 0 -2 348 c-2 191 -6 340 -11 332z m543 -581 l0 -100 -27 3 c-16 2 -27 6
-25 11 1 4 2 48 2 97 0 89 0 90 25 90 l25 0 0 -101z"/>
<path d="M480 850 c1 -166 3 -300 6 -298 7 8 7 588 0 595 -3 4 -6 -130 -6
-297z"/>
<path d="M990 896 c0 -64 3 -116 8 -117 50 -5 85 -2 93 7 5 7 8 59 7 115 l-3
104 -52 3 -53 3 0 -115z m78 -3 c-3 -90 -5 -98 -23 -98 -18 0 -20 8 -25 93 -3
52 -3 96 -1 98 2 2 15 4 28 4 24 0 24 -1 21 -97z"/>
<path d="M1530 1055 c0 -85 15 -85 16 0 1 36 -2 65 -7 65 -5 0 -9 -29 -9 -65z"/>
<path d="M1532 940 c1 -16 5 -30 10 -30 4 0 8 14 8 30 0 17 -4 30 -9 30 -5 0
-9 -13 -9 -30z"/>
<path d="M1532 865 c0 -19 4 -35 9 -35 5 0 9 13 9 29 0 17 -4 32 -9 35 -5 3
-9 -10 -9 -29z"/>
<path d="M1471 9492 c-5 -10 -8 -43 -5 -73 3 -30 5 -61 6 -69 1 -8 0 -97 0
-197 l-2 -182 -37 -6 c-233 -34 -393 -136 -474 -301 -32 -64 -34 -75 -33 -165
0 -89 3 -103 33 -163 63 -129 206 -239 366 -281 87 -23 281 -21 365 3 206 60
357 208 391 384 46 244 -179 482 -496 523 l-50 7 3 56 c2 32 -1 116 -6 187 -6
79 -6 135 0 142 5 6 8 42 6 80 -3 65 -4 68 -30 71 -18 2 -30 -3 -37 -16z m47
-67 c-4 -70 -28 -72 -28 -2 0 29 3 57 7 61 14 14 24 -13 21 -59z m-3 -593 c-3
-7 -9 -10 -15 -7 -12 7 -14 477 -2 489 8 9 25 -461 17 -482z m173 87 c104 -27
168 -64 245 -140 95 -95 120 -154 121 -279 0 -85 -4 -102 -30 -155 -61 -126
-212 -239 -363 -271 -119 -25 -309 -15 -388 22 -17 7 -35 14 -40 14 -17 0
-131 78 -163 112 -85 88 -120 174 -119 287 0 90 17 137 79 222 48 67 111 117
191 154 109 49 249 72 249 40 0 -8 -6 -16 -12 -16 -149 -14 -298 -82 -372
-170 -41 -49 -84 -143 -91 -203 -13 -105 48 -245 139 -318 270 -216 698 -148
842 134 37 71 45 184 18 254 -18 50 -65 127 -93 154 -66 64 -187 123 -288 141
-59 10 -73 16 -73 30 0 21 32 19 148 -12z m-227 -74 c-2 -22 -12 -52 -22 -66
-10 -15 -19 -32 -19 -38 0 -6 -24 -26 -52 -45 -123 -80 -170 -151 -170 -251 1
-111 72 -189 209 -230 67 -21 133 -19 211 7 54 17 78 32 123 77 57 57 69 85
69 160 0 80 -88 194 -187 245 -18 9 -33 21 -33 26 0 6 -11 28 -25 50 -15 23
-25 54 -25 76 l0 36 43 -7 c132 -23 240 -76 311 -155 63 -70 81 -122 81 -231
0 -81 -4 -102 -24 -141 -47 -93 -96 -137 -221 -199 -113 -56 -318 -60 -435 -8
-122 54 -196 117 -241 207 -25 50 -28 68 -28 144 0 74 4 94 27 140 55 109 170
194 306 228 101 25 107 24 102 -25z m60 -45 c10 -6 19 -17 19 -24 0 -8 6 -19
14 -25 12 -10 15 -52 7 -103 0 -5 -28 -8 -61 -8 l-60 0 0 48 c0 34 7 58 25 85
29 41 29 41 56 27z m-104 -135 c-1 -19 2 -37 5 -40 4 -4 43 -7 87 -7 63 0 81
-3 81 -14 0 -14 38 -34 66 -34 8 0 23 9 34 20 11 11 22 20 24 20 2 0 15 -18
30 -40 l26 -40 -59 0 c-72 0 -70 4 -67 -137 1 -86 5 -105 20 -116 16 -12 10
-16 -57 -35 -94 -27 -124 -27 -212 2 -60 19 -67 24 -50 33 16 10 19 24 20 119
0 60 -3 115 -8 122 -6 7 -32 12 -63 12 -30 0 -54 4 -54 8 0 18 75 95 124 128
28 19 51 34 52 34 1 0 2 -16 1 -35z m260 -25 c17 -21 16 -25 -12 -40 -20 -11
-27 -11 -40 0 -22 18 -19 28 13 33 22 3 20 4 -10 6 -35 1 -38 3 -38 32 l0 31
38 -23 c20 -13 42 -30 49 -39z m-342 -240 c0 -87 -3 -105 -16 -108 -20 -4 -67
43 -85 86 -15 36 -19 114 -7 126 4 3 30 5 57 3 l51 -3 0 -104z m446 83 c23
-61 -40 -193 -93 -193 -16 0 -18 10 -18 103 0 57 2 106 4 108 3 3 26 6 51 7
41 1 47 -1 56 -25z"/>
<path d="M1433 8480 c-41 -25 -56 -54 -49 -95 22 -115 236 -105 236 11 0 48
-15 73 -55 90 -47 19 -94 17 -132 -6z m143 -31 c53 -50 6 -124 -76 -121 -49 2
-77 18 -88 52 -29 81 96 133 164 69z"/>
<path d="M1170 9063 c-193 -71 -369 -235 -427 -397 -12 -34 -11 -42 1 -54 27
-28 61 -7 83 50 18 46 24 53 45 50 14 -1 31 5 39 14 11 14 10 18 -6 30 -19 14
-18 15 1 41 11 15 46 49 78 77 50 44 59 49 77 38 28 -18 61 1 54 31 -5 19 2
25 52 45 81 32 99 47 83 67 -12 15 -51 19 -80 8z m50 -20 c0 -5 -30 -23 -68
-41 -169 -81 -265 -168 -331 -300 -23 -45 -46 -82 -51 -82 -14 0 -13 7 7 60
53 143 216 294 382 355 42 16 61 18 61 8z"/>
<path d="M1761 9057 c-10 -13 -9 -19 8 -36 12 -12 27 -21 33 -21 7 0 32 -8 55
-17 34 -15 41 -22 37 -39 -8 -30 18 -49 44 -33 18 11 26 9 62 -16 22 -16 59
-50 82 -77 37 -44 39 -50 24 -61 -27 -20 -10 -50 24 -43 26 5 30 1 54 -54 27
-63 44 -73 80 -47 14 10 16 18 9 33 -5 10 -24 49 -43 87 -35 73 -132 181 -210
234 -122 83 -233 121 -259 90z m132 -42 c55 -25 141 -82 191 -126 65 -57 176
-235 160 -260 -11 -18 -23 -8 -34 29 -7 20 -23 51 -36 69 -13 17 -24 34 -24
38 0 7 -6 14 -67 84 -26 29 -72 68 -101 85 -29 17 -70 41 -90 53 -20 13 -54
28 -74 33 -46 13 -52 35 -8 26 17 -3 54 -17 83 -31z"/>
<path d="M935 8128 c-27 -14 -55 -49 -55 -69 0 -30 26 -69 57 -84 62 -30 128
-10 156 46 14 29 14 36 1 61 -26 50 -109 74 -159 46z m98 -20 c25 -13 46 -38
47 -55 0 -7 -10 -24 -23 -39 -32 -37 -95 -39 -131 -5 -35 33 -36 58 -2 36 17
-12 26 -13 31 -5 9 14 -3 27 -30 32 -18 3 -18 4 5 26 26 24 69 29 103 10z"/>
<path d="M950 8091 c0 -9 24 -21 41 -21 5 0 9 7 9 15 0 9 -9 15 -25 15 -14 0
-25 -4 -25 -9z"/>
<path d="M1964 8130 c-24 -9 -64 -56 -64 -74 0 -28 27 -67 57 -81 96 -46 199
34 153 119 -20 38 -96 56 -146 36z m110 -31 c65 -51 -9 -137 -93 -108 -55 19
-66 66 -25 104 33 31 82 33 118 4z"/>
<path d="M2014 8096 c-18 -14 -18 -15 -1 -22 22 -8 46 11 31 26 -7 7 -17 5
-30 -4z"/>
<path d="M2051 8056 c-9 -10 -9 -16 -1 -21 12 -7 40 11 40 26 0 14 -26 10 -39
-5z"/>
<path d="M637 7884 c-4 -4 -7 -43 -7 -86 0 -95 2 -96 135 -88 l90 5 0 85 0 85
-106 3 c-58 1 -108 -1 -112 -4z m95 -39 c-3 -19 0 -25 13 -25 13 0 16 6 13 25
-5 23 -2 25 33 25 42 0 53 -10 44 -40 -5 -15 -15 -20 -41 -20 -21 0 -33 -4
-29 -10 3 -5 22 -10 41 -10 33 0 35 -2 32 -27 -3 -24 -8 -28 -40 -31 -33 -3
-37 0 -40 23 -4 31 -23 29 -23 -2 1 -20 -4 -23 -37 -23 -36 0 -38 1 -38 33 0
32 2 33 30 29 18 -3 30 0 30 7 0 6 -13 11 -30 11 -27 0 -30 3 -30 30 0 28 2
30 39 30 35 0 38 -2 33 -25z"/>
<path d="M2338 7844 c-2 -25 -1 -47 1 -50 2 -2 24 -4 48 -4 l43 0 0 50 0 50
-44 0 -44 0 -4 -46z m62 -4 c0 -16 -3 -30 -7 -30 -33 1 -44 60 -11 60 13 0 18
-8 18 -30z"/>
<path d="M2343 7733 c-5 -2 -7 -25 -5 -51 l4 -48 45 6 46 5 1 43 c1 23 -3 43
-9 43 -24 3 -76 4 -82 2z m57 -49 c0 -14 -6 -24 -14 -24 -22 0 -28 17 -16 40
14 26 30 17 30 -16z"/>
<path d="M839 3848 c-18 -7 -19 -21 -19 -447 0 -386 2 -441 16 -455 14 -14 88
-16 669 -16 581 0 655 2 669 16 14 14 16 69 16 454 0 408 -1 438 -17 445 -23
10 -1308 12 -1334 3z m795 -47 l-36 -40 0 -243 -1 -242 29 -8 c48 -13 326 -7
354 8 14 7 45 33 70 58 l45 45 5 148 5 148 -68 78 c-37 44 -65 82 -61 86 4 3
9 0 11 -6 3 -9 28 -13 74 -13 l69 0 0 -425 0 -425 -630 0 -630 0 2 423 3 422
73 5 c41 3 75 3 77 0 2 -3 -26 -36 -61 -74 l-64 -70 0 -142 0 -142 33 -36 c17
-19 49 -49 70 -65 l38 -29 166 -1 c91 0 174 4 185 10 17 9 18 25 18 204 0 107
-4 195 -8 195 -5 0 -17 8 -28 18 -10 10 -28 24 -39 31 -19 11 -18 11 5 6 14
-4 31 -15 39 -26 21 -30 31 -23 31 22 0 32 -6 47 -29 68 l-29 27 134 1 c74 1
142 6 151 12 34 20 33 11 -3 -28z m526 -405 c0 -354 -3 -436 -14 -445 -9 -8
-177 -10 -607 -8 l-594 2 597 3 598 2 5 23 c3 12 4 212 3 444 -2 231 0 419 5
416 4 -2 7 -199 7 -437z m-1313 -213 c-1 -120 -2 -24 -2 212 0 237 1 335 2
218 2 -116 2 -310 0 -430z m517 596 c26 -30 34 -59 17 -59 -5 0 -14 7 -21 15
-10 12 -42 15 -167 15 l-155 0 -54 -46 c-30 -26 -57 -44 -60 -41 -3 3 23 37
58 76 l63 70 147 0 146 1 26 -31z m661 -44 c75 -84 73 -97 -6 -30 l-53 45
-151 0 c-120 0 -155 -3 -173 -16 -20 -14 -22 -14 -22 2 0 10 12 31 27 46 l27
28 142 0 142 0 67 -75z m-685 -35 c19 -10 20 -22 20 -180 l0 -170 -153 0 -152
0 -50 33 -50 32 -2 105 -3 105 52 40 c29 22 60 42 70 45 33 9 248 1 268 -10z
m646 -20 c57 -43 86 -78 77 -92 -3 -7 -7 -46 -7 -87 l-1 -75 -50 -38 -50 -38
-154 2 -153 3 -2 163 c-1 90 1 166 4 170 14 20 61 27 171 26 120 -2 122 -2
165 -34z m-1017 -22 c-24 -24 -45 -43 -47 -42 -9 4 14 33 45 57 52 39 53 33 2
-15z m1097 -267 c-9 -10 -16 -22 -16 -28 0 -6 -18 -26 -40 -43 l-40 -32 -133
1 c-72 0 -151 0 -174 1 -28 0 -43 5 -43 13 0 9 41 12 175 10 169 -2 177 -1
210 21 25 17 31 26 22 35 -8 8 -7 11 4 11 9 0 22 12 29 26 8 14 16 21 18 14 2
-6 -3 -19 -12 -29z m-1061 -31 c10 -11 15 -20 10 -20 -4 0 -2 -7 5 -15 18 -21
340 -22 340 -1 0 7 7 19 15 26 9 8 15 9 15 2 0 -6 -5 -14 -10 -17 -8 -5 -7
-11 1 -21 22 -26 19 -27 -188 -25 l-163 1 -40 36 c-38 35 -44 54 -16 54 7 0
21 -9 31 -20z"/>
<path d="M1050 3178 c-17 -6 -20 -17 -20 -62 0 -30 5 -58 11 -62 17 -10 122
-12 142 -2 13 7 17 21 17 63 0 29 -5 57 -11 61 -16 9 -115 11 -139 2z m120
-63 l0 -45 -54 0 -53 0 -6 37 c-4 20 -4 40 -1 45 3 4 30 8 60 8 l54 0 0 -45z"/>
<path d="M1890 3182 c-30 -2 -59 -7 -65 -13 -11 -11 -7 -100 5 -113 12 -13
111 -14 138 -3 20 10 23 16 20 65 -3 64 -11 69 -98 64z m68 -64 l-3 -43 -55 0
c-60 0 -57 -4 -51 73 1 8 19 12 57 12 l55 0 -3 -42z"/>
<path d="M550 3350 l0 -50 50 0 50 0 0 50 0 50 -50 0 -50 0 0 -50z m70 -6 c0
-17 -5 -24 -20 -24 -14 0 -20 7 -20 24 0 23 17 38 33 29 4 -2 7 -15 7 -29z"/>
<path d="M557 3244 c-4 -4 -7 -27 -7 -51 l0 -43 51 0 50 0 -3 48 -3 47 -40 3
c-23 2 -44 0 -48 -4z m61 -56 c-4 -33 -33 -35 -36 -3 -1 19 3 25 19 25 15 0
20 -5 17 -22z"/>
<path d="M482 2703 l1 -178 8 153 c4 84 10 159 13 167 5 13 134 15 1018 13
l1013 -3 5 -52 c8 -79 20 -75 20 5 l0 72 -1040 0 -1040 0 2 -177z"/>
<path d="M525 2831 c-3 -6 -6 -117 -6 -248 1 -1127 2 -1243 11 -1243 7 0 10
253 10 740 l0 740 225 0 224 0 3 -107 3 -108 50 0 50 0 0 107 0 108 423 0 423
0 -3 -105 c-3 -116 -4 -115 63 -115 48 0 52 12 47 134 l-3 86 223 0 222 0 0
-604 c0 -548 4 -652 24 -601 7 20 8 1189 0 1209 -6 15 -98 16 -994 16 -614 0
-991 -4 -995 -9z m545 -111 c0 -99 0 -100 -24 -100 -24 0 -25 2 -28 96 -2 53
-1 98 1 100 2 2 15 4 28 4 23 0 23 -2 23 -100z m950 -1 l0 -100 -26 3 c-25 3
-25 4 -27 101 l-2 97 28 0 27 0 0 -101z"/>
<path d="M420 2755 c0 -9 5 -13 10 -10 10 6 13 -100 10 -392 -1 -96 2 -143 9
-143 7 0 11 43 11 125 0 69 1 194 1 278 0 146 -1 152 -20 155 -14 2 -21 -2
-21 -13z"/>
<path d="M994 2567 c-2 -7 -3 -60 -2 -118 l3 -104 50 0 50 0 3 95 c4 134 2
140 -54 140 -28 0 -47 -5 -50 -13z m71 -107 c0 -93 -1 -95 -23 -95 -23 0 -24
2 -23 93 0 50 0 95 1 98 0 3 10 4 23 2 21 -3 22 -7 22 -98z"/>
<path d="M482 2433 l0 -88 8 80 c5 44 5 84 0 88 -4 5 -8 -31 -8 -80z"/>
<path d="M481 1872 c0 -260 3 -472 7 -472 8 0 6 930 -3 938 -2 3 -5 -207 -4
-466z"/>
<path d="M435 2190 c-11 -5 -14 -9 -7 -9 17 -1 17 -222 0 -239 -9 -9 -8 -12 6
-12 15 0 17 -5 11 -27 -9 -33 -7 -252 2 -266 3 -6 -2 -16 -12 -24 -11 -7 -13
-13 -7 -13 9 0 12 -35 12 -125 0 -77 4 -125 10 -125 7 0 10 148 10 425 0 234
-1 425 -2 424 -2 0 -12 -4 -23 -9z"/>
<path d="M1285 2105 c0 -14 6 -25 13 -25 6 0 12 11 12 25 0 14 -6 25 -12 25
-7 0 -13 -11 -13 -25z"/>
<path d="M2062 1735 c-1 -25 3 -45 8 -45 12 0 13 77 1 84 -5 3 -9 -15 -9 -39z"/>
</g>
</svg>
