<?xml version="1.0" standalone="no"?>
<!DOCTYPE svg PUBLIC "-//W3C//DTD SVG 20010904//EN"
 "http://www.w3.org/TR/2001/REC-SVG-20010904/DTD/svg10.dtd">
<svg version="1.0" xmlns="http://www.w3.org/2000/svg"
 width="300.000000pt" height="168.000000pt" viewBox="0 0 300.000000 168.000000"
 preserveAspectRatio="xMidYMid meet">
<metadata>
Created by potrace 1.10, written by Peter Selinger 2001-2011
</metadata>
<g transform="translate(0.000000,168.000000) scale(0.100000,-0.100000)"
fill="#2fd1ed" stroke="none">
<path d="M1360 1033 c-126 -5 -495 -41 -655 -64 -317 -46 -560 -91 -579 -107
-11 -10 -16 -11 -12 -4 8 13 -11 16 -38 6 -24 -9 -20 -43 7 -48 303 -64 702
-121 1087 -157 257 -24 1028 -10 1050 19 3 4 41 8 84 9 97 4 399 47 481 69 33
9 68 17 77 18 9 0 15 4 12 8 -2 4 1 10 8 15 7 4 19 16 27 26 12 15 11 21 -10
43 -47 51 -104 66 -374 103 -431 59 -778 78 -1165 64z m341 -17 c0 18 1 18 9
-1 8 -21 37 -25 73 -10 9 4 25 4 35 0 9 -3 19 -6 21 -5 2 1 8 -4 12 -12 7 -10
9 -9 9 3 0 19 47 29 79 17 39 -14 23 -28 -26 -21 -27 3 -45 3 -41 -1 3 -4 17
-9 30 -11 73 -9 101 -32 76 -63 -11 -13 -11 -14 1 -8 10 7 12 4 7 -12 -6 -18
-3 -20 46 -18 29 1 58 1 64 -1 17 -6 5 -41 -15 -46 -9 -2 -6 -3 6 -2 12 1 24
-3 26 -8 2 -6 6 -3 10 6 3 9 2 17 -3 17 -6 0 -5 10 1 24 10 21 40 31 39 13 0
-4 0 -16 0 -28 0 -11 -4 -17 -10 -14 -5 3 -10 -3 -10 -15 0 -34 25 -18 28 18
2 18 8 32 14 32 6 0 8 -15 6 -34 -2 -19 0 -32 4 -30 4 3 8 -4 8 -15 0 -15 5
-19 18 -14 9 3 0 -6 -20 -21 -45 -32 -88 -35 -88 -6 0 16 7 20 38 20 42 1 29
13 -27 25 -33 7 -33 7 -29 -23 4 -27 1 -31 -25 -36 -52 -10 -67 -7 -67 14 0
16 7 20 31 20 25 0 29 3 20 13 -6 8 -8 16 -6 19 3 3 -13 2 -37 -2 -24 -5 -45
-7 -49 -5 -15 10 -59 13 -59 4 0 -5 -3 -8 -7 -8 -5 1 -15 1 -23 0 -12 -1 -11
-4 4 -12 14 -9 21 -8 28 2 8 12 10 12 15 0 4 -10 7 -11 13 -1 9 14 40 6 40
-10 0 -10 -17 -19 -69 -35 -16 -5 -21 -4 -17 4 5 7 1 9 -8 5 -26 -10 -7 -24
29 -21 37 3 63 21 75 52 8 18 9 17 9 -6 1 -15 -5 -29 -13 -32 -7 -3 -16 -19
-19 -36 -5 -23 -12 -31 -29 -32 -13 -1 -30 -2 -38 -3 -15 -1 -30 12 -30 27 0
4 10 7 23 7 18 0 19 -2 7 -10 -13 -8 -12 -10 3 -10 9 0 17 7 17 15 0 8 -6 15
-14 15 -8 0 -21 3 -30 6 -12 5 -16 -1 -16 -24 0 -25 -3 -29 -20 -25 -11 3 -27
0 -35 -7 -12 -10 -15 -9 -15 4 0 10 9 16 23 16 22 1 22 1 -3 15 -34 20 -40 19
-40 -8 0 -20 -5 -24 -30 -24 -16 0 -30 5 -30 11 0 6 -9 17 -20 24 -17 10 -21
10 -26 -3 -3 -8 -10 -13 -14 -10 -5 3 -11 1 -15 -5 -3 -5 2 -10 11 -10 32 0 5
-13 -31 -15 -32 -2 -35 0 -35 26 0 15 8 35 17 45 16 16 16 16 -4 10 -12 -4
-24 -2 -28 4 -4 7 -11 8 -18 2 -7 -5 -21 -6 -32 -1 -11 4 -14 8 -7 8 7 1 11 5
7 10 -3 5 4 13 16 16 11 4 19 9 16 11 -2 3 -17 -1 -33 -7 -16 -6 -45 -11 -64
-11 -30 0 -32 -1 -10 -7 17 -5 21 -9 12 -15 -6 -4 -16 -4 -22 -1 -5 3 -10 -1
-10 -9 0 -20 20 -21 34 -1 10 14 16 14 44 2 l33 -14 -27 -18 c-16 -10 -34 -18
-41 -18 -7 0 -13 -4 -13 -7 0 -13 -73 -18 -150 -11 -52 4 -74 10 -72 19 1 6
-2 12 -8 12 -5 0 -10 -5 -10 -11 0 -11 -83 -6 -129 7 -17 5 -22 4 -17 -4 4 -7
3 -12 -3 -12 -6 0 -15 10 -22 22 -10 18 -9 20 5 15 9 -4 16 -2 16 3 0 6 -4 10
-9 10 -5 0 -12 11 -15 25 -4 14 -11 25 -17 25 -6 0 -6 -6 1 -19 16 -30 13 -46
-5 -31 -12 10 -15 10 -15 -4 0 -9 5 -16 12 -16 6 0 8 -3 4 -7 -4 -4 -23 -8
-42 -8 -31 0 -39 6 -35 28 1 5 -3 6 -9 2 -11 -7 -40 17 -40 34 0 17 18 13 29
-6 10 -17 10 -17 11 0 0 9 -6 17 -12 18 -10 0 -10 2 0 6 21 8 13 28 -13 28
-14 0 -25 -6 -25 -13 0 -7 6 -10 13 -7 6 4 4 0 -5 -8 -10 -8 -15 -17 -11 -20
3 -4 -2 -8 -13 -8 -10 -1 -26 -2 -34 -3 -8 0 -18 4 -22 9 -5 6 -11 6 -16 -2
-5 -8 -13 -9 -22 -3 -11 7 -12 10 -2 10 7 0 10 5 7 10 -7 11 18 14 29 3 3 -4
13 -8 22 -9 12 -2 13 1 4 11 -8 10 -7 16 7 24 10 6 13 11 7 11 -6 0 -17 -7
-24 -15 -11 -14 -14 -13 -24 1 -11 15 -14 15 -29 -1 -10 -9 -22 -13 -29 -9
-13 8 -97 19 -88 11 17 -13 90 -46 85 -37 -3 5 -2 10 3 10 5 0 12 -9 15 -21 5
-18 13 -20 64 -19 80 2 83 2 83 -13 0 -10 -16 -11 -77 -5 -43 5 -82 13 -87 18
-6 6 -22 10 -37 10 -14 0 -42 3 -60 7 l-34 7 30 6 c17 4 -19 8 -80 9 -144 4
-154 5 -149 12 2 4 -41 10 -96 14 -55 4 -103 12 -107 18 -4 7 5 8 25 4 17 -4
34 -2 37 3 3 5 -14 11 -37 13 -24 3 3 4 59 3 56 -1 99 2 97 6 -3 5 -26 9 -52
10 l-47 1 40 4 c57 6 65 20 10 18 -64 -3 -42 12 25 18 30 2 62 7 70 10 8 3 29
8 45 11 17 3 40 8 53 12 31 9 28 -4 -4 -16 -19 -8 -25 -16 -21 -30 3 -10 0
-21 -5 -22 -7 -3 -5 -15 5 -33 l16 -30 1 43 c0 38 2 42 25 42 16 0 25 -5 23
-13 -2 -7 2 -13 7 -14 12 -3 6 40 -7 48 -14 9 -12 20 4 30 24 16 30 9 25 -26
-3 -19 -1 -35 4 -35 5 0 9 -7 9 -15 0 -8 5 -15 10 -15 6 0 10 -7 10 -15 0 -8
5 -15 10 -15 15 0 12 27 -6 44 -9 9 -11 16 -4 16 6 0 9 4 6 9 -12 19 7 43 30
38 16 -3 24 0 24 9 0 9 14 13 50 11 48 -2 50 -3 50 -32 1 -28 1 -29 13 -10 6
11 12 25 12 30 0 15 55 5 76 -14 17 -16 17 -17 -11 -30 -33 -14 -37 -25 -16
-47 20 -19 29 -18 18 4 -14 26 -4 40 24 34 22 -4 24 -2 22 28 -1 17 -7 34 -12
37 -5 3 -6 1 -2 -5 3 -6 2 -13 -3 -16 -16 -10 -22 11 -7 23 10 8 16 9 21 1 10
-16 35 -12 35 5 0 9 -7 15 -16 13 -10 -2 -19 4 -21 12 -4 12 -3 12 5 2 7 -11
11 -10 16 4 5 14 9 15 15 5 10 -16 22 -16 32 1 7 11 9 11 9 -1 0 -7 6 -11 15
-7 20 7 19 -13 -3 -44 -11 -17 -26 -25 -44 -25 -27 1 -38 -9 -19 -17 5 -2 6
-18 4 -35 -3 -21 -9 -30 -17 -26 -7 4 -6 1 1 -9 7 -8 11 -17 9 -19 -2 -2 4
-12 14 -21 16 -17 16 -16 12 12 -4 28 10 42 21 20 3 -6 4 -5 3 2 -2 7 -11 12
-20 12 -10 -1 -16 6 -16 17 0 11 3 18 8 18 19 -3 33 2 27 11 -3 6 -1 10 4 10
6 0 11 8 12 18 0 9 3 12 5 6 2 -6 18 -8 34 -6 27 4 32 0 29 -24 0 -4 5 -11 13
-15 8 -5 -10 -9 -47 -10 l-60 -2 48 -6 c26 -3 48 -10 48 -16 0 -5 6 -17 13
-25 8 -8 16 -22 19 -30 3 -8 5 12 3 45 -4 82 4 95 59 95 39 0 45 -3 51 -25 8
-31 34 -33 34 -3 0 36 -32 98 -51 98 -12 0 -16 -6 -12 -20 5 -18 0 -20 -41
-20 -33 0 -48 -5 -53 -16 -5 -13 -7 -13 -14 -2 -7 10 -9 10 -9 1 0 -8 -13 -13
-30 -13 -38 0 -38 8 3 53 30 35 34 36 69 28 20 -5 38 -5 40 -1 2 4 31 9 64 12
l62 6 1 -76 c2 -80 9 -99 44 -104 17 -2 23 -11 25 -40 2 -27 7 -35 18 -31 22
8 18 60 -6 68 -17 5 -20 15 -20 63 0 60 -17 63 -22 4 -2 -32 -11 -41 -23 -22
-3 6 -1 10 4 10 6 0 11 14 11 31 0 17 -4 28 -10 24 -5 -3 -10 1 -10 9 0 22 17
28 41 15 15 -8 19 -8 15 0 -4 6 -3 11 3 11 5 0 13 -5 16 -10 4 -6 11 -8 16 -5
5 4 17 -2 27 -11 16 -17 16 -17 -5 -12 -16 4 -24 1 -28 -13 -4 -10 -11 -19
-16 -19 -5 0 -9 -9 -9 -20 0 -11 7 -20 15 -20 9 0 15 9 15 25 l0 25 113 2 c92
1 101 2 50 7 -111 11 -99 35 18 37 66 1 79 -1 80 -15 0 -10 2 -12 6 -3 2 6 14
12 26 12 12 1 33 7 47 15 l25 14 -37 1 c-35 0 -38 2 -38 28 1 26 1 26 15 8 15
-20 15 -20 16 0z m-300 -7 c35 -1 73 -6 84 -12 18 -9 19 -9 6 6 -16 20 -5 22
32 5 28 -14 35 -27 15 -29 -28 -2 -54 -7 -69 -13 -10 -4 -20 -3 -24 3 -3 6
-33 11 -66 11 -53 0 -59 2 -59 21 0 11 4 18 8 15 5 -3 37 -6 73 -7z m254 1 c3
-5 -3 -10 -15 -10 -12 0 -18 -4 -15 -10 3 -5 -1 -10 -9 -10 -8 0 -17 8 -19 18
-4 13 -5 11 -6 -5 0 -13 -7 -23 -16 -23 -16 0 -10 29 9 42 16 11 64 10 71 -2z
m343 -17 c-5 -25 -28 -28 -28 -4 0 12 6 21 16 21 9 0 14 -7 12 -17z m83 2 c0
-5 2 -18 4 -27 2 -10 0 -18 -4 -18 -4 0 -7 -10 -7 -22 1 -20 -4 -23 -37 -22
-20 0 -37 3 -37 7 0 4 0 14 0 22 0 10 10 15 34 15 42 0 58 27 19 32 -38 4 -41
25 -3 24 16 -1 30 -5 31 -11z m123 -7 c-3 -4 7 -13 21 -18 34 -13 35 -13 28 7
-5 13 -2 15 11 10 10 -4 22 -7 28 -7 6 0 8 -7 4 -15 -4 -10 1 -15 14 -15 10 0
24 -8 30 -17 11 -17 11 -17 6 -1 -3 10 0 20 6 24 7 4 6 10 -3 16 -9 5 -3 6 16
2 17 -4 37 -13 46 -21 14 -11 18 -12 22 -1 4 10 8 10 14 2 4 -7 35 -12 68 -13
33 0 71 -3 85 -5 14 -2 31 -5 38 -5 6 -1 12 -9 12 -18 0 -11 3 -14 8 -7 9 13
54 26 46 13 -3 -5 14 -9 38 -9 25 0 53 -6 63 -14 10 -7 26 -11 36 -9 9 3 20 0
23 -5 4 -7 -33 -10 -107 -10 -63 1 -119 -2 -126 -6 -6 -4 -8 -18 -5 -31 6 -24
-10 -43 -21 -25 -5 8 -11 8 -20 0 -8 -7 -19 -9 -25 -5 -5 3 -10 2 -10 -3 0 -5
20 -9 45 -10 45 0 51 5 46 45 -1 7 23 13 71 15 100 4 178 -1 178 -13 0 -5 -6
-9 -14 -9 -7 0 -27 -7 -42 -15 l-29 -15 25 -1 c51 -1 -98 -36 -162 -38 -36 -1
-82 -8 -102 -16 -27 -11 -54 -14 -101 -9 -55 6 -66 4 -71 -10 -3 -9 -10 -16
-16 -16 -5 0 -6 6 -3 13 4 6 0 4 -8 -6 -14 -16 -15 -16 -20 5 -6 22 -7 22 -22
3 -14 -18 -15 -19 -8 -1 4 13 2 17 -8 14 -8 -3 -13 -13 -11 -23 3 -13 -1 -16
-12 -12 -9 4 -16 2 -16 -3 0 -6 -5 -10 -11 -10 -6 0 -9 9 -6 20 4 16 0 20 -19
20 -13 0 -24 -5 -24 -11 0 -6 7 -9 15 -5 8 3 15 1 15 -4 0 -5 -17 -14 -37 -19
-50 -14 -53 -14 -53 7 0 13 -2 14 -9 4 -7 -11 -9 -11 -14 2 -5 13 1 16 28 16
19 0 35 4 35 10 0 16 63 29 80 16 13 -9 13 -9 2 5 -10 13 -9 19 3 29 8 7 15 9
15 6 0 -4 6 -4 12 1 7 4 26 7 43 6 l30 -2 -30 8 c-16 4 -34 5 -39 3 -5 -3 -26
-5 -47 -6 -38 -1 -56 14 -50 39 4 12 9 38 10 45 1 4 17 4 36 2 35 -4 49 11 20
22 -8 3 -15 12 -15 19 0 8 -21 22 -47 32 -27 10 -57 24 -68 32 -18 12 -16 13
22 11 23 -1 40 -5 37 -10z m-29 -39 c-4 -6 0 -9 11 -7 14 2 18 -3 17 -19 -2
-17 1 -21 15 -17 16 5 16 5 -1 -6 -23 -15 -42 -3 -26 16 9 10 9 14 0 14 -6 0
-14 -6 -17 -13 -8 -21 -64 -9 -64 14 0 13 9 19 33 22 17 2 33 5 35 5 2 1 0 -3
-3 -9z m-625 -249 c-5 -19 -5 -28 1 -25 5 4 9 2 9 -4 0 -8 -60 -9 -88 -2 -1 1
12 14 30 31 44 39 59 39 48 0z m556 13 c-3 -6 0 -14 7 -16 7 -2 9 -8 5 -12 -4
-4 -15 -2 -25 6 -11 9 -14 10 -9 2 5 -10 -3 -13 -31 -13 -21 0 -48 -3 -60 -6
-19 -5 -23 -2 -23 15 0 11 6 21 13 21 9 0 9 2 0 8 -7 4 19 7 58 7 49 0 68 -3
65 -12z"/>
<path d="M1748 959 c-18 -11 5 -15 52 -9 l45 6 -43 5 c-24 2 -48 2 -54 -2z"/>
<path d="M1892 933 c-8 -21 -11 -23 -11 -9 -1 11 -4 17 -7 13 -13 -13 8 -47
29 -47 12 0 29 -4 37 -9 21 -14 33 -2 15 15 -11 11 -12 20 -5 33 11 22 4 31
-26 31 -15 0 -25 -9 -32 -27z"/>
<path d="M1706 925 c-3 -8 -15 -15 -26 -15 -18 0 -20 -4 -14 -22 6 -22 6 -22
-12 -7 -13 12 -41 17 -91 18 l-73 2 0 -56 c0 -55 16 -76 27 -35 5 17 14 20 60
20 33 0 52 -4 48 -10 -3 -5 -1 -10 4 -10 6 0 11 14 11 30 0 17 -5 30 -11 30
-5 0 -7 -4 -4 -10 4 -6 -13 -10 -44 -10 -27 0 -58 -3 -68 -6 -13 -5 -15 -4 -8
4 6 6 33 13 60 15 l50 3 -58 2 c-37 1 -56 6 -52 12 10 17 122 6 143 -13 23
-21 32 -21 32 -3 0 19 52 30 106 21 39 -5 44 -9 44 -31 0 -23 1 -24 16 -10 8
9 20 16 25 16 6 0 7 5 3 11 -5 8 -8 8 -14 0 -5 -9 -10 -8 -20 4 -7 8 -21 15
-32 15 -10 0 -16 5 -13 10 3 6 -2 10 -12 10 -11 0 -28 7 -39 15 -24 18 -31 18
-38 0z"/>
<path d="M695 911 c-18 -11 -33 -14 -36 -8 -8 11 -29 1 -29 -15 0 -7 15 -9 40
-5 22 3 38 2 36 -2 -3 -4 -1 -13 4 -21 7 -12 12 -11 31 5 l22 20 -7 -25 c-6
-19 -5 -21 3 -10 16 22 13 30 -14 40 -16 6 -23 14 -19 25 7 18 7 18 -31 -4z"/>
<path d="M792 869 c-7 -12 -12 -23 -10 -25 6 -6 48 26 48 37 0 17 -25 9 -38
-12z"/>
<path d="M393 864 c9 -3 17 -10 17 -15 0 -6 -6 -7 -12 -3 -10 6 -10 4 0 -8 11
-13 9 -16 -13 -20 -13 -3 -27 -2 -31 1 -9 9 -84 9 -84 -1 0 -9 11 -10 95 -10
33 0 63 -4 66 -10 7 -12 49 -1 49 12 0 5 -12 8 -27 7 -19 -1 -29 3 -31 14 -2
12 4 16 23 14 14 -2 25 1 25 6 0 5 -3 9 -7 9 -5 1 -26 3 -48 5 -22 2 -32 2
-22 -1z"/>
<path d="M1735 860 c-3 -5 -17 -10 -30 -10 -13 0 -27 -5 -31 -11 -4 -8 -9 -7
-15 2 -7 11 -9 10 -9 -5 0 -14 5 -17 23 -11 12 4 40 10 62 15 22 4 32 8 22 9
-10 0 -15 6 -12 11 3 6 4 10 1 10 -3 0 -8 -4 -11 -10z"/>
<path d="M1787 858 c-2 -7 2 -21 11 -31 20 -22 9 -33 -12 -12 -9 9 -16 11 -16
5 0 -6 16 -18 35 -26 44 -18 54 -18 29 2 -10 8 -13 13 -6 9 6 -3 12 -1 12 4 0
6 -4 11 -10 11 -5 0 -14 10 -21 21 -8 15 -8 19 0 15 6 -4 11 -2 11 3 0 15 -27
14 -33 -1z"/>
<path d="M1903 844 c-21 -21 -21 -23 -3 -21 10 1 16 6 13 12 -4 5 3 1 15 -9
12 -11 22 -14 22 -8 0 6 7 18 17 27 15 16 15 17 -3 14 -10 -2 -23 -1 -29 2 -5
4 -20 -4 -32 -17z"/>
<path d="M1217 809 c-7 -26 0 -46 19 -53 10 -4 14 2 14 18 0 14 3 31 6 40 4
11 0 16 -14 16 -12 0 -22 -9 -25 -21z"/>
<path d="M1668 807 c-26 -10 -33 -23 -29 -54 1 -7 -6 -13 -16 -14 -16 0 -16
-1 2 -8 22 -9 36 4 28 26 -4 9 4 13 26 13 24 0 31 -4 31 -19 0 -14 -8 -21 -27
-24 -16 -2 13 -4 62 -3 86 1 90 2 91 24 1 12 -4 22 -11 22 -7 0 -12 -8 -11
-17 1 -12 -7 -19 -25 -21 -21 -2 -27 1 -25 15 0 10 10 21 21 25 14 4 10 6 -16
7 -20 1 -51 4 -68 7 -29 6 -30 8 -14 20 21 16 18 16 -19 1z"/>
<path d="M2533 892 l-53 -3 0 -43 c0 -31 5 -46 16 -50 18 -7 34 0 34 16 0 7
-5 7 -14 -1 -11 -9 -15 -7 -19 9 -3 11 -3 29 0 40 5 18 13 20 70 19 35 -1 66
1 69 3 8 8 -46 13 -103 10z"/>
<path d="M2750 805 c0 -10 10 -15 33 -15 30 1 31 1 13 15 -25 19 -46 19 -46 0z"/>
</g>
</svg>
