<?xml version="1.0" standalone="no"?>
<!DOCTYPE svg PUBLIC "-//W3C//DTD SVG 20010904//EN"
 "http://www.w3.org/TR/2001/REC-SVG-20010904/DTD/svg10.dtd">
<svg version="1.0" xmlns="http://www.w3.org/2000/svg"
 width="60.000000pt" height="300.000000pt" viewBox="0 0 60.000000 300.000000"
 preserveAspectRatio="xMidYMid meet">
<metadata>
Created by potrace 1.10, written by Peter Selinger 2001-2011
</metadata>
<g transform="translate(0.000000,300.000000) scale(0.100000,-0.100000)"
fill="#2fd1ed" stroke="none">
<path d="M227 2933 c-4 -4 -4 -28 -1 -55 4 -31 3 -48 -4 -48 -11 0 -13 -18
-14 -142 0 -66 -3 -78 -16 -78 -11 0 -13 -3 -6 -8 7 -4 10 -35 9 -82 -2 -41
-1 -69 2 -62 3 6 8 10 13 7 4 -3 10 4 13 15 3 12 -1 24 -11 30 -10 5 -12 10
-4 10 6 0 12 7 12 15 0 8 9 20 20 27 28 18 25 28 -7 29 -16 1 -21 3 -12 6 12
3 16 19 18 66 1 34 5 94 9 132 l6 70 6 -70 6 -70 2 78 c1 54 -1 76 -9 72 -6
-4 -5 2 2 14 10 15 20 19 39 14 37 -9 40 -12 40 -38 0 -13 5 -27 11 -31 6 -3
8 -17 5 -30 -4 -13 -3 -24 2 -24 14 0 13 -73 -1 -82 -6 -4 -7 -8 -2 -8 6 0 10
-12 9 -27 0 -16 6 -39 14 -51 10 -15 15 -42 13 -72 -1 -28 3 -53 11 -61 15
-16 36 -58 40 -79 2 -8 6 -17 9 -20 11 -10 20 -62 9 -55 -5 3 -10 0 -10 -9 0
-8 6 -17 13 -19 7 -4 3 -8 -10 -12 -13 -4 -20 -11 -17 -16 3 -5 10 -7 15 -4 5
4 9 -14 9 -39 0 -24 2 -51 5 -58 4 -9 -4 -19 -17 -26 l-23 -11 23 0 c12 -1 22
-6 22 -12 0 -5 -4 -7 -10 -4 -5 3 -10 2 -10 -4 0 -5 5 -13 10 -16 7 -4 7 -13
0 -26 -7 -13 -7 -19 0 -19 5 0 10 -4 10 -10 0 -5 -7 -7 -15 -4 -18 7 -20 -7
-3 -24 9 -9 9 -12 -3 -12 -11 0 -11 -2 -1 -8 14 -9 23 -161 10 -163 -4 -1 -13
-2 -20 -3 -6 0 -13 -6 -15 -13 -3 -7 3 -9 16 -6 16 4 21 0 22 -13 0 -11 1 -47
2 -82 1 -34 -1 -62 -4 -62 -4 0 -6 -18 -6 -40 0 -22 4 -40 9 -40 5 0 4 -9 -2
-19 -7 -14 -7 -42 0 -88 9 -62 8 -70 -12 -97 -11 -16 -16 -26 -9 -22 6 4 11 3
11 -3 0 -5 -6 -11 -12 -14 -8 -3 -3 -9 12 -15 18 -8 20 -11 8 -11 -22 -1 -24
-19 -3 -27 19 -8 19 -21 -1 -41 -13 -13 -13 -17 -2 -24 11 -7 11 -9 0 -9 -8 0
-10 -5 -5 -12 12 -21 14 -48 3 -68 -7 -13 -7 -21 0 -25 6 -4 7 -11 4 -17 -4
-6 0 -15 7 -20 11 -7 11 -11 1 -15 -16 -6 -16 -33 1 -33 8 0 7 -4 -3 -11 -12
-8 -12 -12 -2 -16 10 -4 9 -8 -5 -19 -17 -13 -17 -13 0 -14 20 0 21 -4 4 -31
-10 -17 -9 -22 7 -35 19 -13 17 -14 -17 -14 -21 0 -37 -5 -37 -11 0 -7 10 -9
25 -7 18 4 26 0 30 -13 11 -34 -3 -57 -30 -51 -15 2 -25 0 -25 -7 0 -6 11 -11
24 -11 28 0 43 -16 24 -23 -7 -3 -5 -6 6 -6 20 -1 13 -16 -7 -16 -7 0 -13 -11
-15 -25 -4 -25 -3 -25 13 -5 16 20 16 20 10 -2 -5 -16 -2 -23 8 -23 23 0 35
62 23 122 -4 21 -2 26 9 21 10 -3 15 1 15 12 0 10 -5 15 -13 12 -12 -4 -14
127 -14 780 l-1 785 -39 57 c-39 55 -65 120 -43 106 5 -3 10 -14 10 -23 0 -14
2 -15 9 -3 7 10 3 23 -10 39 -20 26 -26 47 -9 37 6 -3 10 -1 10 4 0 6 -5 11
-11 11 -7 0 -10 17 -7 45 2 25 0 45 -3 45 -7 0 -21 136 -19 188 l1 32 -74 0
c-41 0 -77 -3 -80 -7z"/>
<path d="M158 2469 c-15 -24 -15 -34 -1 -125 8 -54 17 -106 20 -114 3 -8 6
-28 8 -45 1 -16 11 -83 21 -149 12 -83 20 -113 26 -100 6 13 7 11 3 -9 -3 -16
0 -73 7 -128 10 -84 15 -99 30 -99 10 0 18 -7 18 -16 0 -10 -6 -14 -15 -10
-12 4 -14 -2 -12 -28 2 -29 5 -33 20 -25 9 5 17 12 17 15 0 3 -5 2 -11 -1 -6
-5 -6 0 1 12 10 15 7 52 -13 178 -14 88 -31 197 -38 243 -8 55 -17 82 -26 82
-7 0 -13 5 -13 10 0 6 5 10 11 10 16 0 4 80 -13 91 -9 6 -9 9 -1 9 8 0 10 11
7 33 -3 17 -11 68 -17 112 -12 79 -12 79 -29 54z"/>
<path d="M340 2438 c0 -32 3 -39 10 -28 13 20 13 70 0 70 -5 0 -10 -19 -10
-42z"/>
<path d="M111 2416 c-10 -12 -9 -38 4 -128 9 -62 19 -120 22 -128 4 -8 7 -28
7 -45 1 -16 12 -103 25 -191 22 -149 25 -161 43 -156 14 3 18 11 14 26 -3 11
-6 32 -6 45 0 21 -2 22 -17 10 -16 -13 -17 -12 -4 4 12 16 11 41 -10 192 -13
95 -27 171 -32 168 -4 -2 -5 7 -1 21 3 14 2 26 -2 26 -5 0 -10 35 -12 78 -4
82 -11 102 -31 78z"/>
<path d="M242 2422 c-7 -5 -14 -19 -17 -31 -2 -12 -7 -32 -11 -44 -6 -21 -5
-21 18 3 13 14 24 37 24 53 0 15 0 27 0 27 -1 0 -7 -4 -14 -8z"/>
<path d="M64 2367 c-2 -7 0 -60 5 -118 6 -57 12 -238 14 -402 2 -163 6 -300
10 -303 3 -3 16 0 29 7 12 7 32 13 43 13 15 1 20 8 22 34 1 17 -1 32 -4 32
-12 0 -34 -31 -28 -40 3 -5 -2 -10 -12 -10 -13 0 -19 9 -20 30 -2 27 0 30 21
24 13 -3 26 -1 30 4 3 5 -12 12 -34 16 -22 3 -40 10 -40 15 0 13 53 21 66 10
12 -10 24 -2 24 17 0 8 -6 11 -15 8 -10 -4 -14 -1 -11 7 11 30 14 79 5 73 -5
-3 -9 7 -10 23 -1 48 -5 73 -13 80 -5 5 -7 -19 -5 -52 4 -56 2 -60 -18 -63
-16 -2 -23 2 -23 12 0 9 7 16 15 16 19 0 20 49 1 75 -12 16 -11 21 1 34 13 12
16 12 24 0 5 -9 7 4 5 35 -2 31 -9 53 -19 61 -18 13 -24 30 -6 20 7 -5 8 5 4
29 -4 20 -8 60 -9 90 0 30 -4 52 -9 49 -6 -4 -8 19 -8 120 0 15 -3 25 -8 23
-4 -3 -6 6 -3 19 5 26 -15 36 -24 12z m80 -613 c22 -9 20 -34 -3 -34 -10 0
-21 9 -24 20 -5 21 1 24 27 14z"/>
<path d="M380 2309 c0 -5 -5 -7 -12 -3 -6 4 -8 3 -4 -4 3 -5 0 -13 -6 -15 -7
-3 2 -6 20 -6 17 -1 32 3 32 9 0 5 -7 7 -15 4 -11 -5 -13 -2 -9 10 3 9 3 16 0
16 -3 0 -6 -5 -6 -11z"/>
<path d="M363 2243 c4 -33 23 -41 30 -13 3 11 1 18 -4 14 -5 -3 -9 2 -9 10 0
9 -5 16 -10 16 -6 0 -9 -12 -7 -27z"/>
<path d="M247 2244 c-4 -4 -7 -17 -7 -28 0 -16 3 -18 9 -7 6 10 10 10 16 1 4
-6 2 -17 -4 -23 -13 -13 -15 -47 -3 -47 4 0 6 -17 4 -37 -2 -21 1 -56 6 -78
l10 -40 1 39 c1 28 5 37 15 33 22 -9 27 5 8 20 -9 8 -11 12 -5 8 9 -4 11 -1 7
9 -3 9 -13 16 -21 16 -8 0 -11 5 -8 10 4 6 1 18 -6 26 -10 12 -9 13 3 9 11 -4
13 2 10 31 -3 28 -1 35 8 29 9 -5 11 -4 6 4 -4 6 -11 9 -16 6 -5 -3 -13 2 -17
10 -5 9 -12 12 -16 9z"/>
<path d="M310 1985 c0 -9 -6 -12 -15 -9 -11 5 -15 -1 -15 -25 0 -17 3 -31 8
-31 4 0 6 -21 6 -47 -1 -46 9 -73 27 -73 5 0 4 11 -1 24 -5 15 -5 27 2 34 8 8
8 15 -2 26 -7 9 -10 23 -6 31 3 9 2 13 -4 10 -6 -3 -10 -2 -10 4 0 5 4 12 9
15 12 8 20 56 10 56 -5 0 -9 -7 -9 -15z"/>
<path d="M312 1733 c0 -58 1 -61 19 -50 10 6 19 17 19 24 0 7 6 13 13 13 8 0
7 3 -3 9 -8 6 -17 8 -22 5 -4 -3 -11 10 -16 28 -8 29 -9 26 -10 -29z"/>
<path d="M219 1755 c-1 -5 -1 -13 0 -17 0 -5 -4 -8 -9 -8 -12 0 -2 -119 11
-136 5 -6 5 -14 1 -19 -4 -4 0 -6 8 -3 8 2 17 15 18 27 2 15 0 21 -7 17 -12
-8 -15 7 -4 18 11 10 12 37 2 30 -5 -3 -7 10 -3 30 3 20 1 44 -5 53 -6 10 -11
14 -12 8z"/>
<path d="M332 1673 c1 -5 -2 -18 -6 -31 -5 -14 -3 -28 4 -37 6 -8 11 -27 10
-42 -3 -46 -1 -52 21 -48 16 3 19 0 15 -18 -3 -13 0 -9 8 8 10 22 11 32 3 37
-7 4 -15 0 -18 -9 -8 -23 -21 0 -18 30 2 12 0 28 -4 34 -10 15 9 53 26 53 7 0
3 7 -7 15 -21 16 -37 20 -34 8z"/>
<path d="M190 1558 c-9 -11 -32 -22 -57 -25 -27 -4 -43 -11 -43 -19 0 -11 10
-13 43 -8 81 13 93 21 79 55 -6 15 -9 15 -22 -3z"/>
<path d="M190 1504 c-19 -7 -50 -13 -67 -13 -23 -1 -33 -6 -33 -17 0 -13 7
-15 38 -9 33 6 102 40 102 51 0 2 -1 3 -2 3 -2 -1 -19 -7 -38 -15z"/>
<path d="M202 1463 c-13 -9 -41 -15 -67 -15 -39 1 -45 -1 -45 -19 0 -21 0 -21
48 -2 6 3 12 1 12 -3 0 -5 12 -9 28 -10 15 0 47 -3 72 -6 25 -3 37 -3 28 -1
-21 5 -23 19 -5 27 6 3 0 3 -15 0 -39 -8 -53 4 -32 27 21 23 8 24 -24 2z"/>
<path d="M108 1403 c-17 -4 -18 -25 -18 -256 -1 -139 -3 -343 -6 -455 -4 -149
-2 -207 6 -217 8 -9 11 -41 9 -86 -3 -55 -1 -73 10 -77 9 -3 11 0 6 8 -6 9 1
10 26 5 19 -4 37 -10 41 -14 4 -3 9 -38 13 -78 6 -71 5 -73 -20 -79 -28 -7
-36 -38 -7 -32 9 2 16 10 15 16 -4 18 8 15 33 -9 20 -19 27 -20 55 -10 18 6
47 11 66 11 29 0 33 3 29 23 -13 60 -27 146 -46 292 -28 206 -28 205 -45 205
-21 0 -19 -24 15 -259 30 -201 35 -260 24 -249 -6 7 -59 359 -70 465 -3 40 -9
71 -13 69 -3 -2 -6 24 -7 58 -1 33 -4 100 -8 149 -6 71 -11 87 -24 87 -13 0
-14 2 -4 9 10 6 12 24 6 72 -3 35 -9 68 -12 74 -4 5 -7 27 -8 47 -1 20 -6 43
-10 50 -5 7 -7 25 -5 40 1 15 -5 37 -13 51 -9 13 -13 27 -9 32 5 4 2 5 -5 1
-20 -12 -26 23 -7 44 18 20 16 22 -17 13z m15 -120 c-3 -7 -2 -21 2 -30 4 -10
8 -25 9 -33 7 -75 20 -150 26 -150 5 0 6 -9 3 -20 -3 -10 1 -59 8 -107 10 -68
14 -81 19 -58 3 17 6 -8 6 -55 0 -118 12 -283 22 -289 5 -4 8 -17 8 -31 0 -78
5 -114 14 -100 7 11 8 7 4 -15 -3 -16 2 -73 10 -125 9 -52 16 -106 16 -120 l0
-24 -16 22 c-9 14 -14 36 -12 52 3 17 0 26 -5 23 -6 -3 -8 9 -5 31 2 23 0 35
-6 33 -7 -3 -11 22 -11 69 0 45 -4 75 -11 78 -7 2 -9 16 -7 30 3 14 1 26 -3
26 -5 0 -9 38 -9 84 0 46 -3 82 -7 79 -5 -2 -8 4 -8 13 0 32 -13 4 -17 -37 -3
-27 -1 -39 6 -34 6 3 11 0 11 -8 0 -15 -20 -27 -44 -27 -7 0 -13 7 -13 15 0 8
3 15 7 15 4 0 7 7 7 15 0 8 -4 12 -8 10 -4 -3 -9 2 -13 10 -3 8 -1 17 5 20 5
4 7 11 4 16 -4 5 2 9 12 9 15 0 16 2 3 10 -15 9 -12 11 38 26 6 2 11 14 11 26
-2 22 -2 22 -6 2 -4 -19 -7 -20 -29 -10 -13 6 -22 17 -19 24 2 6 0 12 -4 12
-12 0 -9 19 7 45 10 16 13 17 21 6 5 -8 7 -20 4 -28 -3 -7 0 -13 6 -13 6 0 11
14 11 30 0 23 -4 30 -20 30 -11 0 -20 5 -20 10 0 6 6 10 13 10 9 0 13 15 13
48 -1 46 -13 75 -28 65 -5 -2 -8 1 -8 6 0 6 4 11 9 11 14 0 22 43 9 51 -6 4
-8 16 -5 27 2 12 1 22 -4 24 -4 2 -11 39 -14 83 -4 44 -8 96 -9 117 -3 28 -1
34 9 25 7 -7 10 -18 8 -24z m12 -379 c0 -26 -4 -34 -17 -34 -22 0 -23 7 -4 26
8 8 12 23 9 36 -4 13 -2 19 3 15 5 -5 9 -24 9 -43z m21 -369 c11 -11 12 -15 3
-15 -7 0 -9 -3 -6 -7 4 -3 2 -12 -4 -20 -9 -10 -8 -13 1 -13 7 0 10 -7 6 -15
-7 -20 11 -19 22 1 6 11 9 -8 9 -59 1 -68 -1 -74 -18 -70 -10 3 -19 12 -19 19
0 8 -4 14 -8 14 -5 0 -9 6 -9 13 0 6 -3 22 -7 35 -5 14 -3 22 5 22 8 0 9 3 0
13 -6 8 -8 16 -6 19 16 16 12 48 -6 53 -10 4 -19 11 -19 16 0 15 40 10 56 -6z"/>
<path d="M213 1375 c3 -11 9 -31 13 -45 4 -14 9 -38 11 -55 8 -69 10 -81 11
-94 1 -7 8 -11 15 -8 8 3 14 -4 15 -16 1 -18 -1 -19 -9 -7 -8 11 -9 -2 -5 -45
10 -102 30 -195 41 -192 15 5 18 46 5 63 -9 10 -9 14 -1 14 6 0 11 4 11 10 0
5 -6 9 -12 7 -7 -1 -12 6 -10 16 2 9 -2 17 -8 17 -5 0 -10 5 -10 11 0 5 5 7
10 4 6 -3 10 -2 10 4 0 5 -4 12 -9 15 -4 3 -5 24 -1 46 5 25 3 48 -5 63 -10
19 -10 30 1 53 7 16 13 25 13 19 1 -5 8 1 17 13 24 34 9 39 -21 6 -33 -35 -48
-22 -44 39 2 25 2 44 0 41 -2 -2 -13 6 -24 19 -18 20 -19 21 -14 2z"/>
<path d="M164 1368 c-4 -6 0 -16 9 -22 10 -8 12 -17 7 -27 -6 -11 -3 -15 11
-16 19 -2 27 21 10 31 -5 3 -7 15 -4 26 6 22 -20 29 -33 8z"/>
<path d="M330 1370 c0 -5 -8 -10 -17 -11 -11 0 -13 -3 -5 -6 6 -2 10 -9 7 -13
-3 -5 -1 -12 5 -15 6 -4 10 -3 9 2 -4 21 2 33 17 33 8 0 12 5 9 10 -3 6 -10
10 -16 10 -5 0 -9 -4 -9 -10z"/>
<path d="M184 1238 c4 -24 9 -67 13 -95 3 -29 10 -53 16 -53 5 0 7 -12 4 -26
-2 -15 1 -72 8 -128 7 -55 16 -140 20 -188 6 -77 10 -88 26 -88 14 0 19 7 19
25 0 19 -4 23 -18 18 -15 -6 -15 -5 -4 10 10 11 12 32 8 69 -3 29 -5 68 -5 85
0 27 -4 32 -18 27 -16 -5 -16 -4 -2 8 9 7 15 18 13 23 -1 6 -12 88 -25 183
-20 156 -24 172 -41 172 -17 0 -19 -5 -14 -42z"/>
<path d="M297 884 c-3 -4 2 -18 11 -33 16 -25 16 -25 -1 -12 -16 13 -17 12 -9
-10 12 -32 29 -35 34 -6 8 41 -15 81 -35 61z"/>
<path d="M314 753 c3 -19 1 -33 -4 -33 -6 0 -9 -12 -9 -27 2 -26 2 -27 6 -4 4
19 7 21 14 10 6 -10 9 -3 9 21 0 19 -5 42 -11 50 -8 11 -9 7 -5 -17z"/>
<path d="M331 671 c-14 -19 -18 -32 -11 -36 6 -4 8 -15 5 -26 -4 -10 -2 -19 3
-19 5 0 9 -34 8 -75 -1 -41 2 -76 7 -78 9 -3 21 -92 21 -159 0 -20 3 -35 8
-32 4 2 8 -21 10 -53 3 -54 5 -58 28 -60 14 -1 32 -3 40 -5 8 -2 15 2 15 7 0
6 -5 9 -12 9 -6 -1 -9 6 -6 15 4 14 3 14 -6 1 -9 -12 -12 -13 -20 -1 -7 11 -9
11 -14 0 -4 -11 -6 -11 -6 -1 -1 7 10 24 23 37 15 15 26 41 30 72 14 95 18
113 30 113 9 0 12 21 10 77 -2 53 1 80 9 85 9 6 9 8 -1 8 -10 0 -13 14 -10 53
3 46 1 52 -16 52 -18 0 -20 -6 -17 -57 l2 -58 -38 4 c-21 2 -37 8 -36 14 2 6
-4 9 -12 6 -17 -7 -20 -34 -4 -34 8 0 7 -6 -2 -17 -10 -11 -10 -14 -1 -9 8 5
12 1 13 -11 1 -12 3 -10 8 7 5 19 14 26 40 28 27 3 32 0 29 -15 -2 -10 3 -24
12 -31 8 -8 10 -11 4 -8 -14 7 -27 -35 -14 -48 13 -13 -11 -45 -29 -38 -14 5
-14 4 -1 -12 13 -16 12 -20 -3 -31 -18 -13 -24 -41 -7 -30 6 3 10 2 10 -4 0
-5 -6 -12 -12 -14 -10 -4 -9 -6 1 -6 11 -1 11 -4 1 -16 -10 -12 -10 -15 1 -16
8 0 5 -4 -6 -8 -22 -9 -41 11 -29 30 12 20 13 89 0 102 -13 13 -20 60 -8 53 4
-3 8 4 8 15 0 11 -5 17 -11 15 -5 -2 -9 -9 -8 -15 2 -6 -2 -11 -7 -11 -9 0
-16 60 -12 100 4 34 3 67 -2 102 -4 29 -1 37 12 40 12 2 13 6 5 11 -7 4 -20
-4 -32 -22z"/>
</g>
</svg>
