<?xml version="1.0" standalone="no"?>
<!DOCTYPE svg PUBLIC "-//W3C//DTD SVG 20010904//EN"
 "http://www.w3.org/TR/2001/REC-SVG-20010904/DTD/svg10.dtd">
<svg version="1.0" xmlns="http://www.w3.org/2000/svg"
 width="300.000000pt" height="900.000000pt" viewBox="0 0 300.000000 900.000000"
 preserveAspectRatio="xMidYMid meet">
<metadata>
Created by potrace 1.10, written by Peter Selinger 2001-2011
</metadata>
<g transform="translate(0.000000,900.000000) scale(0.100000,-0.100000)"
fill="#ffffff" stroke="none">
<path d="M1415 8729 c-49 -14 -193 -162 -266 -274 -176 -268 -357 -672 -457
-1020 -54 -184 -112 -435 -136 -580 -39 -231 -46 -275 -57 -367 l-11 -98 -29
0 -30 0 1 -357 c1 -197 -1 -405 -5 -463 -17 -315 -52 -1203 -65 -1630 -5 -190
-12 -365 -15 -390 -19 -188 -30 -3240 -11 -3240 5 0 10 78 12 172 2 106 7 174
14 176 16 6 12 52 -5 52 -8 0 -15 9 -15 20 0 11 7 20 15 20 10 0 15 10 15 30
0 20 -5 30 -15 30 -19 0 -20 34 -1 49 15 12 16 28 3 48 -4 7 -9 195 -10 418
-2 318 1 405 11 405 7 0 12 13 12 31 0 18 -4 28 -10 24 -19 -12 -23 28 -5 58
15 25 16 32 4 41 -17 13 -17 148 0 154 17 6 14 52 -3 52 -17 0 -18 41 -2 52
14 9 17 41 4 49 -16 10 -16 149 0 149 7 0 12 13 12 30 0 19 -5 29 -12 27 -7
-1 -12 3 -11 10 12 60 14 93 7 93 -9 0 -9 154 2 497 5 166 9 201 20 196 9 -3
14 2 14 16 0 12 -6 21 -15 21 -8 0 -15 7 -15 15 0 8 7 15 15 15 8 0 15 9 15
21 0 11 -4 18 -9 14 -5 -3 -12 -1 -15 4 -5 8 1 206 19 676 3 77 10 273 15 435
12 356 20 480 31 480 12 0 11 44 -1 56 -16 16 10 454 27 454 19 0 16 31 -4 46
-17 12 -17 14 2 28 17 13 18 18 8 35 -13 21 -19 221 -7 221 3 0 45 -35 94 -77
99 -86 103 -99 51 -151 -27 -27 -28 -30 -40 -227 -6 -110 -16 -201 -22 -203
-11 -4 -12 -32 -1 -32 4 0 12 4 18 10 5 5 19 7 31 4 17 -5 21 -12 17 -37 -2
-18 -6 -76 -10 -129 -6 -95 -7 -98 -30 -98 -22 0 -24 -4 -24 -50 0 -44 2 -50
21 -50 20 0 21 -3 15 -117 -28 -522 -36 -677 -36 -706 0 -26 -6 -36 -25 -45
-53 -24 -51 -8 -70 -587 -12 -376 -15 -460 -21 -613 -7 -161 -7 -163 16 -187
13 -14 32 -25 42 -25 16 0 18 -9 18 -76 l0 -76 32 4 31 3 -1 -270 -2 -270 -27
-5 -28 -5 0 -220 0 -220 29 -5 c24 -4 29 -11 32 -37 3 -29 1 -32 -29 -35 -32
-3 -32 -3 -35 -65 l-3 -62 32 -3 32 -3 -1 -239 -1 -240 -46 -12 c-82 -20 -139
-103 -147 -209 -4 -69 16 -74 23 -5 8 77 18 102 37 98 13 -2 15 -14 13 -60 -3
-61 10 -98 34 -98 17 0 20 16 5 25 -5 3 -10 35 -10 71 l0 64 115 0 115 0 0
-80 c0 -47 4 -80 10 -80 6 0 10 33 10 80 0 66 3 80 16 80 13 0 15 -13 13 -75
-1 -41 2 -74 7 -72 5 1 10 34 10 72 l1 70 112 3 112 3 -2 -78 c-1 -51 2 -78 9
-81 8 -2 12 11 12 37 0 51 18 54 22 4 6 -70 23 -30 19 45 l-3 72 407 -2 408
-3 1 -70 c1 -73 19 -102 24 -40 4 48 22 44 22 -5 0 -22 5 -40 10 -40 6 0 10
33 10 80 l0 80 110 0 110 0 0 -74 c0 -41 5 -78 10 -81 6 -4 10 23 10 74 0 67
3 81 16 81 13 0 15 -12 13 -77 -3 -54 0 -78 9 -81 9 -3 12 18 12 77 l0 81 115
0 115 0 0 -65 c0 -49 -4 -66 -16 -73 -12 -7 -13 -11 -4 -17 7 -4 26 7 49 29
20 20 43 36 51 36 9 0 0 -13 -20 -29 -19 -16 -32 -33 -27 -37 4 -4 15 0 25 9
19 18 34 22 30 10 -3 -7 10 -16 14 -10 1 1 -2 30 -5 65 -12 109 -67 182 -153
200 l-39 8 0 239 0 240 30 5 c29 5 30 6 30 65 l0 60 -32 3 c-30 3 -33 6 -33
37 0 31 3 34 33 37 l32 3 0 220 0 220 -33 3 -32 3 2 272 3 272 33 -3 32 -4 0
76 c0 68 2 76 19 76 11 0 29 12 40 26 18 23 20 36 15 157 -2 73 -11 348 -19
612 -8 264 -18 501 -21 526 -5 45 -26 78 -59 96 -12 7 -17 64 -30 303 -31 609
-31 556 -6 563 18 4 21 12 21 51 0 42 -2 46 -24 46 -23 0 -24 3 -31 88 -12
178 -12 177 13 180 12 2 22 -1 22 -7 0 -6 7 -11 15 -11 17 0 21 26 4 32 -6 2
-14 72 -20 178 -12 228 -14 236 -49 262 -48 35 -40 56 56 139 47 41 88 75 92
76 4 2 8 -44 10 -102 1 -67 -1 -105 -8 -105 -5 0 -10 -11 -10 -25 0 -16 6 -25
15 -25 19 0 19 -16 0 -24 -8 -3 -15 -15 -15 -26 0 -11 7 -20 15 -20 12 0 15
-15 16 -67 0 -38 4 -138 8 -223 4 -85 4 -159 -1 -165 -11 -12 -10 -49 1 -60 5
-6 14 -145 20 -310 6 -165 16 -390 21 -500 5 -110 12 -315 15 -455 3 -140 8
-269 11 -286 4 -25 1 -33 -16 -37 -26 -7 -26 -27 0 -34 26 -7 26 -29 0 -36
-25 -6 -26 -27 -2 -34 17 -4 20 -21 25 -170 10 -251 9 -521 -3 -528 -15 -9
-12 -42 3 -48 16 -6 14 -53 -2 -50 -6 2 -11 -10 -11 -27 0 -17 5 -30 13 -30 9
0 11 -20 9 -75 -2 -41 -8 -75 -13 -75 -13 0 -11 -24 6 -56 13 -26 13 -30 0
-40 -17 -13 -20 -65 -4 -62 14 4 12 -132 -2 -146 -13 -15 -11 -43 4 -49 16 -6
14 -53 -2 -49 -14 3 -15 -55 -1 -60 14 -4 14 -812 0 -816 -14 -5 -13 -35 2
-50 18 -18 20 -52 3 -52 -10 0 -15 -10 -15 -30 0 -19 5 -30 14 -30 9 0 12 -7
9 -20 -3 -11 -9 -20 -14 -20 -5 0 -9 -14 -9 -30 0 -17 5 -29 10 -28 6 2 11
-60 13 -170 1 -106 6 -172 12 -172 7 0 10 397 11 1168 1 1207 -4 1615 -31
2297 -8 220 -20 524 -25 675 -19 528 -30 786 -40 940 -6 85 -10 345 -10 578
l0 422 -30 0 c-17 0 -30 5 -30 13 -1 54 -78 528 -106 652 -52 227 -123 485
-152 555 -6 14 -29 75 -50 135 -77 212 -228 519 -341 693 -83 126 -227 277
-281 292 -40 11 -44 11 -85 -1z m110 -48 c97 -44 215 -193 347 -436 129 -239
201 -408 309 -727 69 -203 154 -608 204 -968 8 -63 18 -125 20 -137 5 -21 2
-23 -34 -23 -40 0 -40 0 -34 35 6 35 -31 292 -48 333 -7 18 -16 23 -37 20 -25
-3 -27 0 -30 34 -3 31 2 42 28 65 49 44 52 81 19 229 -102 468 -278 917 -509
1294 -81 132 -195 253 -257 271 -127 37 -265 -106 -463 -480 -176 -332 -324
-749 -399 -1121 -23 -118 -19 -151 26 -190 29 -26 34 -36 31 -68 -3 -33 -6
-37 -29 -34 -14 2 -30 -3 -36 -10 -8 -12 -59 -298 -57 -323 1 -5 4 -20 8 -32
7 -21 4 -23 -34 -23 -40 0 -41 1 -36 28 3 15 10 63 16 107 61 452 131 768 239
1085 137 401 380 865 522 996 102 94 156 111 234 75z m1 -40 c160 -97 431
-580 584 -1041 27 -80 60 -188 75 -240 32 -115 94 -383 90 -390 -4 -6 -1625
-3 -1631 2 -6 6 61 291 101 428 80 279 153 464 285 725 218 432 371 592 496
516z m744 -1701 c0 -7 -277 -10 -810 -10 -533 0 -810 3 -810 10 0 7 277 10
810 10 533 0 810 -3 810 -10z m-10 -33 c0 -4 -16 -15 -35 -24 -33 -16 -36 -20
-33 -60 2 -55 10 -67 44 -68 32 0 33 -1 58 -155 31 -186 31 -176 3 -204 -15
-14 -38 -26 -52 -26 -17 0 -25 -5 -25 -17 0 -10 -5 -56 -10 -102 -5 -47 -14
-141 -20 -209 -12 -133 -12 -132 50 -373 11 -41 20 -92 20 -111 0 -28 6 -41
26 -56 32 -23 39 -59 49 -281 l8 -151 -28 0 -27 0 7 -132 c8 -161 10 -168 41
-168 20 0 24 -5 24 -30 0 -25 -4 -30 -25 -30 -14 0 -25 -4 -25 -9 0 -7 35
-692 42 -815 l3 -49 -73 0 -74 0 -1 234 -2 234 -155 0 -155 0 -3 -235 -2 -235
-663 3 -662 2 3 78 c2 42 9 199 17 347 24 460 24 438 -5 445 -14 3 -25 11 -24
18 1 7 2 19 3 27 0 9 11 15 25 15 14 0 27 3 29 8 2 4 8 71 11 150 l7 142 -25
0 c-14 0 -27 3 -29 8 -2 4 2 95 9 202 l13 195 31 25 c26 22 30 31 30 76 l0 51
42 -1 c41 -1 42 0 44 32 1 28 -2 32 -22 32 -25 0 -33 -15 -11 -23 6 -2 9 -8 4
-12 -11 -13 -29 10 -30 36 0 13 12 70 27 125 l26 102 -14 158 c-29 309 -26
294 -51 294 -12 0 -35 10 -50 22 -31 24 -31 25 3 230 23 131 27 142 52 135 28
-7 36 4 43 56 6 46 5 48 -28 70 -19 12 -35 24 -35 27 0 3 360 5 800 5 440 0
800 -3 800 -8z m-1628 -550 c21 -7 39 -15 42 -18 2 -2 12 -97 22 -211 17 -199
17 -210 0 -285 -10 -43 -25 -112 -33 -153 -8 -41 -16 -77 -18 -78 -6 -6 -185
151 -186 162 -1 10 0 587 1 594 1 8 142 -1 172 -11z m1828 -290 l0 -303 -90
-77 c-49 -42 -92 -77 -95 -77 -3 0 -5 10 -5 23 0 12 -15 83 -34 157 l-33 135
21 209 21 209 35 13 c19 7 68 13 108 13 l72 1 0 -303z m-296 -1802 c-16 -24
-21 -25 -112 -25 -75 0 -99 4 -114 17 -10 9 -18 20 -18 25 0 4 59 8 130 8
l130 0 -16 -25z m-225 -199 c0 -147 -6 -186 -28 -186 -3 0 -5 87 -3 192 3 170
5 191 17 174 11 -15 15 -56 14 -180z m246 -185 c-17 -17 -25 41 -25 190 0 119
3 168 13 178 10 10 13 -25 15 -175 1 -103 0 -189 -3 -193z m-47 188 l-3 -151
-88 -2 -89 -1 -2 153 -3 152 94 0 94 0 -3 -151z m22 -194 c11 -10 20 -22 20
-27 0 -4 -58 -8 -130 -8 -71 0 -130 2 -130 5 0 3 7 16 15 28 13 20 21 22 109
21 78 -1 100 -4 116 -19z m244 -84 c14 -14 26 -28 26 -33 0 -4 -436 -8 -970
-8 -533 0 -970 4 -970 8 0 12 23 38 42 48 9 5 428 9 932 9 l914 0 26 -24z
m-1724 -123 l0 -63 -85 4 c-58 2 -90 -1 -100 -9 -13 -11 -15 -4 -15 52 0 36 3
68 7 71 3 4 48 7 100 7 l93 0 0 -62z m1539 -425 c0 -269 0 -530 0 -580 l1 -93
88 0 87 0 0 -146 0 -145 -32 6 -33 6 0 -295 0 -295 30 -3 31 -3 1 -200 1 -200
-32 -3 c-31 -3 -31 -4 -31 -58 0 -36 4 -54 13 -55 6 -1 21 -2 32 -3 16 -1 20
-8 20 -41 0 -38 -2 -40 -32 -43 l-33 -3 -2 -250 -3 -250 -262 -2 -262 -2 0
660 -1 660 79 67 c93 80 92 78 90 275 -1 156 3 147 -94 228 -33 27 -93 78
-133 112 l-73 63 -208 0 -209 0 -64 -52 c-81 -67 -221 -190 -230 -203 -9 -13
-9 -338 0 -350 4 -6 39 -37 77 -70 39 -33 73 -64 78 -70 4 -5 6 -304 5 -664
l-3 -653 -262 -2 -263 -1 -2 250 -3 250 -33 3 c-32 3 -33 4 -30 45 2 34 7 42
23 43 11 1 26 2 33 3 8 1 12 19 12 55 0 54 0 55 -32 58 l-33 3 0 200 0 200 33
3 32 3 -2 292 -3 292 -32 -3 -31 -3 -1 133 c0 73 2 140 5 148 3 13 18 15 80
12 43 -3 80 0 86 6 6 6 10 153 9 411 -1 428 -3 415 47 387 l23 -12 2 -340 2
-339 653 -3 c488 -1 652 -5 652 -14 0 -19 32 -48 52 -48 26 0 62 35 55 54 -4
9 -15 16 -26 16 -19 0 -19 12 -20 483 0 265 -1 488 -1 495 0 10 -140 12 -682
10 l-683 -3 -1 -75 c-1 -41 -3 -75 -5 -74 -2 0 -19 5 -36 12 l-33 11 0 90 0
91 760 0 760 0 -1 -487z m215 455 c3 -18 7 -132 10 -253 3 -121 11 -389 17
-597 11 -386 9 -418 -26 -418 -12 0 -15 16 -15 80 l0 80 -90 0 -90 0 0 570 0
570 95 0 94 0 5 -32z m-314 -515 l0 -478 -660 -1 c-475 -1 -660 2 -660 10 -3
91 2 631 5 634 3 3 87 -28 375 -140 30 -11 65 -33 77 -48 12 -15 50 -40 85
-56 l63 -29 215 0 214 0 8 45 c6 35 5 46 -8 53 -14 8 -14 10 2 21 11 8 14 18
9 27 -5 7 -9 27 -9 44 l-1 30 -183 3 c-101 1 -199 -2 -218 -7 -30 -8 -50 -3
-157 39 -170 68 -372 144 -435 165 -39 12 -52 21 -48 32 3 8 6 41 6 74 l0 59
660 0 660 0 0 -477z m-1560 402 c0 -3 -11 -28 -25 -55 -14 -27 -25 -52 -25
-55 0 -3 19 -14 43 -25 l42 -19 -42 0 c-23 -1 -45 4 -49 10 -8 13 -7 127 2
140 6 10 54 13 54 4z m115 -4 c10 -17 -9 -19 -40 -6 l-30 13 32 1 c17 1 34 -3
38 -8z m-25 -32 c30 -12 70 -27 87 -33 18 -7 35 -15 38 -18 9 -9 -42 -93 -56
-91 -25 3 -180 69 -179 76 5 26 37 87 45 87 6 0 35 -9 65 -21z m202 -79 c13
-5 52 -20 88 -34 36 -13 154 -59 262 -100 108 -42 204 -76 212 -76 9 0 16 -2
16 -5 0 -12 -40 -84 -50 -90 -6 -4 -75 18 -153 49 -277 108 -432 166 -444 166
-18 0 -16 9 9 58 25 46 26 46 60 32z m-267 -60 l90 -5 3 -407 2 -408 -90 0
-91 0 2 -75 c1 -42 -1 -78 -4 -81 -10 -10 -37 4 -44 23 -4 9 -1 214 6 454 7
240 13 463 12 495 0 54 1 57 12 34 12 -23 19 -25 102 -30z m1233 -151 c2 -13
-17 -15 -160 -14 -160 1 -218 8 -218 26 0 6 79 8 187 7 161 -3 188 -5 191 -19z
m-318 -31 c22 -7 40 -17 40 -21 0 -17 -45 -87 -56 -87 -6 0 -28 7 -47 15 l-36
15 22 44 c12 25 25 45 30 46 4 0 25 -6 47 -12z m150 -43 c0 -37 -3 -45 -18
-45 -15 0 -18 7 -16 43 2 23 3 43 3 45 1 1 8 2 16 2 11 0 15 -12 15 -45z m50
0 c0 -33 -4 -45 -15 -45 -11 0 -15 12 -15 45 0 33 4 45 15 45 11 0 15 -12 15
-45z m60 0 c0 -38 -3 -45 -20 -45 -17 0 -20 7 -20 45 0 38 3 45 20 45 17 0 20
-7 20 -45z m-176 29 c9 -3 16 -17 16 -31 0 -13 -4 -22 -9 -19 -5 3 -14 -1 -21
-9 -15 -18 -31 -20 -26 -2 3 6 7 24 10 40 7 30 7 30 30 21z m-190 -84 c71 -26
93 -30 108 -21 11 7 74 11 168 11 127 0 150 -2 150 -15 0 -13 -28 -15 -195
-15 -186 0 -198 1 -259 26 -36 14 -71 33 -78 42 -11 13 -11 15 2 10 8 -3 55
-20 104 -38z m750 -456 c26 -10 18 -24 -14 -24 -29 0 -38 9 -23 23 8 9 17 9
37 1z m-549 -149 l-50 -105 -85 0 -86 0 -50 105 -51 105 186 0 186 0 -50 -105z
m-291 -10 c27 -58 47 -107 45 -108 -2 -2 -29 -24 -59 -49 l-56 -47 -109 39
c-61 22 -116 40 -122 40 -7 0 -13 3 -12 8 1 7 250 221 259 221 3 1 27 -47 54
-104z m497 -5 c77 -65 125 -112 117 -115 -165 -59 -215 -77 -225 -78 -11 -2
-122 83 -123 94 0 8 94 209 98 209 2 0 62 -50 133 -110z m-185 -165 l62 -55 0
-69 0 -68 -64 -57 -63 -56 -91 0 -92 0 -64 56 -64 56 0 68 0 68 62 56 61 56
95 0 95 0 63 -55z m-511 -10 c61 -21 112 -39 113 -41 8 -6 4 -136 -4 -143 -8
-7 -193 -76 -222 -83 -10 -2 -13 31 -15 155 -1 101 2 156 8 154 6 -2 60 -21
120 -42z m837 -111 c2 -86 1 -157 -1 -159 -2 -2 -26 5 -55 16 -28 12 -78 30
-111 41 -33 11 -64 24 -70 28 -5 5 -10 39 -10 75 l0 68 109 38 c60 21 111 41
114 44 17 17 21 -10 24 -151z m-691 -107 c9 -7 35 -29 59 -51 l42 -38 -41 -84
c-22 -46 -41 -88 -41 -92 0 -4 -4 -13 -9 -21 -7 -10 -30 5 -100 65 -51 44
-110 93 -131 109 -22 17 -39 32 -39 35 -1 5 216 87 234 88 6 1 17 -4 26 -11z
m548 -27 c60 -22 114 -40 120 -40 18 0 12 -14 -13 -30 -21 -14 -84 -67 -193
-164 -24 -21 -45 -37 -47 -35 -2 2 -25 50 -51 106 -40 86 -45 104 -34 115 24
22 102 88 106 88 2 0 52 -18 112 -40z m-239 -95 c5 -13 25 -58 45 -100 19 -41
35 -78 35 -80 0 -3 -81 -5 -180 -5 -106 0 -180 4 -180 9 0 6 16 41 35 79 19
38 39 81 45 96 9 25 11 26 100 26 87 0 91 -1 100 -25z m-362 -157 l43 -43 212
-3 212 -3 52 46 c28 25 53 45 55 45 1 0 2 -190 1 -422 -2 -233 -3 -505 -3
-605 l0 -183 -315 0 -315 0 0 605 c0 333 4 605 7 605 4 0 27 -19 51 -42z m140
-1215 c3 -23 1 -23 -97 -23 -99 0 -118 6 -107 35 4 11 27 13 103 12 93 -2 98
-3 101 -24z m222 -6 l0 -33 -102 2 c-101 2 -103 2 -104 25 -1 13 0 27 3 32 2
4 49 7 104 7 l99 0 0 -33z m222 27 c3 -3 4 -14 1 -24 -4 -16 -17 -19 -100 -22
-98 -3 -113 2 -99 37 4 12 25 15 99 15 52 0 96 -3 99 -6z m618 -90 c29 -6 90
-50 90 -65 0 -5 -389 -9 -1036 -9 -1131 0 -1060 -4 -980 53 30 21 42 22 341
27 385 6 1551 2 1585 -6z m-1370 -124 c0 -16 -4 -30 -10 -30 -5 0 -10 14 -10
30 0 17 5 30 10 30 6 0 10 -13 10 -30z m880 1 c0 -40 -17 -48 -22 -11 -3 17
-2 32 0 35 13 13 22 2 22 -24z m605 -2 c5 -22 2 -36 -11 -50 -26 -29 -33 -23
-32 31 0 42 3 50 18 50 12 0 21 -10 25 -31z"/>
<path d="M1353 8448 c-5 -7 -9 -38 -8 -68 l1 -55 40 0 39 0 3 61 c3 57 1 62
-20 68 -34 9 -44 7 -55 -6z m50 -39 c7 -25 -9 -72 -22 -65 -5 3 -11 15 -14 26
-4 15 0 20 16 21 17 1 18 2 5 6 -21 5 -24 33 -4 33 7 0 16 -9 19 -21z"/>
<path d="M1496 8452 c-3 -3 -6 -34 -6 -69 l0 -63 40 0 41 0 -3 68 -3 67 -32 2
c-17 0 -34 -1 -37 -5z m56 -45 c3 -13 1 -35 -4 -48 -9 -23 -10 -23 -24 -5 -19
26 -18 36 4 37 10 0 12 3 5 6 -17 6 -16 33 1 33 7 0 16 -11 18 -23z"/>
<path d="M1289 8171 c-21 -16 -22 -22 -11 -45 9 -20 19 -26 45 -26 55 0 76 40
39 73 -24 22 -44 21 -73 -2z m61 -16 c6 -8 9 -19 5 -25 -9 -15 -41 -12 -54 4
-10 11 -8 17 6 25 24 14 28 14 43 -4z"/>
<path d="M1550 8172 c-16 -13 -21 -24 -16 -39 14 -44 83 -47 106 -4 8 17 7 24
-10 41 -25 25 -51 26 -80 2z m60 -17 c15 -18 5 -35 -21 -35 -24 0 -37 29 -18
41 19 12 25 11 39 -6z"/>
<path d="M1191 7995 c-18 -8 -41 -15 -50 -15 -9 0 -26 -7 -38 -15 l-21 -15 21
-45 c11 -25 24 -45 28 -45 3 0 35 9 69 20 34 11 69 20 76 20 21 0 14 61 -10
87 -24 26 -30 27 -75 8z m59 -40 c7 -14 10 -28 6 -32 -9 -9 -36 25 -36 44 0
21 16 15 30 -12z m-20 -36 c0 -16 -19 -9 -30 10 -17 33 -11 48 10 22 11 -13
20 -27 20 -32z m-50 16 c7 -14 10 -28 6 -32 -9 -9 -36 25 -36 44 0 21 16 15
30 -12z m-20 -36 c0 -16 -19 -9 -30 10 -17 33 -11 48 10 22 11 -13 20 -27 20
-32z"/>
<path d="M1660 7999 c0 -7 -6 -17 -14 -23 -8 -6 -16 -24 -18 -41 -3 -26 1 -30
32 -38 19 -5 52 -15 73 -23 47 -18 67 -18 67 0 0 7 6 19 14 25 7 6 13 23 12
38 -1 25 -7 29 -47 39 -25 7 -55 17 -67 23 -27 14 -52 14 -52 0z m40 -33 c0
-19 -33 -52 -38 -38 -4 14 16 52 28 52 6 0 10 -6 10 -14z m30 -9 c0 -18 -27
-53 -35 -46 -7 8 15 59 27 59 4 0 8 -6 8 -13z m68 -22 c5 -5 -22 -45 -31 -45
-4 0 -5 12 -2 28 5 25 5 25 -4 5 -17 -39 -40 -27 -25 12 5 12 14 15 33 10 14
-4 27 -8 29 -10z"/>
<path d="M989 7712 c-62 -3 -67 -5 -72 -27 -5 -31 9 -42 53 -39 19 1 52 3 73
3 32 1 37 4 37 25 0 34 -17 41 -91 38z m21 -32 c0 -21 -15 -27 -25 -10 -3 5
-12 7 -20 3 -8 -3 -15 0 -15 5 0 9 9 13 53 21 4 0 7 -8 7 -19z"/>
<path d="M1883 7713 c-40 -4 -43 -6 -43 -34 l0 -29 80 0 80 0 0 30 c0 25 -4
30 -24 30 -13 0 -30 1 -38 3 -7 2 -32 2 -55 0z m86 -29 c7 -6 -2 -11 -31 -18
-22 -5 -27 -3 -25 14 1 15 6 18 27 13 14 -3 27 -7 29 -9z"/>
<path d="M1277 7692 c-23 -26 -21 -55 6 -80 29 -27 61 -28 87 -2 41 41 13 100
-47 100 -16 0 -37 -8 -46 -18z m77 -15 c23 -17 14 -53 -14 -60 -22 -6 -60 18
-60 38 0 14 26 34 46 35 5 0 18 -6 28 -13z"/>
<path d="M1540 7690 c-26 -26 -25 -52 3 -78 27 -26 54 -28 84 -7 30 21 34 51
11 80 -24 31 -70 33 -98 5z m80 -15 c30 -36 -27 -80 -62 -48 -22 20 -22 27 -2
47 19 20 48 20 64 1z"/>
<path d="M998 7573 c-12 -3 -18 -14 -18 -34 l0 -29 101 0 100 0 -3 33 -3 32
-80 2 c-44 0 -88 -1 -97 -4z m160 -30 c3 -10 -17 -13 -77 -13 -75 0 -92 6 -74
24 12 12 146 2 151 -11z"/>
<path d="M1747 7573 c-4 -3 -7 -19 -7 -35 l0 -28 100 0 100 0 0 29 c0 17 -6
31 -16 35 -21 8 -169 8 -177 -1z m171 -30 c3 -10 -17 -13 -77 -13 -75 0 -92 6
-74 24 12 12 146 2 151 -11z"/>
<path d="M1092 7394 c-27 -19 -29 -64 -4 -87 26 -24 77 -21 102 5 26 28 25 44
-5 73 -28 29 -61 32 -93 9z m86 -46 c-5 -32 -31 -44 -64 -29 -22 10 -25 14
-13 22 12 7 12 10 0 18 -8 5 -9 11 -3 15 6 3 13 2 17 -4 9 -15 25 -12 25 5 0
13 4 14 21 5 12 -7 19 -19 17 -32z"/>
<path d="M1732 7387 c-27 -29 -28 -47 -2 -75 26 -28 80 -29 103 -4 57 63 -43
141 -101 79z m48 -12 c0 -18 17 -20 23 -2 2 6 8 9 12 5 4 -4 2 -14 -5 -23 -8
-10 -9 -15 -1 -15 21 0 11 -20 -14 -26 -43 -11 -73 34 -43 64 16 16 28 15 28
-3z"/>
<path d="M873 7308 c-23 -29 -39 -56 -36 -61 3 -4 17 -13 31 -18 25 -10 31 -7
70 37 23 27 42 52 42 56 0 6 -52 38 -62 38 -2 0 -22 -23 -45 -52z m60 -5 c-7
-2 -9 -11 -6 -19 3 -8 -1 -14 -10 -14 -8 0 -17 -6 -20 -12 -3 -9 -8 -10 -15
-3 -8 7 -3 20 16 43 19 23 29 29 37 21 7 -8 6 -13 -2 -16z"/>
<path d="M1961 7341 l-24 -18 39 -52 c21 -28 42 -51 47 -51 4 0 22 7 38 16
l30 15 -44 52 c-24 28 -48 52 -53 54 -5 1 -20 -6 -33 -16z m73 -57 c14 -36 4
-43 -29 -18 -17 13 -18 16 -5 24 21 13 27 12 34 -6z"/>
<path d="M1740 7035 c0 -22 4 -25 40 -25 36 0 40 3 40 25 0 23 -4 25 -40 25
-36 0 -40 -2 -40 -25z"/>
<path d="M1860 7035 c0 -25 3 -26 43 -23 34 2 42 7 42 23 0 16 -8 21 -42 23
-40 3 -43 2 -43 -23z"/>
<path d="M1445 6850 c-3 -5 -44 -10 -91 -10 l-84 0 0 -30 0 -30 -217 -2 -218
-3 -2 -516 -2 -516 134 -127 c111 -105 135 -133 135 -156 0 -27 24 -56 88
-107 l24 -19 -1 -524 -2 -524 62 -58 61 -58 127 0 126 1 58 54 58 55 -1 523 0
524 60 52 c47 41 60 58 60 81 0 33 6 40 151 176 l107 99 6 523 6 522 -220 0
-220 0 0 30 0 30 -90 0 c-53 0 -90 4 -90 10 0 6 -4 10 -9 10 -6 0 -13 -4 -16
-10z m3 -67 l-3 -37 -75 0 c-51 0 -75 4 -74 12 1 7 2 23 3 37 1 24 3 25 77 25
l75 0 -3 -37z m172 -1 l0 -37 -72 1 -73 1 -3 37 -3 36 75 0 76 0 0 -38z m-343
-42 c12 -18 9 -19 -50 -22 l-62 -3 -3 -102 -3 -103 301 0 301 0 -3 103 -3 102
-63 3 c-58 3 -62 4 -52 22 10 19 23 20 215 20 l205 0 0 -194 0 -195 -600 0
-600 -1 0 195 0 195 203 0 c190 0 203 -1 214 -20z m253 -20 c-20 -13 -60 -13
-60 0 0 6 17 10 38 10 27 0 33 -3 22 -10z m-128 -32 c-30 -30 10 -98 58 -98
46 0 88 68 60 96 -6 6 29 9 98 7 l107 -3 3 -65 3 -65 -271 0 -270 0 0 65 0 64
98 4 c53 1 104 4 112 5 11 2 11 -1 2 -10z m82 -1 c11 -8 17 -23 14 -38 -2 -20
-9 -24 -37 -24 -45 0 -62 26 -37 54 22 24 35 26 60 8z m253 -154 c-12 -11
-545 -14 -552 -3 -4 6 98 10 276 10 155 0 279 -3 276 -7z m-339 -269 c-1 -44
1 -85 4 -90 5 -8 77 -11 111 -5 4 0 7 40 7 89 l0 87 268 -1 267 -2 3 -293 3
-294 -118 -112 -118 -112 -5 78 -5 79 -50 44 c-27 24 -73 63 -101 86 l-52 42
-152 0 -152 0 -52 -42 c-28 -24 -68 -59 -89 -78 -21 -19 -45 -39 -53 -43 -10
-6 -14 -29 -14 -87 0 -44 -2 -80 -4 -80 -2 0 -23 19 -47 43 -24 23 -77 72
-116 109 l-73 68 0 293 c0 162 2 296 4 298 2 2 124 4 270 4 l266 0 -2 -81z
m90 66 c6 0 12 -7 12 -15 0 -18 -75 -21 -86 -4 -9 15 16 30 41 24 11 -2 26 -5
33 -5z m12 -75 c0 -34 -1 -35 -38 -35 -47 0 -50 2 -44 40 4 27 8 30 43 30 38
0 39 -1 39 -35z m-5 -65 c-3 -5 -22 -10 -41 -10 -19 0 -34 5 -34 10 0 6 18 10
41 10 24 0 38 -4 34 -10z m65 -402 l-29 -53 -73 3 -74 3 -27 50 -26 49 129 0
128 0 -28 -52z m-220 -9 l25 -50 -21 -17 c-93 -75 -96 -76 -114 -65 -9 7 -36
17 -60 23 -23 6 -40 13 -39 15 28 26 174 145 178 145 3 0 17 -23 31 -51z m319
14 c25 -21 58 -48 72 -61 14 -12 34 -28 44 -35 15 -12 10 -16 -49 -35 l-67
-22 -33 31 c-19 16 -42 36 -52 44 -18 12 -17 15 6 64 13 28 26 51 28 51 3 0
26 -17 51 -37z m-63 -119 l54 -46 0 -72 -1 -71 -55 -47 -55 -48 -79 0 -78 0
-61 52 -61 51 0 63 0 62 58 51 57 51 83 0 84 0 54 -46z m-435 -19 c87 -40 83
-35 83 -100 l0 -59 -58 -24 c-32 -12 -60 -22 -61 -20 -8 8 -9 218 -2 218 2 0
19 -7 38 -15z m636 -202 c-3 -2 -31 7 -63 20 l-59 23 0 63 0 64 60 21 60 21 3
-104 c1 -57 1 -106 -1 -108z m-485 -27 l48 -43 -22 -51 c-12 -29 -24 -52 -28
-52 -3 0 -32 24 -66 53 -33 29 -73 63 -89 75 -15 12 -26 24 -24 25 8 6 105 35
119 36 8 0 36 -19 62 -43z m421 26 l57 -18 -86 -75 c-47 -41 -88 -75 -92 -77
-4 -1 -18 21 -31 50 l-24 52 49 43 c27 23 54 43 59 43 6 0 36 -8 68 -18z
m-171 -130 l29 -52 -131 0 -130 0 21 43 c32 62 31 62 110 61 l72 -1 29 -51z
m-106 -72 c140 0 147 1 178 25 18 14 36 25 39 25 4 0 7 -110 7 -245 l0 -244
-216 -3 c-119 -2 -218 -1 -220 1 -2 2 -4 117 -4 254 l0 249 35 -31 36 -31 145
0z m224 -484 l0 -25 -220 0 -220 0 0 24 0 25 220 0 220 0 0 -24z m-2 -258 l2
-212 -57 -53 -57 -53 -110 0 -110 0 -53 52 -53 52 0 216 0 215 217 -2 218 -2
3 -213z"/>
<path d="M991 5930 c-34 -5 -52 -16 -79 -45 -31 -34 -34 -42 -29 -82 14 -130
202 -159 271 -42 21 36 20 67 -4 106 -31 51 -86 73 -159 63z m99 -37 c38 -26
49 -45 50 -84 0 -42 -33 -84 -75 -95 -111 -28 -206 71 -144 150 12 15 31 32
43 36 36 15 100 11 126 -7z"/>
<path d="M1347 5675 c-58 -44 -67 -61 -67 -125 0 -45 4 -55 33 -81 58 -55 74
-62 148 -63 l71 -1 54 49 c55 48 55 49 53 103 -3 61 -6 67 -67 117 -41 33 -49
36 -112 36 -62 0 -71 -3 -113 -35z m227 -26 c44 -39 46 -43 46 -94 0 -51 -2
-54 -49 -94 -46 -38 -53 -41 -111 -41 -58 0 -65 3 -111 41 -47 40 -49 43 -49
94 0 51 2 55 46 94 45 39 50 41 114 41 64 0 69 -2 114 -41z"/>
<path d="M1385 5613 c-13 -13 -16 -28 -13 -65 3 -27 8 -52 12 -56 4 -3 37 -7
72 -7 53 0 68 4 80 19 19 26 18 76 -2 104 -13 18 -25 22 -74 22 -42 0 -63 -5
-75 -17z m133 -55 c3 -47 3 -48 -27 -49 -17 -1 -43 -1 -58 -2 -25 -1 -28 3
-31 37 -5 61 1 67 60 64 l53 -3 3 -47z"/>
<path d="M1402 4858 c3 -33 3 -33 58 -33 55 0 55 0 58 33 l3 32 -61 0 -61 0 3
-32z m98 -3 c0 -11 -11 -15 -40 -15 -29 0 -40 4 -40 15 0 11 11 15 40 15 29 0
40 -4 40 -15z"/>
<path d="M1369 4677 c-19 -12 -43 -39 -53 -59 -18 -31 -18 -41 -8 -77 26 -86
135 -126 226 -82 141 69 87 241 -75 241 -42 0 -65 -6 -90 -23z m160 -11 c54
-28 76 -90 50 -139 -40 -74 -157 -88 -219 -25 -24 24 -30 38 -30 73 0 37 5 47
35 74 30 26 44 31 86 31 27 0 63 -7 78 -14z"/>
<path d="M2144 5464 c-16 -24 -16 -26 2 -44 33 -32 80 -30 96 5 25 56 -64 92
-98 39z m71 -19 c0 -13 -8 -21 -23 -23 -26 -4 -42 25 -21 39 22 14 44 6 44
-16z"/>
<path d="M1965 5291 c-59 -27 -80 -55 -80 -106 0 -75 71 -131 157 -123 88 9
145 75 126 146 -13 48 -25 61 -73 83 -50 23 -80 23 -130 0z m135 -28 c48 -28
61 -73 35 -123 -52 -100 -225 -64 -225 45 0 77 113 124 190 78z"/>
<path d="M806 4743 c-3 -4 -6 -89 -6 -190 l2 -183 34 -1 c19 0 79 0 134 0 55
0 116 0 135 0 l35 1 0 190 0 190 -163 0 c-90 0 -167 -3 -171 -7z m294 -28
c-10 -12 -37 -15 -120 -15 -60 0 -115 3 -124 6 -43 16 -4 24 120 24 120 0 135
-2 124 -15z m-250 -150 c0 -68 -3 -130 -6 -139 -17 -43 -24 -2 -24 135 0 134
2 150 15 139 12 -10 15 -38 15 -135z m265 -154 c-16 -16 -25 36 -25 150 0 87
4 129 13 138 10 10 13 -17 15 -135 1 -81 0 -149 -3 -153z m-45 149 l0 -120
-100 0 -100 0 0 120 0 120 100 0 100 0 0 -120z m23 -154 c9 -7 17 -15 17 -17
0 -2 -61 -4 -135 -4 -74 0 -135 2 -135 6 0 3 5 10 12 17 17 17 217 16 241 -2z"/>
<path d="M1992 4188 c-6 -8 -10 -23 -8 -33 2 -17 12 -20 65 -23 l62 -3 -3 33
c-3 32 -4 33 -54 36 -33 2 -55 -2 -62 -10z m96 -25 c-2 -13 -13 -18 -38 -18
-25 0 -36 5 -38 18 -3 14 4 17 38 17 34 0 41 -3 38 -17z"/>
<path d="M1993 4098 c-4 -7 -7 -24 -7 -38 0 -24 3 -25 60 -25 l59 0 0 35 0 35
-52 2 c-32 2 -55 -2 -60 -9z m95 -31 c3 -14 -5 -17 -37 -17 -28 0 -41 4 -41
13 0 20 5 22 42 21 22 -1 34 -6 36 -17z"/>
<path d="M658 2323 c-37 -4 -38 -6 -38 -43 0 -50 27 -67 88 -53 19 4 22 12 22
48 0 30 -5 45 -16 49 -9 3 -16 5 -17 4 -1 -1 -19 -3 -39 -5z m52 -49 c0 -21
-5 -24 -34 -24 -29 0 -33 3 -33 24 0 19 5 26 26 28 35 5 41 1 41 -28z"/>
<path d="M773 2323 c-8 -3 -13 -23 -13 -48 0 -40 3 -44 28 -50 16 -3 41 -1 55
4 23 9 27 16 27 50 0 26 -5 41 -16 45 -18 7 -63 7 -81 -1z m73 -46 c-2 -16
-11 -23 -34 -25 -28 -3 -32 0 -32 22 0 18 6 26 23 28 34 6 47 -2 43 -25z"/>
<path d="M2268 2274 c-3 -3 -48 -6 -99 -7 l-94 -2 0 -75 0 -75 112 -2 111 -2
4 75 c2 62 0 78 -13 85 -9 4 -19 6 -21 3z m-100 -85 c-3 -53 -4 -54 -35 -57
l-33 -3 0 60 c0 58 1 60 28 63 39 5 44 -2 40 -63z m112 0 l0 -60 -32 3 c-33 3
-33 4 -36 60 -3 55 -2 57 25 60 15 2 31 2 36 0 4 -2 7 -30 7 -63z"/>
<path d="M2080 1882 c0 -22 30 -52 51 -52 25 1 63 36 56 54 -5 12 -19 16 -57
16 -42 0 -50 -3 -50 -18z m80 -7 c0 -16 -45 -21 -54 -6 -8 12 4 21 31 21 14 0
23 -6 23 -15z"/>
<path d="M984 1616 c-3 -8 -4 -29 -2 -48 3 -32 4 -33 56 -36 37 -2 52 1 53 10
0 7 2 24 3 38 2 14 1 31 -1 38 -7 18 -102 16 -109 -2z m91 -36 c0 -21 -5 -26
-32 -28 -31 -3 -33 -1 -33 28 0 29 2 31 33 28 27 -2 32 -7 32 -28z"/>
<path d="M707 1603 c-4 -3 -7 -26 -7 -50 l0 -43 100 0 100 0 0 50 0 50 -93 0
c-52 0 -97 -3 -100 -7z m171 -40 c-3 -28 -4 -28 -78 -28 -74 0 -75 0 -78 28
l-3 27 81 0 81 0 -3 -27z"/>
<path d="M2030 1476 c-15 -15 -13 -106 3 -112 24 -9 101 -11 123 -3 18 6 21
15 19 58 -1 28 -4 53 -7 56 -10 11 -128 11 -138 1z m60 -21 c0 -8 5 -15 10
-15 6 0 10 7 10 15 0 8 9 15 20 15 29 0 27 -37 -2 -43 l-23 -4 23 -8 c27 -9
29 -35 2 -35 -12 0 -20 7 -20 18 -1 16 -2 16 -15 -1 -15 -20 -46 -20 -53 1 -2
7 5 12 17 12 27 0 27 16 1 23 -13 3 -18 10 -14 21 8 20 44 21 44 1z"/>
<path d="M753 1036 c-4 -8 -6 -37 -5 -65 l4 -51 63 0 c71 0 84 9 83 60 -1 61
-12 70 -78 70 -41 0 -61 -4 -67 -14z m57 -21 c0 -8 5 -15 10 -15 6 0 10 7 10
15 0 8 9 15 20 15 13 0 20 -7 20 -20 0 -14 -7 -20 -21 -20 -12 0 -17 -4 -14
-11 4 -6 13 -8 21 -5 9 3 14 -2 14 -14 0 -13 -7 -20 -20 -20 -11 0 -20 7 -20
15 0 8 -4 15 -10 15 -5 0 -10 -7 -10 -16 0 -10 -7 -14 -22 -12 -28 4 -36 28
-9 28 11 0 23 5 26 10 3 6 -2 10 -13 10 -24 0 -32 8 -25 26 7 19 43 18 43 -1z"/>
<path d="M2031 1036 c-7 -8 -11 -35 -9 -63 l3 -48 66 -3 c81 -4 91 5 81 73
l-7 50 -61 3 c-44 2 -64 -1 -73 -12z m59 -21 c0 -8 5 -15 10 -15 6 0 10 7 10
15 0 8 9 15 20 15 13 0 20 -7 20 -20 0 -14 -7 -20 -21 -20 -11 0 -17 -4 -14
-10 3 -5 15 -10 25 -10 13 0 17 -5 14 -15 -4 -8 -15 -15 -25 -15 -10 0 -19 7
-19 15 0 8 -4 15 -10 15 -5 0 -10 -7 -10 -15 0 -15 -31 -21 -43 -9 -10 10 4
33 18 28 7 -3 16 -1 20 5 3 7 -2 11 -14 11 -22 0 -35 15 -26 30 10 16 45 12
45 -5z"/>
<path d="M2302 3363 c3 -115 4 -118 27 -121 12 -2 34 -1 47 2 24 7 25 7 22
119 l-3 112 -48 3 -48 3 3 -118z m68 -1 c0 -96 -1 -99 -22 -97 -22 2 -23 7
-26 85 -3 97 0 110 28 110 19 0 20 -6 20 -98z"/>
<path d="M2305 3117 c-3 -7 -4 -60 -3 -118 3 -101 4 -104 27 -107 12 -2 34 -1
47 2 24 7 25 7 22 119 l-3 112 -43 3 c-29 2 -44 -1 -47 -11z m65 -108 c0 -98
0 -100 -22 -97 -22 3 -23 9 -26 87 -3 98 0 111 28 111 19 0 20 -6 20 -101z"/>
<path d="M1261 3566 c-7 -9 -10 -23 -7 -32 4 -9 2 -22 -4 -29 -8 -10 -5 -17
11 -29 19 -13 20 -16 7 -21 -19 -8 -21 -80 -2 -96 8 -7 82 -9 221 -7 l208 3
67 32 c113 53 115 94 5 150 l-72 37 -210 4 c-183 3 -213 2 -224 -12z m488 -44
c36 -18 68 -38 72 -44 14 -22 -9 -44 -73 -74 -63 -29 -63 -29 -265 -29 -127 0
-204 4 -205 10 -2 6 73 12 202 15 192 5 208 7 253 30 26 13 47 29 47 36 0 6
-23 22 -52 34 -47 20 -69 22 -247 24 -108 1 -197 5 -198 9 -10 27 3 29 200 25
l202 -4 64 -32z m-379 -56 c0 -51 -16 -69 -29 -34 -12 31 -3 78 15 78 10 0 14
-13 14 -44z m54 26 c-1 -7 -2 -25 -2 -42 -3 -47 -32 -40 -32 8 0 21 3 42 7 46
10 9 28 1 27 -12z m51 -29 c-4 -60 -3 -57 -17 -45 -7 6 -12 28 -11 49 2 47 0
43 17 43 11 0 13 -12 11 -47z m72 14 c3 -46 -9 -62 -36 -48 -11 7 -21 21 -21
31 0 25 17 26 23 3 4 -15 5 -14 6 3 1 15 18 44 26 44 0 0 1 -15 2 -33z m58
-18 c0 -32 -4 -44 -15 -44 -16 0 -26 54 -16 82 12 30 31 6 31 -38z m81 35 c27
-9 53 -20 58 -24 8 -8 -76 -50 -100 -50 -10 0 -14 14 -14 45 0 25 1 45 3 45 2
0 26 -7 53 -16z"/>
<path d="M1400 3001 c-36 -11 -112 -51 -132 -69 -10 -8 -18 -25 -18 -37 0 -29
22 -47 95 -81 58 -27 67 -28 253 -32 231 -5 246 -2 240 38 -3 17 -1 30 4 30
15 0 8 31 -8 37 -15 6 -15 7 -1 18 13 9 15 21 9 56 l-8 44 -204 2 c-113 1
-216 -2 -230 -6z m418 -28 c-3 -15 -22 -17 -193 -16 -164 1 -196 -1 -241 -18
-68 -26 -82 -42 -52 -61 56 -36 93 -41 288 -43 162 -1 195 -4 195 -16 0 -12
-33 -14 -200 -14 l-200 0 -68 32 c-37 18 -70 40 -74 49 -9 23 29 52 105 81 51
20 76 22 250 22 176 1 193 -1 190 -16z m-351 -76 c2 -19 -1 -38 -6 -41 -12 -8
-125 34 -116 42 10 10 99 41 110 38 5 -1 11 -19 12 -39z m53 -2 c0 -33 -4 -45
-15 -45 -11 0 -15 12 -15 45 0 33 4 45 15 45 11 0 15 -12 15 -45z m63 31 c9
-7 17 -19 17 -26 0 -13 -28 -39 -42 -40 -5 0 -8 18 -8 40 0 43 5 47 33 26z
m67 -31 c0 -39 -3 -45 -21 -45 -15 0 -19 4 -15 16 3 9 6 29 6 45 0 19 5 29 15
29 11 0 15 -12 15 -45z m50 0 c0 -33 -4 -45 -15 -45 -11 0 -15 12 -15 45 0 33
4 45 15 45 11 0 15 -12 15 -45z m60 -1 c0 -38 -3 -45 -17 -42 -13 2 -19 15
-21 46 -3 37 -1 42 17 42 18 0 21 -6 21 -46z m61 31 c0 -5 -9 -11 -21 -13 -20
-3 -27 8 -13 22 10 9 34 3 34 -9z"/>
<path d="M1338 2354 c-71 -58 -78 -70 -78 -136 0 -56 2 -60 43 -99 57 -54 81
-65 154 -68 70 -3 89 5 152 64 l46 43 -1 66 c-1 37 -3 68 -5 70 -2 2 -28 24
-57 50 l-53 46 -78 0 c-76 0 -81 -2 -123 -36z m243 -25 l49 -41 0 -67 0 -67
-51 -42 c-50 -40 -55 -42 -121 -42 -67 0 -71 1 -119 43 l-49 42 0 67 0 66 48
41 c46 40 49 41 121 41 71 0 75 -1 122 -41z"/>
<path d="M1403 2263 c-24 -16 -30 -51 -14 -81 5 -9 12 -25 15 -35 8 -26 111
-21 111 5 0 10 6 23 13 30 19 19 14 58 -10 79 -28 22 -85 24 -115 2z m80 -13
c6 -25 -7 -34 -40 -25 -17 4 -29 1 -34 -7 -7 -10 -9 -9 -9 5 0 10 8 17 20 17
11 0 20 7 20 15 0 22 37 18 43 -5z m17 -70 c0 -28 -2 -30 -40 -30 -38 0 -40 2
-40 30 0 28 2 30 40 30 38 0 40 -2 40 -30z"/>
<path d="M1380 1649 c0 -31 0 -31 -47 -27 l-48 3 -3 -247 -2 -248 180 0 180 0
-2 248 -3 247 -47 -3 c-48 -4 -48 -4 -48 27 l0 31 -80 0 -80 0 0 -31z m140
-14 c0 -24 -3 -25 -60 -25 -57 0 -60 1 -60 25 0 24 3 25 60 25 57 0 60 -1 60
-25z m-192 -257 c-2 -166 -6 -222 -15 -226 -10 -3 -13 46 -13 222 0 196 2 226
15 226 13 0 15 -29 13 -222z m240 196 c3 -15 1 -17 -9 -6 -16 15 -185 17 -194
2 -9 -14 -25 -3 -19 13 3 9 35 12 112 11 97 0 107 -2 110 -20z m52 -200 c0
-176 -3 -225 -12 -222 -10 4 -14 60 -16 226 -2 193 0 222 13 222 13 0 15 -30
15 -226z m-230 106 c0 -44 3 -81 8 -81 29 -6 112 -5 121 1 9 5 12 31 9 84 -2
56 0 76 10 76 9 0 12 -44 12 -185 l0 -185 -90 0 -90 0 0 185 c0 117 4 185 10
185 6 0 10 -33 10 -80z m118 8 l-3 -73 -47 -3 -48 -3 0 75 0 76 50 0 51 0 -3
-72z m60 -309 c-3 -20 -10 -21 -110 -23 -68 -1 -108 2 -108 9 0 6 36 9 100 7
84 -3 101 -1 106 12 9 23 16 20 12 -5z"/>
<path d="M1394 1367 c-3 -8 -4 -41 -2 -73 l3 -59 65 0 65 0 0 70 0 70 -63 3
c-46 2 -64 -1 -68 -11z m114 -59 l-3 -53 -47 -3 -48 -3 0 55 0 56 51 0 50 0
-3 -52z"/>
<path d="M1653 1090 c-57 -34 -34 -100 35 -100 38 0 62 23 62 60 0 22 -7 33
-30 45 -35 18 -29 19 -67 -5z m76 -28 c14 -26 -5 -52 -39 -52 -34 0 -53 26
-39 52 6 11 21 18 39 18 18 0 33 -7 39 -18z"/>
<path d="M1170 786 c0 -40 4 -55 16 -60 31 -12 231 -7 241 7 8 10 10 46 4 95
-1 9 -34 12 -131 12 l-130 0 0 -54z m240 -1 l0 -35 -100 0 c-55 0 -103 -1
-107 -2 -5 -2 -9 14 -11 35 l-3 37 110 0 111 0 0 -35z"/>
<path d="M1487 834 c-12 -12 -8 -89 5 -102 13 -13 193 -17 236 -6 21 6 23 12
20 58 l-3 51 -126 3 c-69 1 -128 -1 -132 -4z m240 -50 l-2 -37 -105 1 -105 1
-3 35 -3 36 110 0 110 0 -2 -36z"/>
<path d="M535 5000 c-8 -14 3 -30 21 -30 8 0 14 9 14 20 0 21 -24 28 -35 10z"/>
<path d="M2350 4990 c0 -13 7 -20 20 -20 13 0 20 7 20 20 0 13 -7 20 -20 20
-13 0 -20 -7 -20 -20z"/>
<path d="M480 4826 c0 -21 5 -26 26 -26 21 0 25 4 22 23 -2 14 -11 23 -25 25
-19 3 -23 -1 -23 -22z"/>
<path d="M2390 4826 c0 -34 46 -43 53 -10 5 29 0 34 -30 34 -18 0 -23 -6 -23
-24z"/>
<path d="M480 4729 c0 -24 4 -30 17 -27 22 4 30 38 11 49 -22 15 -28 10 -28
-22z"/>
<path d="M2404 4745 c-9 -21 3 -45 21 -45 10 0 15 10 15 30 0 32 -26 43 -36
15z"/>
<path d="M480 4640 c0 -26 4 -30 26 -30 22 0 25 4 22 27 -2 18 -10 27 -25 29
-20 3 -23 -1 -23 -26z"/>
<path d="M2395 4662 c-3 -3 -5 -16 -5 -29 0 -21 4 -24 27 -21 22 2 28 8 27 28
0 19 -5 25 -21 26 -13 1 -25 -1 -28 -4z"/>
<path d="M420 4561 c0 -29 14 -49 23 -34 8 12 -4 63 -14 63 -5 0 -9 -13 -9
-29z"/>
<path d="M2474 4560 c2 -41 20 -43 24 -2 2 23 -1 32 -11 32 -10 0 -14 -10 -13
-30z"/>
<path d="M420 4356 c0 -15 7 -26 19 -29 25 -6 31 0 31 30 0 18 -5 23 -25 23
-20 0 -25 -5 -25 -24z"/>
<path d="M2450 4357 c0 -30 6 -36 31 -30 12 3 19 14 19 29 0 19 -5 24 -25 24
-20 0 -25 -5 -25 -23z"/>
<path d="M484 4286 c-7 -20 2 -46 16 -46 13 0 13 47 0 55 -6 3 -13 -1 -16 -9z"/>
<path d="M2417 4293 c-11 -10 -8 -53 3 -53 6 0 10 14 10 30 0 31 -2 35 -13 23z"/>
<path d="M480 4195 c0 -16 6 -25 15 -25 9 0 15 9 15 25 0 16 -6 25 -15 25 -9
0 -15 -9 -15 -25z"/>
<path d="M412 4013 c5 -26 38 -29 38 -4 0 15 -6 21 -21 21 -14 0 -19 -5 -17
-17z"/>
<path d="M2470 4010 c0 -15 5 -20 18 -18 9 2 17 10 17 18 0 8 -8 16 -17 18
-13 2 -18 -3 -18 -18z"/>
<path d="M412 3943 c2 -10 10 -18 18 -18 8 0 16 8 18 18 2 12 -3 17 -18 17
-15 0 -20 -5 -18 -17z"/>
<path d="M2472 3943 c2 -10 10 -18 18 -18 8 0 16 8 18 18 2 12 -3 17 -18 17
-15 0 -20 -5 -18 -17z"/>
<path d="M442 1688 c5 -34 38 -37 38 -4 0 20 -5 26 -21 26 -15 0 -20 -5 -17
-22z"/>
<path d="M2440 1685 c0 -18 5 -25 20 -25 15 0 20 7 20 25 0 18 -5 25 -20 25
-15 0 -20 -7 -20 -25z"/>
<path d="M2473 1413 c-7 -3 -13 -16 -13 -29 0 -20 5 -24 30 -24 25 0 30 4 30
24 0 24 -22 37 -47 29z"/>
<path d="M402 1388 c2 -15 11 -24 26 -26 18 -3 22 1 22 22 0 21 -5 26 -26 26
-21 0 -25 -4 -22 -22z"/>
<path d="M402 1298 c2 -15 11 -24 26 -26 18 -3 22 1 22 22 0 21 -5 26 -26 26
-21 0 -25 -4 -22 -22z"/>
<path d="M2460 1295 c0 -21 5 -25 29 -25 24 0 29 4 29 25 0 21 -5 25 -29 25
-24 0 -29 -4 -29 -25z"/>
<path d="M403 1203 c2 -21 8 -29 25 -31 19 -3 22 1 22 27 0 26 -4 31 -24 31
-21 0 -24 -4 -23 -27z"/>
<path d="M2462 1203 c2 -22 8 -28 27 -28 19 0 25 6 28 28 3 24 1 27 -27 27
-28 0 -31 -3 -28 -27z"/>
<path d="M403 1110 c0 -25 4 -30 24 -30 19 0 23 5 23 30 0 25 -4 30 -23 30
-20 0 -24 -5 -24 -30z"/>
<path d="M2466 1133 c-3 -4 -6 -17 -6 -30 0 -19 5 -23 31 -23 24 0 30 3 25 16
-3 9 -6 21 -6 28 0 12 -34 19 -44 9z"/>
<path d="M408 845 c-2 -3 -3 -18 0 -34 3 -22 9 -28 28 -28 21 0 24 4 24 33 0
29 -3 34 -23 34 -13 0 -26 -2 -29 -5z"/>
<path d="M2460 825 c0 -14 0 -28 0 -32 0 -5 11 -9 25 -10 22 -2 25 2 25 33 0
30 -3 34 -25 34 -20 0 -25 -5 -25 -25z"/>
<path d="M410 704 c0 -30 3 -34 25 -34 22 0 25 4 25 34 0 29 -3 34 -25 34 -22
0 -25 -5 -25 -34z"/>
<path d="M2460 704 c0 -30 3 -34 25 -34 22 0 25 4 25 34 0 29 -3 34 -25 34
-22 0 -25 -5 -25 -34z"/>
</g>
</svg>
