 <svg  version="1.0" xmlns="http://www.w3.org/2000/svg"  width="200.000000pt" height="600.000000pt" viewBox="0 0 200.000000 600.000000"  preserveAspectRatio="xMidYMid meet">  <g transform="translate(0.000000,600.000000) scale(0.100000,-0.100000)" fill="#2fd1ed" stroke="none"> <path d="M474 5931 c3 -4 1 -23 -5 -42 -5 -19 -14 -54 -19 -79 -9 -48 -29 -146 -80 -380 -17 -80 -38 -179 -47 -220 -8 -41 -19 -91 -23 -110 -34 -147 -40 -186 -40 -267 0 -50 -5 -95 -10 -98 -15 -10 -12 -28 4 -22 8 3 26 -3 41 -15 14 -11 29 -17 33 -13 4 4 -6 17 -21 29 -28 23 -28 23 -24 117 5 88 14 159 22 168 2 2 7 -8 11 -23 3 -14 10 -26 15 -26 12 0 12 17 0 24 -23 14 -19 74 15 224 19 86 46 209 58 272 21 100 51 240 87 402 l11 47 249 1 248 0 15 -52 c7 -29 21 -87 30 -128 8 -41 24 -118 35 -170 11 -52 30 -142 42 -200 11 -58 27 -127 34 -155 31 -115 39 -185 27 -217 -6 -18 -9 -34 -6 -37 2 -3 7 5 11 17 9 35 20 26 27 -24 9 -66 8 -74 -9 -74 -8 0 -15 -5 -15 -10 0 -6 7 -10 16 -8 14 3 17 -7 17 -64 0 -38 -3 -68 -6 -68 -11 0 -49 -41 -43 -47 2 -3 18 4 34 16 16 11 32 18 35 15 11 -11 28 7 18 19 -5 7 -11 57 -14 112 -3 55 -16 152 -30 215 -28 124 -98 449 -123 570 -9 41 -22 102 -29 135 -8 33 -19 86 -26 118 l-12 57 -279 0 c-154 0 -277 -4 -274 -9z"/> <path d="M715 5749 c-13 -20 -14 -173 -2 -188 10 -12 7 -13 -16 -9 -19 4 -30 1 -34 -8 -3 -8 -11 -14 -19 -14 -23 0 -16 -19 9 -25 12 -3 68 -4 123 -2 l102 2 11 -31 c6 -17 11 -74 11 -127 l0 -97 -37 0 c-26 0 -34 -3 -26 -11 7 -7 23 -7 53 1 28 8 39 14 31 20 -17 10 -10 45 9 45 10 0 14 -8 13 -23 -2 -13 1 -21 7 -17 16 10 12 33 -8 47 -12 9 -18 28 -20 61 -2 69 -19 123 -46 152 -27 29 -36 31 -36 10 0 -18 -30 -20 -31 -2 -1 6 0 27 1 45 1 19 -3 32 -10 32 -10 0 -9 4 0 15 10 12 10 18 0 30 -7 8 -9 15 -6 15 4 0 2 9 -4 19 -7 14 -6 21 3 24 9 4 8 6 -2 6 -11 1 -11 4 0 18 12 14 12 16 -1 11 -12 -4 -15 -23 -16 -84 -1 -132 -3 -144 -19 -144 -8 0 -16 5 -16 10 -5 35 -7 75 -9 148 -1 45 -4 82 -6 82 -1 0 -6 -5 -9 -11z m-15 -229 c0 -5 -9 -10 -21 -10 -11 0 -17 5 -14 10 3 6 13 10 21 10 8 0 14 -4 14 -10z"/> <path d="M846 5607 c3 -10 9 -15 12 -12 3 3 0 11 -7 18 -10 9 -11 8 -5 -6z"/> <path d="M646 5595 c-3 -8 -1 -15 4 -15 6 0 10 7 10 15 0 8 -2 15 -4 15 -2 0 -6 -7 -10 -15z"/> <path d="M599 5478 c-6 -12 -12 -50 -13 -84 0 -34 -4 -66 -8 -70 -8 -7 9 -34 22 -34 4 0 5 32 3 70 -2 49 1 80 12 100 18 34 18 40 5 40 -5 0 -15 -10 -21 -22z"/> <path d="M710 5295 c0 -8 5 -15 10 -15 6 0 10 7 10 15 0 8 -4 15 -10 15 -5 0 -10 -7 -10 -15z"/> <path d="M775 5299 c-9 -14 -2 -20 14 -10 8 6 9 11 3 15 -6 3 -14 1 -17 -5z"/> <path d="M410 5298 c1 -18 31 -83 39 -86 10 -3 6 18 -8 43 -6 10 -7 16 -10 35 -1 8 -21 16 -21 8z"/> <path d="M540 5286 c0 -9 5 -16 10 -16 6 0 10 4 10 9 0 6 -4 13 -10 16 -5 3 -10 -1 -10 -9z"/> <path d="M1066 5266 c-18 -38 -20 -56 -7 -56 5 0 12 13 16 30 4 16 11 32 16 35 12 8 12 25 0 25 -5 0 -16 -15 -25 -34z"/> <path d="M575 5250 c-2 -4 9 -10 26 -14 47 -9 71 -7 67 5 -4 13 -86 21 -93 9z"/> <path d="M690 5240 c0 -5 9 -10 21 -10 11 0 19 -5 17 -11 -2 -6 -7 -10 -12 -9 -13 2 -28 -28 -21 -40 3 -6 15 -10 26 -10 16 0 19 7 19 45 0 41 -2 45 -25 45 -14 0 -25 -4 -25 -10z"/> <path d="M763 5238 c2 -7 11 -12 21 -10 9 2 16 -4 16 -12 0 -18 -20 -32 -20 -14 0 7 -5 5 -11 -6 -9 -14 -8 -20 2 -27 29 -18 39 -9 39 36 0 42 -2 45 -26 45 -16 0 -24 -5 -21 -12z"/> <path d="M840 5198 c0 -23 4 -27 23 -26 12 1 32 -2 45 -6 12 -4 22 -3 22 2 0 12 -24 22 -50 22 -11 0 -24 8 -29 18 -9 14 -10 13 -11 -10z"/> <path d="M617 5190 c-41 -8 -54 -16 -43 -27 4 -4 16 -2 27 5 13 9 25 9 38 3 10 -6 21 -7 25 -4 9 9 8 33 -1 32 -5 -1 -25 -5 -46 -9z"/> <path d="M450 5175 c0 -8 7 -15 15 -15 8 0 15 7 15 15 0 8 -7 15 -15 15 -8 0 -15 -7 -15 -15z"/> <path d="M1030 5174 c0 -17 22 -14 28 4 2 7 -3 12 -12 12 -9 0 -16 -7 -16 -16z"/> <path d="M350 5179 c0 -19 33 -98 40 -94 9 6 -12 71 -28 87 -7 7 -12 10 -12 7z"/> <path d="M508 5155 c5 -27 27 -34 36 -10 3 8 -3 19 -14 25 -26 14 -28 13 -22 -15z"/> <path d="M974 5168 c-20 -9 -21 -12 -7 -39 8 -16 20 -29 26 -29 7 0 22 -3 35 -6 13 -4 22 -2 22 5 0 6 -14 11 -31 11 -31 0 -31 1 -26 35 3 19 5 35 4 34 -1 0 -12 -5 -23 -11z"/> <path d="M1125 5137 c-17 -41 -19 -57 -7 -57 11 0 36 80 28 88 -3 3 -13 -11 -21 -31z"/> <path d="M1081 5139 c-13 -11 -21 -23 -17 -26 4 -4 16 3 28 15 28 28 20 36 -11 11z"/> <path d="M700 5140 c0 -5 5 -10 10 -10 6 0 10 -7 10 -15 0 -11 -8 -13 -30 -8 -23 4 -30 2 -30 -11 0 -9 -4 -16 -10 -16 -5 0 -7 -7 -4 -15 4 -8 16 -14 28 -14 16 1 17 2 4 6 -10 2 -18 9 -18 14 0 13 38 11 42 -2 5 -16 136 -22 157 -7 17 12 17 14 -1 43 -15 23 -19 26 -17 10 3 -35 -1 -45 -16 -45 -10 0 -15 11 -15 35 0 23 -5 35 -14 35 -15 0 -26 -21 -26 -51 0 -10 -6 -19 -14 -19 -16 0 -29 27 -20 41 6 11 -13 39 -27 39 -5 0 -9 -4 -9 -10z"/> <path d="M410 5130 c0 -13 18 -22 24 -11 3 5 -1 11 -9 15 -8 3 -15 1 -15 -4z"/> <path d="M473 5110 c-13 -5 -23 -12 -23 -15 0 -9 63 5 75 16 12 12 -23 11 -52 -1z"/> <path d="M579 5085 c-4 -5 -7 -48 -8 -95 l-1 -85 -58 -52 c-31 -29 -76 -67 -99 -85 -44 -34 -48 -45 -20 -62 20 -13 37 2 17 15 -13 8 -13 11 1 22 21 16 126 107 150 130 25 22 32 22 24 -3 -4 -13 -2 -20 7 -20 11 0 13 16 10 68 -3 51 0 77 13 101 9 18 13 36 9 39 -4 4 -9 1 -11 -5 -8 -22 -22 -14 -25 15 -2 15 -6 23 -9 17z"/> <path d="M918 5084 c-5 -4 -9 -19 -9 -33 -1 -17 -3 -20 -6 -8 -2 9 -9 17 -15 17 -6 0 -7 -8 -2 -22 4 -13 9 -63 10 -113 2 -49 3 -98 3 -107 1 -10 9 -18 18 -18 13 0 14 3 5 12 -19 19 -14 45 8 51 29 7 181 -120 174 -145 -6 -21 9 -24 25 -4 9 11 -1 23 -46 62 -32 26 -65 55 -74 63 -8 9 -29 28 -47 43 -30 25 -31 29 -34 118 -2 50 -6 88 -10 84z m17 -204 c3 -5 -1 -10 -9 -10 -9 0 -16 5 -16 10 0 6 4 10 9 10 6 0 13 -4 16 -10z"/> <path d="M386 5061 c-3 -5 1 -14 8 -20 16 -13 32 2 21 19 -8 12 -22 13 -29 1z"/> <path d="M1090 5050 c0 -13 5 -20 13 -17 6 2 12 10 12 17 0 7 -6 15 -12 18 -8 2 -13 -5 -13 -18z"/> <path d="M444 5044 c3 -9 6 -22 6 -30 0 -21 27 -17 33 6 4 15 0 20 -15 20 -10 0 -16 5 -13 10 3 6 1 10 -5 10 -7 0 -9 -7 -6 -16z"/> <path d="M1036 5034 c-10 -27 20 -64 52 -63 26 1 26 1 -6 12 -29 9 -32 13 -27 39 7 30 -8 39 -19 12z"/> <path d="M340 5022 c0 -15 18 -34 29 -31 7 3 3 11 -9 21 -11 10 -20 14 -20 10z"/> <path d="M1125 5001 c-6 -11 9 -23 19 -14 9 9 7 23 -3 23 -6 0 -12 -4 -16 -9z"/> <path d="M405 4980 c-17 -7 -15 -9 12 -9 17 -1 35 4 38 9 7 12 -22 12 -50 0z"/> <path d="M330 4926 c0 -9 7 -16 16 -16 9 0 14 5 12 12 -6 18 -28 21 -28 4z"/> <path d="M1150 4925 c0 -8 7 -15 15 -15 8 0 15 7 15 15 0 8 -7 15 -15 15 -8 0 -15 -7 -15 -15z"/> <path d="M389 4912 c-1 -4 0 -17 1 -29 1 -18 -4 -23 -24 -23 -14 0 -28 -4 -31 -10 -7 -12 34 -13 51 -2 10 7 34 45 34 55 0 8 -30 17 -31 9z"/> <path d="M1090 4905 c-9 -11 -7 -19 14 -40 14 -14 34 -25 46 -25 30 0 24 18 -7 22 -24 2 -28 7 -26 31 2 30 -8 35 -27 12z"/> <path d="M720 4900 c0 -5 14 -10 30 -10 17 0 30 5 30 10 0 6 -13 10 -30 10 -16 0 -30 -4 -30 -10z"/> <path d="M690 4884 c0 -18 35 -44 61 -44 28 0 69 26 69 43 0 7 -4 6 -10 -3 -6 -10 -25 -15 -55 -15 -30 0 -49 5 -55 15 -5 8 -10 10 -10 4z"/> <path d="M570 4799 c0 -5 7 -9 16 -9 8 0 12 -5 8 -11 -5 -8 -1 -8 14 0 34 18 257 14 295 -5 l32 -16 -23 23 c-22 23 -29 24 -182 26 -96 1 -160 -2 -160 -8z"/> <path d="M694 4764 c-18 -15 -18 -15 3 -5 43 21 114 9 135 -23 36 -54 -50 -118 -119 -90 -17 8 -36 22 -42 31 -9 16 -10 16 -11 2 0 -23 18 -36 72 -50 40 -11 49 -10 72 4 14 9 34 17 45 17 21 0 45 -32 34 -44 -3 -3 -1 -6 5 -6 7 0 12 6 12 14 0 16 -27 46 -41 46 -5 0 -9 16 -7 36 2 30 -3 41 -27 60 -35 28 -101 32 -131 8z"/> <path d="M604 4752 c-13 -8 -35 -132 -33 -189 1 -21 8 9 15 65 7 57 18 110 25 118 13 15 10 18 -7 6z"/> <path d="M440 4740 c0 -6 11 -16 25 -22 26 -12 34 -38 12 -38 -7 0 -18 5 -25 12 -8 8 -15 9 -22 2 -7 -7 -2 -15 15 -24 22 -12 27 -11 45 5 19 17 19 19 3 38 -24 26 -53 41 -53 27z"/> <path d="M911 4692 c4 -31 8 -81 8 -109 1 -32 5 -53 12 -53 8 0 10 14 5 43 -3 23 -9 70 -12 105 -4 34 -10 64 -13 67 -4 2 -4 -22 0 -53z"/> <path d="M1043 4737 c-12 -6 -26 -21 -32 -33 -8 -18 -5 -23 15 -33 28 -12 69 2 58 20 -4 7 -10 7 -17 0 -12 -12 -47 -15 -47 -4 0 3 15 19 33 34 33 29 29 35 -10 16z"/> <path d="M656 4724 c-4 -9 -4 -19 -1 -22 2 -3 7 3 11 12 4 9 4 19 1 22 -2 3 -7 -3 -11 -12z"/> <path d="M702 4728 c-13 -13 21 -48 48 -48 18 0 67 37 58 45 -1 1 -16 5 -33 7 -16 3 -24 3 -17 1 15 -6 16 -20 0 -29 -6 -4 -19 2 -28 14 -12 14 -20 18 -28 10z"/> <path d="M340 4699 c0 -5 5 -7 10 -4 6 3 10 8 10 11 0 2 -4 4 -10 4 -5 0 -10 -5 -10 -11z"/> <path d="M253 4674 c-10 -21 -9 -24 7 -24 10 0 23 -7 30 -15 7 -8 18 -15 25 -15 10 0 11 5 2 24 -6 13 -17 21 -24 19 -7 -3 -13 2 -13 10 0 26 -15 27 -27 1z"/> <path d="M1214 4676 c-27 -28 -36 -54 -21 -62 7 -4 9 -3 4 1 -11 13 24 45 50 45 21 0 22 2 11 20 -15 24 -17 24 -44 -4z"/> <path d="M376 4652 c14 -41 4 -64 -24 -56 -9 3 1 -4 22 -15 43 -23 57 -21 36 5 -12 13 -11 17 1 25 10 6 11 9 1 9 -8 0 -12 10 -10 26 2 19 -3 28 -18 34 -20 8 -21 7 -8 -28z"/> <path d="M1112 4668 c-10 -14 -10 -47 1 -65 4 -7 0 -16 -9 -21 -11 -6 -13 -11 -5 -16 6 -4 23 2 37 13 18 14 22 21 11 21 -20 0 -29 27 -17 50 6 10 10 21 10 24 0 11 -17 6 -28 -6z"/> <path d="M1227 4633 c-2 -5 -4 -248 -3 -542 1 -418 4 -535 14 -538 9 -4 12 109 12 541 0 495 -3 573 -23 539z"/> <path d="M256 4557 c1 -39 2 -283 3 -542 1 -334 4 -466 12 -458 11 11 15 935 4 953 -3 5 -1 28 6 49 9 32 9 44 -1 56 -21 26 -25 17 -24 -58z"/> <path d="M442 4600 c2 -6 19 -21 38 -32 l35 -22 -20 23 c-24 28 -59 48 -53 31z"/> <path d="M752 4603 c-12 -2 -20 -9 -16 -14 3 -5 21 -7 40 -3 32 6 44 -3 27 -20 -10 -10 -13 -36 -3 -36 4 0 10 9 13 20 3 13 14 20 30 20 39 0 42 17 4 23 -17 3 -41 7 -52 10 -11 2 -30 3 -43 0z"/> <path d="M1036 4589 c-14 -11 -26 -26 -26 -32 0 -8 3 -8 8 -2 4 6 19 16 35 24 15 8 27 18 27 23 0 14 -16 9 -44 -13z"/> <path d="M694 4554 c3 -9 6 -19 6 -22 0 -9 20 21 20 31 0 4 -7 7 -16 7 -11 0 -14 -5 -10 -16z"/> <path d="M318 4553 c-42 -6 -33 -25 10 -21 49 4 51 -22 3 -38 -29 -9 -31 -12 -13 -16 11 -3 35 3 54 14 44 27 42 25 26 41 -18 18 -45 25 -80 20z"/> <path d="M426 4551 c-7 -11 18 -21 52 -21 26 1 26 1 -7 15 -39 18 -38 17 -45 6z"/> <path d="M1046 4545 c-11 -8 -14 -15 -8 -15 7 0 12 -8 13 -17 0 -14 2 -15 6 -3 3 8 12 19 19 23 8 4 14 12 14 17 0 14 -22 12 -44 -5z"/> <path d="M1130 4542 l-24 -19 0 -512 c-1 -336 2 -510 9 -508 6 3 10 176 10 495 l0 491 25 -5 c24 -5 24 -5 6 10 -27 22 -14 44 23 38 19 -2 31 0 31 7 0 6 -6 11 -14 11 -8 0 -21 2 -29 5 -7 3 -24 -3 -37 -13z"/> <path d="M740 4520 c20 -13 33 -13 25 0 -3 6 -14 10 -23 10 -15 0 -15 -2 -2 -10z"/> <path d="M380 4473 c-1 -10 -1 -232 -1 -493 -1 -346 2 -475 11 -478 7 -3 11 11 10 40 -1 23 -1 104 -1 178 0 74 -1 150 -3 168 -1 18 1 35 6 38 5 3 6 10 3 15 -4 5 -6 130 -6 279 0 162 -4 270 -10 270 -5 0 -9 -8 -9 -17z"/> <path d="M515 4480 c-3 -5 -2 -10 4 -10 5 0 13 5 16 10 3 6 2 10 -4 10 -5 0 -13 -4 -16 -10z"/> <path d="M554 4478 c-4 -5 -1 -15 5 -21 8 -8 11 -8 11 0 0 7 10 13 23 15 20 3 19 4 -6 9 -15 4 -30 2 -33 -3z"/> <path d="M630 4445 c0 -25 5 -45 10 -45 6 0 10 20 10 45 0 25 -4 45 -10 45 -5 0 -10 -20 -10 -45z"/> <path d="M700 4480 c0 -5 25 -10 55 -10 30 0 55 5 55 10 0 6 -25 10 -55 10 -30 0 -55 -4 -55 -10z"/> <path d="M857 4483 c-11 -10 -8 -83 3 -83 6 0 10 20 10 45 0 46 -2 50 -13 38z"/> <path d="M915 4480 c-17 -6 -17 -7 5 -13 13 -3 30 -2 38 2 12 7 11 9 -5 13 -10 3 -27 2 -38 -2z"/> <path d="M452 4468 c-12 -6 -25 -22 -28 -35 -15 -57 42 -101 88 -69 29 21 35 20 43 -4 9 -27 33 -50 53 -50 13 1 10 6 -10 21 -35 26 -35 33 -2 48 15 6 24 15 20 18 -3 4 -12 1 -18 -5 -19 -19 -28 -14 -28 17 0 21 -6 30 -21 34 -27 7 -79 -2 -79 -14 0 -13 44 -11 58 3 9 9 12 8 12 -6 0 -20 -36 -56 -56 -56 -19 0 -44 29 -44 50 0 10 15 27 33 39 33 22 19 28 -21 9z"/> <path d="M1000 4474 c54 -23 67 -77 24 -96 -22 -10 -28 -10 -39 5 -7 9 -17 17 -24 17 -6 0 -11 6 -11 14 0 11 9 13 35 9 44 -7 47 12 4 21 -41 8 -59 -7 -57 -49 1 -32 3 -33 30 -28 17 3 28 1 28 -6 0 -6 -4 -11 -10 -11 -6 0 -10 -40 -9 -102 0 -67 3 -96 9 -83 5 11 9 57 9 103 1 73 3 82 20 82 26 0 71 38 71 59 0 27 -32 59 -66 65 -16 4 -22 3 -14 0z"/> <path d="M670 4445 c0 -8 5 -15 10 -15 6 0 10 7 10 15 0 8 -4 15 -10 15 -5 0 -10 -7 -10 -15z"/> <path d="M820 4431 c0 -42 14 -46 17 -5 2 19 -2 34 -7 34 -6 0 -10 -13 -10 -29z"/> <path d="M1158 4443 c6 -2 18 -2 25 0 6 3 1 5 -13 5 -14 0 -19 -2 -12 -5z"/> <path d="M900 4390 c0 -5 5 -10 11 -10 5 0 7 5 4 10 -3 6 -8 10 -11 10 -2 0 -4 -4 -4 -10z"/> <path d="M712 4373 c-27 -10 -104 -96 -112 -123 -7 -23 -5 -29 11 -33 10 -3 19 -1 19 4 0 5 -4 9 -10 9 -24 0 -7 38 25 56 19 10 35 24 35 31 0 45 116 53 139 9 7 -11 25 -29 41 -38 31 -17 41 -53 18 -61 -7 -2 -10 -7 -7 -11 3 -3 13 -4 21 -1 29 11 8 60 -48 114 -43 41 -60 51 -86 50 -18 0 -39 -3 -46 -6z"/> <path d="M616 4355 c-3 -8 -1 -15 4 -15 6 0 10 7 10 15 0 8 -2 15 -4 15 -2 0 -6 -7 -10 -15z"/> <path d="M840 4361 c0 -9 24 -21 41 -21 5 0 9 7 9 16 0 14 -3 14 -15 4 -10 -9 -15 -9 -15 -1 0 6 -4 11 -10 11 -5 0 -10 -4 -10 -9z"/> <path d="M518 4276 c6 -102 -1 -126 -37 -126 -63 0 -84 -76 -30 -109 18 -11 38 -17 45 -14 23 8 16 21 -12 25 -34 4 -53 31 -38 55 11 17 21 24 67 42 l28 11 -3 92 c-2 55 -7 93 -14 95 -8 3 -10 -19 -6 -71z"/> <path d="M900 4330 c-14 -11 -19 -20 -12 -20 19 0 52 19 52 30 0 15 -12 12 -40 -10z"/> <path d="M433 4303 c20 -5 23 -23 3 -23 -8 0 -13 -10 -13 -25 0 -15 5 -25 13 -25 8 0 14 -7 14 -15 0 -8 -7 -15 -17 -15 -9 0 -14 -2 -11 -5 3 -4 18 -3 32 1 25 6 26 8 11 23 -20 23 -19 50 1 58 15 6 15 8 -2 20 -10 7 -25 12 -33 12 -13 -1 -12 -2 2 -6z"/> <path d="M1034 4295 c-17 -13 -17 -14 -1 -15 22 0 23 -39 0 -55 -15 -11 -15 -13 6 -24 12 -7 27 -10 34 -7 7 2 4 5 -5 5 -22 1 -24 31 -3 31 9 0 15 9 15 25 0 16 -6 25 -15 25 -21 0 -19 18 3 23 13 4 14 5 1 6 -8 0 -24 -6 -35 -14z"/> <path d="M715 4260 c3 -5 8 -10 11 -10 2 0 4 5 4 10 0 6 -5 10 -11 10 -5 0 -7 -4 -4 -10z"/> <path d="M650 4248 c0 -9 5 -20 11 -23 17 -11 20 0 4 21 -13 17 -14 17 -15 2z"/> <path d="M832 4240 c-10 -17 -10 -20 3 -20 8 0 15 9 15 20 0 11 -1 20 -3 20 -1 0 -8 -9 -15 -20z"/> <path d="M718 4233 c-22 -5 -22 -10 -4 -28 12 -12 15 -11 19 5 6 24 35 27 43 5 5 -12 9 -13 21 -4 26 22 -25 36 -79 22z"/> <path d="M610 4190 c-8 -5 -12 -11 -9 -14 3 -3 14 1 25 9 21 16 8 20 -16 5z"/> <path d="M870 4190 c0 -12 28 -21 35 -11 2 5 -4 11 -15 14 -11 3 -20 2 -20 -3z"/> <path d="M655 4180 c-3 -6 1 -7 9 -4 18 7 21 14 7 14 -6 0 -13 -4 -16 -10z"/> <path d="M740 4180 c0 -5 -7 -10 -15 -10 -9 0 -27 -11 -40 -25 -20 -19 -25 -34 -24 -72 l1 -48 17 54 c13 39 25 58 45 68 53 28 116 -7 116 -64 0 -18 5 -33 10 -33 6 0 10 17 10 38 0 41 -31 82 -63 82 -9 0 -19 5 -22 10 -3 6 -13 10 -21 10 -8 0 -14 -4 -14 -10z"/> <path d="M1023 4132 c42 -26 32 -82 -15 -82 -10 0 -18 -4 -18 -10 0 -5 10 -10 23 -10 26 0 67 38 67 61 0 21 -42 59 -66 59 -16 0 -14 -3 9 -18z"/> <path d="M498 4123 c-16 -2 -28 -9 -28 -14 0 -13 44 -11 58 3 9 9 12 7 12 -10 0 -12 -4 -22 -10 -22 -5 0 -10 -7 -10 -15 0 -21 12 -19 33 6 17 20 18 22 1 40 -9 10 -20 18 -23 18 -3 -1 -18 -4 -33 -6z"/> <path d="M939 4107 c-19 -18 -19 -20 -3 -38 9 -10 24 -19 32 -19 13 0 13 3 -1 18 -27 30 -21 41 18 35 21 -3 35 -1 35 5 0 20 -59 19 -81 -1z"/> <path d="M615 4089 c-10 -15 3 -25 16 -12 7 7 7 13 1 17 -6 3 -14 1 -17 -5z"/> <path d="M718 4083 c-28 -32 -41 -64 -30 -75 12 -12 98 -14 130 -3 28 8 28 21 -4 62 -29 38 -71 45 -96 16z m76 -30 c8 -19 -9 -32 -33 -28 -9 2 -22 4 -29 4 -10 1 -10 6 -2 21 13 24 55 27 64 3z"/> <path d="M891 4034 c0 -11 3 -14 6 -6 3 7 2 16 -1 19 -3 4 -6 -2 -5 -13z"/> <path d="M517 3920 l2 -101 -27 -10 c-39 -15 -62 -39 -62 -65 0 -27 44 -64 74 -63 16 0 17 2 6 7 -62 28 -76 60 -38 86 29 20 30 20 63 -8 30 -26 27 -54 -4 -34 -21 13 -56 4 -46 -12 4 -6 10 -8 15 -5 5 3 19 1 29 -5 17 -9 23 -6 37 14 19 30 14 40 -29 63 -25 13 -28 18 -14 21 15 3 17 17 17 108 0 76 -3 104 -12 104 -10 0 -12 -26 -11 -100z"/> <path d="M969 4008 c-6 -92 -1 -192 9 -196 9 -3 12 25 12 102 0 64 -4 106 -10 106 -5 0 -10 -6 -11 -12z"/> <path d="M588 4003 c-34 -9 -32 -55 3 -74 27 -14 24 3 -3 20 l-22 14 23 18 c30 25 44 24 36 -1 -5 -15 -3 -18 9 -14 9 3 13 10 10 15 -3 5 3 9 13 9 15 0 16 2 3 10 -15 10 -42 11 -72 3z"/> <path d="M864 3998 c-4 -7 -3 -8 5 -4 6 4 24 0 38 -10 l27 -17 -22 -17 c-12 -10 -18 -20 -15 -24 10 -10 43 25 43 45 0 31 -60 53 -76 27z"/> <path d="M433 3973 c20 -5 23 -33 3 -33 -8 0 -13 -10 -13 -25 0 -14 5 -25 12 -25 8 0 15 -6 18 -12 4 -10 7 -10 17 -1 11 10 10 14 -3 19 -21 8 -22 30 -1 42 14 8 14 10 -1 25 -9 10 -24 16 -33 16 -15 -1 -15 -2 1 -6z"/> <path d="M870 3964 c0 -8 5 -12 10 -9 6 3 10 10 10 16 0 5 -4 9 -10 9 -5 0 -10 -7 -10 -16z"/> <path d="M1033 3946 c18 -14 23 -42 8 -48 -13 -4 -18 -32 -6 -33 6 0 15 -4 22 -8 6 -4 14 -3 18 3 3 5 -1 10 -9 10 -9 0 -16 5 -16 10 0 6 7 10 15 10 9 0 15 9 15 21 0 24 -26 48 -50 48 -12 0 -12 -2 3 -13z"/> <path d="M629 3865 c-2 -33 -2 -78 2 -100 l5 -40 13 27 c11 20 11 31 3 41 -9 10 -9 16 0 25 8 8 8 15 -1 26 -8 10 -9 16 -1 21 14 8 13 17 -4 40 -13 18 -14 14 -17 -40z"/> <path d="M854 3895 c-7 -13 -9 -27 -5 -30 3 -4 6 -32 6 -62 0 -36 4 -58 13 -60 9 -4 12 18 12 86 0 93 -6 109 -26 66z"/> <path d="M670 3900 c18 -11 149 -10 156 2 3 4 -34 8 -83 8 -59 0 -83 -3 -73 -10z"/> <path d="M420 3860 c0 -5 5 -10 10 -10 6 0 10 5 10 10 0 6 -4 10 -10 10 -5 0 -10 -4 -10 -10z"/> <path d="M680 3866 c0 -2 11 -6 25 -8 14 -3 25 -1 25 3 0 5 -11 9 -25 9 -14 0 -25 -2 -25 -4z"/> <path d="M785 3860 c-3 -5 3 -10 14 -10 12 0 21 5 21 10 0 6 -6 10 -14 10 -8 0 -18 -4 -21 -10z"/> <path d="M736 3842 c-3 -5 -3 -18 0 -30 8 -27 36 -17 32 11 -3 22 -23 34 -32 19z"/> <path d="M805 3820 c3 -5 8 -10 11 -10 2 0 4 5 4 10 0 6 -5 10 -11 10 -5 0 -7 -4 -4 -10z"/> <path d="M968 3784 c-21 -13 -38 -32 -38 -42 0 -22 32 -43 50 -32 7 4 19 6 27 3 7 -3 13 2 13 11 0 16 -24 18 -48 2 -19 -11 -28 2 -16 21 17 27 39 36 67 29 37 -9 36 -47 0 -77 l-28 -21 25 7 c26 7 60 40 60 57 0 12 -56 68 -67 67 -4 0 -25 -11 -45 -25z"/> <path d="M685 3790 c-4 -6 5 -9 19 -8 15 1 26 6 26 10 0 12 -38 10 -45 -2z"/> <path d="M793 3783 c9 -2 23 -2 30 0 6 3 -1 5 -18 5 -16 0 -22 -2 -12 -5z"/> <path d="M672 3751 c-24 -15 33 -19 59 -5 23 13 23 13 -11 13 -19 1 -41 -3 -48 -8z"/> <path d="M770 3750 c8 -5 29 -9 45 -9 26 0 27 2 10 9 -11 5 -31 9 -45 9 -20 1 -22 -1 -10 -9z"/> <path d="M661 3721 c-54 -4 -86 -10 -89 -18 -2 -7 1 -13 7 -13 6 0 11 5 11 10 0 14 117 13 126 -1 5 -8 10 -6 16 5 11 20 34 21 45 2 7 -12 10 -12 21 0 10 11 10 14 0 14 -7 0 -22 2 -33 3 -11 2 -58 1 -104 -2z"/> <path d="M865 3713 c22 -3 44 -9 50 -14 15 -15 28 -10 15 6 -8 10 -28 14 -59 13 l-46 -1 40 -4z"/> <path d="M615 3682 c-20 -20 26 -31 54 -13 9 6 4 10 -18 13 -17 3 -33 2 -36 0z"/> <path d="M865 3680 c-4 -6 -11 -8 -16 -5 -5 4 -9 1 -9 -4 0 -6 11 -11 25 -11 16 0 25 6 25 15 0 17 -16 20 -25 5z"/> <path d="M560 3670 c0 -11 33 -30 52 -30 7 0 2 9 -12 20 -28 22 -40 25 -40 10z"/> <path d="M691 3654 c-25 -20 -31 -33 -30 -62 l1 -37 11 32 c17 46 40 65 80 66 42 1 77 -25 77 -59 0 -13 5 -26 10 -29 6 -4 10 8 10 29 0 44 -46 86 -95 86 -21 0 -45 -9 -64 -26z"/> <path d="M905 3660 c-14 -16 -15 -20 -4 -20 16 0 39 19 39 32 0 14 -16 9 -35 -12z"/> <path d="M519 3648 c-1 -13 -1 -57 0 -98 1 -75 1 -75 -35 -106 -31 -25 -36 -35 -30 -57 13 -55 31 -58 302 -57 240 0 249 1 271 22 34 32 31 75 -7 96 l-30 17 0 96 c0 90 -4 114 -19 105 -12 -8 3 -219 17 -224 19 -6 42 -32 42 -48 0 -8 -8 -22 -18 -32 -17 -17 -40 -19 -258 -19 -259 -1 -274 2 -274 54 0 31 42 52 65 33 25 -21 18 -40 -15 -40 -16 0 -30 -4 -30 -10 0 -5 14 -10 30 -10 17 0 30 5 30 12 0 6 7 4 18 -5 10 -10 22 -17 26 -17 5 0 -2 8 -14 18 l-23 19 23 16 c13 9 21 20 17 23 -4 4 -13 1 -22 -6 -9 -7 -15 -8 -15 -2 0 6 -7 12 -16 14 -14 3 -16 19 -15 116 1 73 -2 112 -8 112 -6 0 -12 -10 -12 -22z"/> <path d="M630 3547 c0 -57 4 -97 10 -97 11 0 8 175 -3 186 -4 4 -7 -36 -7 -89z"/> <path d="M438 3623 c16 -6 16 -22 -1 -29 -18 -6 -19 -44 -1 -51 19 -7 18 -21 -3 -26 -14 -4 -14 -5 3 -6 12 0 27 6 34 14 9 11 9 15 1 15 -21 0 -24 30 -6 50 21 23 19 27 -15 33 -14 2 -19 2 -12 0z"/> <path d="M862 3540 c-2 -57 1 -90 8 -90 6 0 10 35 10 90 0 50 -4 90 -8 90 -4 0 -9 -40 -10 -90z"/> <path d="M1043 3623 c-15 -6 -17 -33 -3 -33 16 0 12 -40 -5 -46 -24 -10 -18 -20 20 -31 19 -6 33 -7 29 -2 -3 5 -12 9 -20 9 -8 0 -14 5 -14 10 0 6 7 10 15 10 9 0 15 9 15 25 0 14 -7 28 -15 31 -20 8 -19 21 3 27 11 3 12 5 2 5 -8 0 -21 -2 -27 -5z"/> <path d="M712 3584 c-12 -8 -22 -24 -22 -35 0 -10 -4 -19 -10 -19 -23 0 -7 -19 25 -30 37 -12 111 -5 121 11 8 14 -23 76 -42 83 -26 10 -48 7 -72 -10z m71 -32 c22 -24 13 -32 -35 -32 -42 0 -43 2 -26 30 16 25 40 26 61 2z"/> <path d="M306 3559 c-11 -11 -30 -19 -43 -19 -27 0 -27 0 -8 -36 15 -29 15 -29 21 -6 4 14 12 21 20 18 8 -3 13 -2 12 2 -1 4 4 18 11 30 16 30 11 34 -13 11z"/> <path d="M1180 3561 c0 -5 10 -17 23 -26 12 -8 23 -20 23 -25 1 -6 2 -14 3 -20 2 -16 18 -11 25 8 3 9 9 23 12 30 4 8 -3 12 -18 12 -13 0 -34 7 -46 16 -12 8 -22 11 -22 5z"/> <path d="M306 3489 c-11 -10 -30 -19 -43 -19 -13 0 -23 -4 -23 -10 0 -5 4 -10 9 -10 6 0 10 -137 10 -348 1 -347 3 -373 40 -532 24 -102 56 -251 81 -380 23 -113 58 -281 70 -330 5 -19 18 -78 29 -130 13 -60 27 -100 38 -107 12 -10 76 -13 238 -13 199 0 224 2 238 18 15 16 38 104 57 217 5 28 13 66 19 85 11 42 31 131 67 305 14 72 46 219 70 328 l44 199 0 343 c0 265 3 344 13 348 7 3 5 7 -8 12 -11 3 -28 11 -38 16 -26 14 -36 1 -13 -16 16 -12 19 -30 22 -122 3 -107 2 -108 -14 -73 -21 44 -21 44 -27 38 -3 -3 4 -27 16 -54 20 -45 22 -67 23 -269 1 -121 -2 -233 -6 -250 -5 -16 -15 -61 -23 -100 -8 -38 -21 -99 -30 -135 -8 -36 -23 -110 -34 -165 -11 -55 -29 -140 -40 -190 -11 -49 -25 -120 -31 -157 -5 -37 -15 -80 -22 -95 -6 -16 -10 -34 -9 -41 1 -7 -2 -28 -7 -45 -5 -18 -15 -59 -22 -92 -7 -33 -20 -66 -28 -72 -12 -10 -72 -13 -224 -13 -204 0 -208 0 -222 23 -8 12 -17 42 -21 67 -4 25 -18 92 -32 150 -41 180 -84 384 -87 415 -3 28 -42 204 -86 395 -28 117 -30 499 -3 552 9 18 20 41 25 51 5 11 7 22 3 25 -8 8 -25 -18 -25 -40 0 -9 -4 -19 -10 -23 -13 -8 -11 136 2 152 7 9 7 13 -1 13 -20 0 -12 36 14 58 14 12 25 26 25 32 0 13 -1 12 -24 -11z"/> <path d="M900 3435 c0 -4 8 -13 17 -20 15 -11 15 -15 4 -29 -7 -9 -23 -16 -34 -16 -11 0 -18 -3 -14 -6 13 -14 53 7 70 37 17 31 15 58 -3 29 -7 -11 -11 -11 -24 -1 -9 8 -16 10 -16 6z"/> <path d="M325 3420 c-3 -5 9 -11 25 -15 21 -5 30 -12 29 -23 0 -10 2 -27 6 -40 7 -21 8 -21 21 -5 16 21 18 53 4 53 -5 0 -7 7 -3 16 4 12 2 15 -8 12 -8 -3 -26 -1 -41 3 -15 4 -30 4 -33 -1z"/> <path d="M870 3406 c0 -9 5 -16 10 -16 6 0 10 4 10 9 0 6 -4 13 -10 16 -5 3 -10 -1 -10 -9z"/> <path d="M1097 3388 c-10 -24 -11 -38 -3 -50 14 -23 30 -23 22 -1 -4 9 -1 20 6 24 10 7 10 11 0 21 -16 16 -16 29 1 23 6 -3 26 -1 42 4 29 9 29 9 -12 10 -39 1 -44 -2 -56 -31z"/> <path d="M620 3400 c0 -5 5 -10 10 -10 6 0 10 5 10 10 0 6 -4 10 -10 10 -5 0 -10 -4 -10 -10z"/> <path d="M702 3388 c-9 -4 11 -7 46 -7 34 -1 62 2 62 7 0 9 -85 9 -108 0z"/> <path d="M830 3392 c0 -5 7 -13 16 -16 10 -4 14 -1 12 6 -5 15 -28 23 -28 10z"/> <path d="M950 3380 c0 -5 11 -10 25 -10 14 0 25 5 25 10 0 6 -11 10 -25 10 -14 0 -25 -4 -25 -10z"/> <path d="M640 3370 c0 -5 5 -10 11 -10 5 0 7 5 4 10 -3 6 -8 10 -11 10 -2 0 -4 -4 -4 -10z"/> <path d="M316 3344 c-4 -11 -1 -14 11 -12 9 2 18 9 21 16 6 18 -25 15 -32 -4z"/> <path d="M1160 3345 c0 -9 9 -15 21 -15 18 0 19 2 9 15 -7 8 -16 15 -21 15 -5 0 -9 -7 -9 -15z"/> <path d="M450 3281 c-19 -10 -54 -25 -77 -32 -24 -6 -43 -16 -43 -20 0 -9 28 -1 47 13 18 14 69 -14 65 -35 -2 -9 2 -17 8 -17 7 0 7 -7 -1 -22 -12 -22 -12 -22 12 -6 15 10 24 25 23 39 -1 13 4 27 10 31 19 12 -1 20 -23 9 -23 -13 -43 6 -20 20 60 34 59 52 -1 20z"/> <path d="M1000 3290 c0 -6 11 -16 25 -22 28 -13 32 -23 10 -32 -8 -3 -15 -13 -15 -23 0 -10 -6 -30 -14 -45 -17 -32 -8 -46 11 -18 8 11 19 18 24 15 5 -4 9 10 9 30 0 23 5 37 15 40 47 15 51 18 25 23 -14 2 -37 13 -51 23 -31 22 -39 23 -39 9z"/> <path d="M925 3280 c-3 -5 0 -10 8 -10 7 0 23 -9 35 -20 23 -22 42 -26 42 -10 0 6 -6 10 -13 10 -7 0 -18 9 -25 20 -13 21 -37 26 -47 10z"/> <path d="M517 3273 c-11 -10 -8 -23 4 -23 6 0 17 7 25 15 14 13 13 15 -4 15 -10 0 -22 -3 -25 -7z"/> <path d="M546 3230 c-21 -20 -25 -29 -16 -35 9 -5 11 -4 6 3 -4 7 -1 12 7 12 17 0 40 25 35 38 -1 5 -16 -3 -32 -18z"/> <path d="M900 3253 c0 -15 31 -40 60 -48 26 -8 26 -7 -47 48 -8 6 -13 6 -13 0z"/> <path d="M738 3243 c12 -2 32 -2 45 0 12 2 2 4 -23 4 -25 0 -35 -2 -22 -4z"/> <path d="M1130 3241 c0 -5 7 -12 16 -15 24 -9 27 -7 10 9 -17 17 -26 19 -26 6z"/> <path d="M321 3194 c0 -11 3 -14 6 -6 3 7 2 16 -1 19 -3 4 -6 -2 -5 -13z"/> <path d="M1171 3194 c0 -11 3 -14 6 -6 3 7 2 16 -1 19 -3 4 -6 -2 -5 -13z"/> <path d="M380 3174 c0 -17 22 -14 28 4 2 7 -3 12 -12 12 -9 0 -16 -7 -16 -16z"/> <path d="M1092 3178 c6 -18 28 -21 28 -4 0 9 -7 16 -16 16 -9 0 -14 -5 -12 -12z"/> <path d="M495 3138 c7 -38 7 -38 -26 -39 l-34 -2 38 -10 c27 -8 37 -16 37 -31 0 -35 12 -66 22 -60 6 4 14 0 19 -7 4 -7 11 -10 15 -6 6 6 -59 172 -73 187 -3 3 -2 -12 2 -32z"/> <path d="M670 3151 c0 -6 4 -13 10 -16 6 -3 7 1 4 9 -7 18 -14 21 -14 7z"/> <path d="M359 3105 c-9 -25 -13 -45 -8 -45 10 0 24 26 33 63 10 44 -8 31 -25 -18z"/> <path d="M1114 3127 c11 -47 25 -77 35 -77 12 0 -17 87 -31 96 -7 5 -9 -2 -4 -19z"/> <path d="M981 3099 c-6 -13 -19 -46 -29 -72 l-18 -49 -170 1 c-97 1 -175 -3 -184 -9 -10 -7 43 -10 165 -10 182 1 215 7 215 40 0 10 3 10 16 -1 14 -11 16 -10 14 6 -6 57 0 75 24 75 14 0 28 5 31 10 3 6 -2 10 -12 10 -11 0 -24 5 -31 12 -8 8 -14 5 -21 -13z"/> <path d="M396 3064 c-23 -23 -20 -24 14 -8 17 9 30 17 30 20 0 10 -30 2 -44 -12z"/> <path d="M1080 3071 c0 -5 7 -11 15 -15 18 -7 20 -37 3 -54 -7 -7 -8 -12 -2 -12 6 0 16 11 22 24 9 19 7 28 -9 45 -21 23 -29 26 -29 12z"/> <path d="M708 3033 c23 -2 61 -2 85 0 23 2 4 4 -43 4 -47 0 -66 -2 -42 -4z"/> <path d="M445 3019 c-4 -6 -4 -13 -1 -16 8 -8 36 5 36 17 0 13 -27 13 -35 -1z"/> <path d="M1032 3018 c3 -7 13 -15 22 -16 12 -3 17 1 14 10 -3 7 -13 15 -22 16 -12 3 -17 -1 -14 -10z"/> <path d="M431 2968 c-14 -38 -23 -83 -15 -76 17 17 42 88 33 93 -5 4 -13 -4 -18 -17z"/> <path d="M480 2979 c0 -5 5 -7 10 -4 6 3 10 8 10 11 0 2 -4 4 -10 4 -5 0 -10 -5 -10 -11z"/> <path d="M1054 2964 c5 -11 13 -31 18 -46 5 -16 14 -28 19 -28 11 0 11 -3 -5 45 -8 21 -20 41 -27 44 -8 2 -10 -2 -5 -15z"/> <path d="M610 2899 c0 -7 48 -9 145 -7 83 2 146 -1 148 -6 2 -6 9 -6 17 -1 27 16 -23 24 -167 24 -94 1 -143 -3 -143 -10z"/> <path d="M578 2883 c17 -7 15 -43 -2 -43 -8 0 -16 8 -18 18 -2 10 -6 13 -10 6 -4 -6 2 -20 12 -32 14 -15 20 -36 21 -74 1 -58 30 -140 43 -120 4 7 0 24 -9 39 -14 21 -17 42 -13 107 6 92 3 106 -20 105 -11 0 -12 -2 -4 -6z"/> <path d="M940 2876 c0 -8 5 -18 10 -21 6 -3 10 1 10 9 0 8 -4 18 -10 21 -5 3 -10 -1 -10 -9z"/> <path d="M897 2768 c-2 -46 -7 -93 -12 -105 -4 -14 -3 -23 3 -23 13 0 24 42 28 114 2 32 8 64 14 71 8 9 6 14 -6 19 -8 3 -17 6 -19 6 -2 0 -5 -37 -8 -82z"/> <path d="M638 2634 c-8 -8 3 -44 13 -44 5 0 9 6 9 14 0 22 28 27 35 7 3 -11 5 -23 4 -27 -5 -28 1 -34 21 -24 15 8 19 17 14 34 -7 30 13 44 30 20 7 -9 18 -14 24 -10 7 4 12 2 12 -3 0 -6 9 -11 20 -11 11 0 20 4 20 9 0 5 10 13 21 16 17 6 19 9 8 16 -23 14 -39 11 -32 -7 4 -12 1 -15 -13 -12 -10 2 -18 10 -16 16 1 9 -22 12 -81 12 -46 0 -86 -3 -89 -6z"/> <path d="M774 2550 c1 -16 8 -35 16 -42 12 -11 12 -11 1 5 -11 14 -11 17 0 17 12 0 12 2 0 9 -9 6 -10 11 -2 15 6 4 9 12 6 17 -12 18 -22 8 -21 -21z"/> <path d="M716 2513 c7 -39 14 -42 14 -5 0 18 -4 32 -9 32 -5 0 -7 -12 -5 -27z"/> <path d="M701 2464 c0 -11 3 -14 6 -6 3 7 2 16 -1 19 -3 4 -6 -2 -5 -13z"/> <path d="M790 2443 c0 -12 -6 -24 -12 -26 -8 -4 -9 -6 -2 -6 19 -2 34 23 24 39 -8 12 -10 11 -10 -7z"/> <path d="M660 2143 c-57 -24 -108 -63 -129 -98 -29 -50 -12 -51 21 0 35 53 79 81 151 94 100 18 214 -26 256 -100 9 -16 19 -29 24 -29 32 0 -50 93 -107 122 -52 27 -166 32 -216 11z"/> <path d="M700 2113 c0 -5 28 -8 63 -8 48 -1 72 -6 100 -24 41 -25 74 -67 63 -79 -4 -4 -43 -7 -87 -7 -43 0 -79 -3 -79 -7 0 -5 45 -8 100 -8 l100 0 -19 38 c-24 47 -50 70 -98 88 -41 14 -143 19 -143 7z"/> <path d="M635 2094 c-36 -18 -64 -52 -65 -76 0 -10 -4 -18 -10 -18 -5 0 -10 -4 -10 -10 0 -6 38 -10 95 -10 l95 0 0 35 c0 19 -4 35 -9 35 -4 0 -7 -11 -6 -25 4 -28 6 -27 -55 -31 -58 -4 -90 3 -90 20 0 18 44 60 83 80 17 8 25 16 17 16 -8 0 -28 -7 -45 -16z"/> <path d="M510 1979 c0 -5 5 -7 10 -4 6 3 10 8 10 11 0 2 -4 4 -10 4 -5 0 -10 -5 -10 -11z"/> <path d="M980 1970 c0 -5 5 -10 10 -10 6 0 10 5 10 10 0 6 -4 10 -10 10 -5 0 -10 -4 -10 -10z"/> <path d="M550 1955 c0 -12 27 -62 43 -78 68 -69 237 -75 308 -11 19 17 49 69 49 86 0 4 -43 8 -96 8 -72 0 -95 -3 -91 -12 2 -8 14 -11 28 -9 13 2 49 5 79 5 50 1 55 -1 52 -19 -4 -28 -55 -70 -101 -84 -54 -16 -137 -5 -188 24 -37 22 -63 58 -50 71 2 2 35 5 73 6 l69 2 6 -35 c6 -34 6 -34 8 9 l1 42 -95 0 c-52 0 -95 -2 -95 -5z"/> <path d="M513 1930 c4 -27 56 -88 92 -108 106 -59 225 -55 309 9 42 33 96 109 77 109 -6 0 -16 -10 -22 -22 -47 -91 -154 -138 -269 -116 -77 14 -152 69 -165 121 -8 31 -26 37 -22 7z"/> <path d="M770 1900 c0 -5 5 -10 11 -10 5 0 7 5 4 10 -3 6 -8 10 -11 10 -2 0 -4 -4 -4 -10z"/> </g> </svg> 