<?xml version="1.0" standalone="no"?>
<!DOCTYPE svg PUBLIC "-//W3C//DTD SVG 20010904//EN"
 "http://www.w3.org/TR/2001/REC-SVG-20010904/DTD/svg10.dtd">
<svg version="1.0" xmlns="http://www.w3.org/2000/svg"
 width="100.000000pt" height="300.000000pt" viewBox="0 0 100.000000 300.000000"
 preserveAspectRatio="xMidYMid meet">
<metadata>
Created by potrace 1.10, written by Peter Selinger 2001-2011
</metadata>
<g transform="translate(0.000000,300.000000) scale(0.100000,-0.100000)"
fill="#2fd1ed" stroke="none">
<path d="M457 2939 c-91 -21 -174 -92 -218 -187 -24 -52 -24 -52 -71 -52 l-48
0 0 -35 c0 -34 1 -35 40 -35 l40 0 0 -78 c0 -71 2 -78 20 -78 18 0 20 7 20 81
0 127 40 221 114 266 33 20 136 27 136 9 0 -6 -27 -10 -60 -10 -54 0 -64 -3
-96 -32 -49 -46 -84 -146 -84 -242 0 -73 0 -73 25 -68 15 2 25 0 25 -7 0 -6
-11 -11 -25 -11 l-25 0 0 -301 0 -301 25 4 c17 4 25 1 25 -8 0 -8 -11 -14 -25
-14 l-25 0 0 -526 0 -526 25 4 c17 4 25 1 25 -8 0 -8 -11 -14 -25 -14 -22 0
-25 -4 -25 -34 0 -51 27 -181 44 -215 10 -19 12 -32 6 -36 -6 -3 -10 -24 -10
-45 0 -21 -5 -42 -10 -45 -12 -7 -12 -4 -1 52 6 33 3 56 -15 110 -16 46 -24
91 -24 139 0 69 -7 84 -37 84 -12 0 7 -197 23 -250 25 -82 29 -164 10 -204
-20 -43 -20 -60 -1 -52 13 4 15 -8 15 -78 0 -45 3 -85 6 -88 11 -12 44 5 44
23 0 11 5 19 11 19 7 0 9 -10 5 -25 -6 -25 -6 -25 63 -25 64 0 69 1 64 20 -5
18 0 20 48 21 l54 2 -60 7 c-33 4 -87 8 -120 9 l-60 1 0 55 c0 50 2 55 21 55
12 0 24 -7 28 -15 4 -13 9 -13 24 -4 28 17 50 5 60 -33 8 -31 11 -33 60 -38
51 -6 52 -5 63 27 6 18 17 40 25 48 13 13 18 13 38 -1 21 -13 24 -13 29 1 4 8
16 15 27 15 18 0 20 -6 20 -55 l0 -55 -51 0 c-46 0 -51 -2 -46 -20 3 -14 0
-20 -10 -20 -10 0 -14 6 -10 20 4 15 0 20 -13 20 -13 0 -17 -5 -13 -20 5 -18
0 -20 -46 -20 -28 0 -51 -3 -51 -7 0 -5 52 -9 115 -11 l115 -3 1 28 c2 24 2
24 6 6 2 -13 8 -23 13 -23 5 0 15 -3 24 -6 14 -5 16 6 16 85 0 76 2 89 15 85
20 -8 20 29 -1 61 -20 30 -15 96 14 208 26 97 32 232 11 232 -10 0 -17 -25
-26 -90 -12 -93 -23 -137 -42 -174 -7 -11 -8 -21 -4 -21 4 0 9 -23 10 -50 3
-67 -13 -56 -20 14 -4 41 0 68 14 106 10 27 19 60 18 73 -1 25 0 27 -30 -70
-12 -40 -27 -78 -34 -83 -15 -12 -239 -21 -304 -11 -44 6 -45 7 -67 64 -22 57
-31 99 -39 180 -3 35 0 40 26 49 35 12 38 34 7 44 -13 4 -26 12 -30 17 -4 6
-7 230 -8 498 l-1 487 31 22 c37 27 38 34 1 50 l-30 12 2 271 c1 187 5 271 13
274 6 2 20 10 30 18 18 14 18 16 -14 43 -31 26 -34 31 -30 77 7 81 35 158 71
192 26 26 44 33 102 40 39 5 82 6 95 2 14 -4 43 -7 66 -8 30 -1 48 -8 71 -31
41 -40 73 -132 73 -209 0 -55 -2 -61 -20 -61 -33 0 -36 -29 -6 -56 l26 -25 -1
-263 0 -263 -25 -11 c-31 -15 -31 -39 1 -54 l25 -11 0 -499 0 -498 -25 -10
c-32 -12 -32 -38 1 -50 24 -9 26 -15 22 -55 -2 -25 0 -45 4 -45 5 0 8 25 8 55
0 52 -1 55 -25 55 -16 0 -25 6 -25 15 0 11 7 14 25 9 l25 -6 0 526 0 526 -25
0 c-16 0 -25 6 -25 15 0 11 7 14 25 9 l25 -6 0 301 0 301 -25 0 c-14 0 -25 5
-25 11 0 7 10 9 25 7 25 -5 25 -5 25 72 0 99 -27 181 -77 232 -35 36 -40 38
-100 38 -35 0 -63 4 -63 10 0 6 27 10 61 10 57 0 62 -2 105 -42 60 -57 94
-149 94 -253 0 -62 2 -73 17 -71 14 2 16 14 14 79 l-2 77 40 0 c40 0 41 1 41
35 l0 35 -50 0 c-38 0 -50 4 -50 15 0 9 -12 34 -26 58 -77 125 -192 189 -297
166z m136 -53 l32 -20 -55 -7 c-60 -8 -180 0 -180 11 0 6 30 23 60 34 34 11
112 2 143 -18z m-350 -192 c6 -7 -19 -64 -28 -64 -3 0 -13 8 -23 18 -17 16
-17 18 8 34 29 19 34 20 43 12z m557 -12 c30 -19 30 -19 10 -37 -11 -10 -22
-16 -24 -14 -9 10 -26 49 -26 58 0 15 5 14 40 -7z m-460 -2227 c19 -23 306
-22 332 2 10 9 18 11 18 5 0 -6 -10 -18 -22 -26 -18 -13 -53 -16 -170 -16 -87
0 -149 4 -153 10 -14 23 -22 6 -28 -62 -6 -68 -26 -112 -44 -94 -4 4 0 12 10
17 13 8 17 24 17 74 0 35 4 66 10 70 5 3 7 12 3 20 -7 19 11 19 27 0z m389
-172 c15 -11 15 -12 -1 -13 -10 0 -21 8 -26 18 -13 24 -24 137 -15 146 5 4 12
-25 17 -65 5 -48 14 -78 25 -86z m-207 119 l150 3 -5 -47 c-4 -30 -2 -48 4
-48 6 0 7 -4 4 -10 -3 -5 -25 -10 -48 -10 -43 -1 -77 -18 -77 -39 0 -16 -37
-51 -56 -51 -8 0 -22 16 -29 35 -18 41 -41 55 -94 55 -22 0 -43 5 -46 10 -3 6
-1 10 4 10 8 0 9 19 5 56 -7 56 -7 56 16 44 15 -8 68 -11 172 -8z"/>
<path d="M478 2616 c-27 -20 -23 -44 7 -42 21 1 23 3 10 12 -21 15 -19 24 6
24 11 0 18 -4 15 -9 -3 -5 1 -14 9 -21 13 -11 14 -10 9 6 -9 23 -24 44 -33 44
-3 0 -14 -7 -23 -14z"/>
<path d="M487 2543 c3 -7 1 -13 -5 -13 -18 0 -21 -28 -4 -42 15 -11 15 -11 4
3 -10 13 -10 19 2 28 7 6 20 10 27 8 8 -2 11 -2 7 0 -4 2 -4 11 -2 18 4 9 -1
13 -14 12 -12 0 -18 -6 -15 -14z"/>
<path d="M340 2316 l0 -153 123 -5 c67 -3 139 -3 160 0 l37 4 0 154 0 154
-160 0 -160 0 0 -154z m310 -1 l0 -145 -34 0 c-19 0 -38 5 -42 11 -4 8 -9 7
-14 -2 -7 -10 -11 -10 -24 0 -10 9 -28 11 -53 7 -21 -4 -59 -10 -85 -12 l-48
-6 0 146 0 146 150 0 150 0 0 -145z"/>
<path d="M562 2312 l-2 -83 -64 5 c-59 4 -64 3 -70 -17 -3 -12 -1 -26 4 -31 7
-7 10 -3 10 10 0 18 6 19 78 16 57 -3 81 -8 90 -20 13 -16 13 -15 10 3 -2 11
-13 24 -25 30 -20 8 -23 18 -26 90 l-3 80 -2 -83z"/>
<path d="M200 2287 c0 -168 -1 -174 -23 -195 -13 -12 -29 -22 -36 -22 -23 0
-9 -369 18 -498 12 -56 26 -114 31 -128 6 -14 10 -160 10 -340 0 -307 0 -314
20 -314 20 0 20 7 20 524 l0 525 -22 3 c-13 2 -22 6 -20 11 1 4 2 59 2 122 0
97 2 115 15 115 14 0 16 -16 14 -105 -1 -58 -5 -105 -10 -105 -5 0 -9 -4 -9
-10 0 -5 7 -10 15 -10 13 0 15 40 15 300 0 293 0 300 -20 300 -19 0 -20 -7
-20 -173z m-20 -344 c0 -55 -4 -91 -9 -83 -7 14 -3 180 5 180 2 0 4 -44 4 -97z
m-1 -165 l-2 -63 -7 55 c-6 51 -5 70 6 70 2 0 3 -28 3 -62z m45 28 c7 -30 7
-302 -1 -322 -15 -41 -23 15 -23 172 0 159 8 212 24 150z"/>
<path d="M768 2159 c1 -166 5 -299 9 -296 3 3 5 56 4 117 -1 64 2 110 7 110
16 0 23 -46 21 -150 -1 -91 -3 -100 -20 -100 -18 0 -19 -20 -21 -525 -3 -503
-2 -526 15 -523 17 3 18 21 17 303 0 287 1 304 24 396 35 136 45 222 47 407
l2 162 -34 23 -34 23 0 177 c0 170 -1 177 -20 177 -20 0 -20 -6 -17 -301z m71
-210 c0 -48 -4 -77 -9 -74 -6 4 -10 42 -10 86 0 47 4 78 9 74 6 -3 10 -41 10
-86z m1 -134 c0 -19 -4 -35 -10 -35 -11 0 -14 53 -3 63 11 12 13 8 13 -28z
m-32 -156 c-4 -105 -10 -175 -17 -182 -8 -8 -11 38 -11 171 0 162 2 182 16
182 15 0 16 -17 12 -171z"/>
<path d="M441 1989 c-32 -20 -56 -47 -47 -56 3 -3 6 -1 6 5 0 22 63 52 109 52
36 0 49 -6 77 -34 36 -36 45 -36 16 0 -37 47 -113 62 -161 33z"/>
<path d="M455 1939 c-4 -6 -10 -22 -14 -36 -5 -19 -15 -27 -35 -29 -25 -3 -28
0 -24 21 3 14 2 22 -2 20 -10 -6 -21 -62 -15 -77 5 -13 70 -17 81 -5 3 3 8 25
10 48 3 24 7 45 9 47 1 2 21 5 43 7 36 4 40 2 40 -20 0 -30 -34 -35 -54 -7
-12 15 -12 15 -7 -7 4 -17 3 -22 -5 -17 -7 4 -12 2 -12 -4 0 -8 14 -11 39 -8
38 3 40 2 46 -31 5 -24 9 -30 15 -21 5 8 18 11 39 7 29 -6 31 -4 31 21 0 15
-5 34 -10 42 -8 13 -10 13 -10 -1 0 -11 -9 -16 -25 -16 -18 0 -25 5 -25 19 0
41 -18 58 -65 58 -24 0 -47 -5 -50 -11z m-15 -90 c0 -12 -57 -12 -65 0 -6 11
22 19 48 13 9 -2 17 -8 17 -13z m190 0 c0 -5 -13 -9 -30 -9 -30 0 -41 15 -17
23 17 5 47 -3 47 -14z"/>
<path d="M480 1735 c0 -40 3 -45 23 -45 20 0 22 5 22 45 0 40 -2 45 -22 45
-20 0 -23 -5 -23 -45z"/>
<path d="M480 1575 c0 -28 4 -35 20 -35 16 0 20 7 20 35 0 28 -4 35 -20 35
-16 0 -20 -7 -20 -35z"/>
<path d="M480 1475 c0 -22 4 -26 23 -23 14 2 22 10 22 23 0 13 -8 21 -22 23
-19 3 -23 -1 -23 -23z"/>
<path d="M522 1240 c-7 -33 -17 -60 -22 -60 -5 0 -13 19 -18 43 -9 37 -10 39
-11 11 -1 -16 5 -39 13 -50 13 -17 16 -17 29 -4 15 16 39 120 28 120 -4 0 -13
-27 -19 -60z"/>
<path d="M601 1160 c-6 -41 -19 -95 -28 -120 l-16 -45 -55 1 c-36 0 -57 5 -62
15 -8 15 -37 128 -43 166 -2 12 -6 25 -9 29 -13 13 15 -123 46 -218 8 -27 12
-48 8 -48 -4 0 6 -7 22 -15 15 -8 34 -15 41 -15 15 0 47 -35 39 -43 -3 -3 3
-3 13 -1 22 6 26 27 11 66 -8 21 -5 41 10 90 25 75 46 181 40 199 -2 7 -10
-20 -17 -61z m-51 -200 c0 -29 -27 -36 -51 -14 -18 16 -19 16 -13 1 5 -13 2
-16 -10 -11 -9 3 -16 15 -16 25 0 16 8 19 45 19 39 0 45 -3 45 -20z"/>
<path d="M530 812 c0 -4 18 -6 40 -4 l39 4 4 -68 3 -69 2 73 2 72 -45 0 c-25
0 -45 -3 -45 -8z"/>
<path d="M456 73 c-7 -18 4 -23 51 -23 35 0 43 3 43 18 0 14 -8 17 -45 17 -25
0 -47 -5 -49 -12z"/>
</g>
</svg>
