<?xml version="1.0" standalone="no"?>
<!DOCTYPE svg PUBLIC "-//W3C//DTD SVG 20010904//EN"
 "http://www.w3.org/TR/2001/REC-SVG-20010904/DTD/svg10.dtd">
<svg version="1.0" xmlns="http://www.w3.org/2000/svg"
 width="300.000000pt" height="900.000000pt" viewBox="0 0 300.000000 900.000000"
 preserveAspectRatio="xMidYMid meet">
<metadata>
Created by potrace 1.10, written by Peter Selinger 2001-2011
</metadata>
<g transform="translate(0.000000,900.000000) scale(0.100000,-0.100000)"
fill="#ffffff" stroke="none">
<path d="M1362 8740 c-117 -28 -222 -86 -311 -171 -44 -42 -112 -125 -123
-150 -7 -16 -16 -29 -20 -29 -4 0 -17 -19 -28 -42 -12 -24 -34 -65 -50 -93
-16 -27 -32 -57 -35 -65 -4 -8 -11 -23 -16 -32 -5 -10 -9 -27 -9 -38 0 -11 -4
-20 -10 -20 -5 0 -10 -11 -10 -24 0 -13 -7 -29 -15 -36 -8 -7 -15 -23 -15 -36
0 -12 -4 -26 -10 -29 -5 -3 -10 -19 -10 -34 0 -16 -6 -34 -14 -40 -13 -11 -19
-32 -32 -123 -4 -21 -10 -38 -15 -38 -5 0 -9 -17 -9 -38 0 -21 -5 -43 -12 -50
-6 -6 -15 -35 -20 -64 -5 -29 -13 -75 -19 -103 -5 -27 -14 -83 -19 -124 -6
-41 -20 -115 -31 -164 -12 -48 -19 -97 -16 -108 3 -10 0 -22 -5 -25 -6 -4 -81
-6 -168 -5 -134 2 -159 0 -170 -14 -20 -24 -21 -331 -2 -348 9 -7 59 -10 148
-8 157 3 168 -1 151 -57 -18 -56 -17 -2174 1 -2179 9 -4 12 200 12 994 0 803
3 1015 14 1083 8 47 13 105 12 130 -2 25 1 74 6 110 5 36 13 108 18 160 9 85
15 137 36 275 4 22 10 45 15 51 5 5 6 27 2 47 -4 29 -2 38 11 43 13 5 15 14
11 35 -6 27 9 107 56 294 11 44 23 91 25 105 8 39 65 222 79 255 7 17 17 41
23 55 5 14 22 51 36 83 14 32 26 62 26 67 0 6 5 10 10 10 6 0 10 8 10 19 0 10
7 24 15 31 8 7 15 17 15 23 0 5 11 25 25 43 14 18 25 36 25 39 0 23 145 180
200 217 l45 31 -53 -53 c-82 -81 -131 -150 -194 -275 -11 -22 -24 -47 -29 -55
-5 -8 -12 -22 -15 -30 -14 -35 -27 -66 -35 -82 -5 -10 -9 -27 -9 -38 0 -11 -4
-20 -10 -20 -5 0 -10 -13 -10 -30 0 -16 -4 -30 -10 -30 -5 0 -10 -13 -10 -29
0 -17 -4 -33 -10 -36 -5 -3 -10 -19 -10 -35 0 -16 -4 -31 -9 -34 -5 -3 -11
-20 -14 -38 -3 -18 -11 -55 -17 -83 -6 -27 -13 -63 -16 -80 -3 -16 -9 -39 -14
-50 -5 -11 -11 -38 -14 -60 -2 -22 -12 -78 -21 -125 -9 -47 -17 -113 -18 -147
-1 -35 -5 -63 -8 -63 -4 0 -9 -21 -13 -47 -20 -132 -26 -184 -31 -243 -3 -36
-9 -101 -14 -145 -26 -217 -32 -523 -29 -1430 2 -739 6 -940 15 -940 10 0 14
220 17 1030 4 953 11 1313 29 1342 4 7 12 72 17 145 11 147 29 278 41 292 4 4
5 23 2 41 -3 18 0 35 5 39 13 8 1540 9 1553 0 5 -3 7 -24 4 -46 -5 -31 -3 -39
7 -35 7 2 12 12 12 21 -1 9 3 16 8 16 6 0 8 13 4 33 -4 17 -11 61 -16 97 -6
36 -15 90 -20 120 -6 30 -13 73 -17 95 -3 22 -9 44 -14 50 -5 5 -9 24 -9 42 0
17 -4 42 -9 55 -5 13 -14 41 -19 63 -33 130 -54 196 -65 212 -8 11 -24 60 -32
98 -3 11 -9 21 -15 23 -5 2 -10 12 -10 22 0 25 -94 203 -145 275 -23 33 -68
84 -98 113 -31 28 -53 52 -49 52 7 0 87 -63 115 -92 36 -36 117 -138 117 -148
0 -5 3 -10 8 -10 7 0 25 -30 38 -62 3 -10 10 -18 15 -18 5 0 9 -9 9 -19 0 -11
4 -21 8 -23 7 -3 52 -91 73 -143 4 -11 14 -36 22 -55 9 -19 21 -53 27 -75 7
-22 17 -48 22 -59 5 -10 16 -42 23 -70 7 -28 23 -86 34 -128 12 -43 21 -89 21
-102 0 -14 5 -28 10 -31 6 -3 10 -18 10 -33 0 -15 9 -60 20 -101 10 -41 16
-87 13 -103 -3 -17 -1 -28 6 -28 6 0 11 -18 11 -44 0 -25 5 -48 10 -51 6 -3
10 -31 10 -61 0 -31 5 -64 11 -75 5 -11 12 -56 15 -100 2 -45 7 -86 12 -92 7
-12 12 -78 31 -397 7 -101 11 -577 11 -1122 l-1 -948 21 0 21 0 -4 1068 c-3
954 -6 1106 -22 1133 -14 22 31 30 154 28 93 -1 135 2 146 11 12 10 15 41 15
171 0 202 12 190 -200 188 -83 0 -153 1 -155 3 -1 1 -8 44 -14 93 -6 50 -16
117 -21 150 -6 33 -14 88 -19 121 -4 34 -12 67 -17 75 -4 8 -12 36 -17 64 -4
27 -10 66 -14 85 -3 19 -11 43 -18 53 -7 10 -11 27 -8 38 3 10 -2 30 -11 44
-9 13 -16 38 -16 55 0 16 -4 30 -10 30 -5 0 -10 13 -10 29 0 16 -7 37 -16 46
-9 8 -14 22 -11 29 3 8 -1 22 -8 33 -8 10 -15 28 -15 40 0 12 -4 25 -10 28 -5
3 -10 17 -10 30 0 12 -7 25 -15 29 -8 3 -15 12 -15 21 0 8 -4 23 -9 33 -5 9
-17 33 -26 52 -58 122 -134 231 -224 321 -109 108 -192 152 -349 185 -83 17
-118 16 -210 -6z m248 -30 c0 -5 8 -10 18 -10 10 0 23 -5 30 -12 8 -8 12 -9
12 -1 0 6 10 3 23 -7 12 -11 42 -34 67 -53 51 -38 145 -146 176 -203 11 -22
31 -56 42 -77 12 -21 22 -44 22 -52 0 -8 5 -15 10 -15 6 0 10 -5 10 -11 0 -5
11 -34 24 -62 20 -44 58 -153 96 -272 5 -16 12 -50 16 -75 4 -25 11 -53 16
-63 5 -10 16 -55 24 -100 9 -45 20 -102 25 -127 5 -25 12 -67 15 -95 4 -27 11
-56 17 -63 6 -8 7 -16 1 -22 -15 -15 -1533 -18 -1538 -4 -3 7 -1 29 4 50 5 22
13 64 19 94 14 79 50 248 62 295 33 130 50 189 60 207 5 10 9 27 9 37 0 11 4
22 8 25 4 3 14 28 22 56 8 28 18 53 22 56 4 3 8 14 8 25 0 10 5 19 10 19 6 0
10 5 10 11 0 16 53 118 95 185 81 125 230 254 295 254 11 0 20 5 20 10 0 6 48
10 125 10 77 0 125 -4 125 -10z m-1108 -1705 c-19 -151 -24 -198 -25 -240 l-2
-50 -140 0 -140 0 -3 145 c-1 79 -1 149 2 155 2 7 55 11 157 11 148 -1 154 -2
151 -21z m2263 13 c11 -10 8 -289 -2 -299 -5 -5 -68 -8 -139 -7 l-129 3 -6 90
c-3 50 -11 114 -18 143 -20 83 -23 81 143 79 80 -2 148 -6 151 -9z"/>
<path d="M2104 7295 c-7 -30 2 -58 17 -53 6 2 10 7 10 11 -1 4 -1 21 -1 37 0
36 -17 40 -26 5z"/>
<path d="M730 7275 c0 -24 5 -35 15 -35 10 0 15 11 15 35 0 24 -5 35 -15 35
-10 0 -15 -11 -15 -35z"/>
<path d="M830 7275 c0 -37 22 -49 34 -19 9 23 -2 54 -20 54 -9 0 -14 -11 -14
-35z"/>
<path d="M2200 7275 c0 -24 5 -35 15 -35 10 0 15 11 15 35 0 24 -5 35 -15 35
-10 0 -15 -11 -15 -35z"/>
<path d="M782 7279 c1 -13 8 -23 13 -21 15 3 12 35 -3 40 -9 3 -13 -3 -10 -19z"/>
<path d="M2322 7291 c-9 -6 -9 -11 2 -27 14 -18 15 -18 22 -1 8 22 -6 39 -24
28z"/>
<path d="M2281 7188 c4 -35 10 -70 13 -78 4 -9 8 -47 11 -85 2 -39 9 -117 15
-175 24 -242 30 -515 30 -1427 l-1 -963 21 0 20 0 -3 993 c-3 1077 -8 1213
-58 1642 -17 150 -18 155 -37 155 -16 0 -17 -7 -11 -62z"/>
<path d="M1213 7073 c-19 -7 -16 -88 3 -104 14 -11 14 -13 0 -21 -10 -5 -16
-22 -16 -41 1 -64 42 -86 165 -89 l90 -3 0 -30 0 -30 -94 -3 c-100 -3 -111 1
-111 46 0 13 -6 22 -15 22 -10 0 -15 -10 -15 -31 0 -20 -4 -29 -12 -27 -19 7
-22 47 -4 54 22 8 20 24 -3 24 -30 0 -45 -72 -19 -98 9 -9 9 -15 0 -24 -16
-16 -15 -70 2 -93 11 -16 16 -17 29 -7 12 10 29 11 79 2 66 -12 164 -6 186 13
10 8 16 7 22 -3 11 -18 184 -20 216 -2 18 9 24 9 35 -4 23 -28 32 3 31 108 -1
85 -3 104 -16 106 -12 3 -16 -5 -16 -33 0 -20 -4 -34 -10 -30 -5 3 -7 12 -3
20 3 9 -1 15 -10 15 -10 0 -17 -11 -19 -27 -3 -28 -3 -28 -91 -31 -62 -2 -94
1 -105 10 -13 11 -15 10 -9 -12 3 -14 2 -32 -3 -40 -8 -13 -11 -13 -26 2 -17
16 -17 19 -1 36 29 32 19 78 -20 93 -20 7 -22 12 -13 28 14 27 13 57 -4 73
-11 12 -11 17 0 33 17 22 18 59 4 86 -10 17 -22 19 -113 18 -56 0 -108 -3
-114 -6z m202 -58 l0 -30 -85 -3 c-47 -1 -90 1 -97 5 -6 5 -9 20 -6 36 l5 28
92 -3 91 -3 0 -30z m1 -92 c14 -53 6 -58 -91 -58 l-90 0 -3 28 c-5 45 9 53 98
52 75 0 81 -2 86 -22z m334 -199 c0 -26 -1 -27 -24 -18 -19 7 -21 40 -3 47 19
7 27 -2 27 -29z m-490 6 c0 -13 -7 -20 -20 -20 -16 0 -20 -7 -20 -35 0 -37
-13 -47 -24 -19 -8 20 2 54 15 54 5 0 9 9 9 20 0 13 7 20 20 20 13 0 20 -7 20
-20z m446 -36 c7 -8 10 -24 7 -34 -5 -18 -14 -20 -95 -20 -66 0 -95 4 -114 17
l-25 16 26 21 c22 18 37 21 108 18 58 -2 85 -8 93 -18z m-251 -19 l0 -30 -96
-3 c-83 -2 -98 0 -103 14 -4 9 -4 25 0 36 5 17 15 18 102 16 l97 -3 0 -30z"/>
<path d="M1527 7073 c-13 -13 -7 -90 8 -103 14 -11 13 -14 -1 -25 -13 -9 -16
-22 -12 -58 4 -36 2 -47 -8 -47 -8 0 -14 -6 -14 -12 0 -10 25 -12 102 -10 91
3 107 7 136 29 28 21 33 30 30 61 -2 26 -8 38 -21 40 -15 3 -18 0 -12 -18 4
-12 4 -32 1 -46 -6 -23 -9 -24 -101 -24 l-95 0 0 34 c0 19 5 38 12 42 6 4 46
8 87 8 101 2 131 20 131 81 0 30 -5 45 -16 49 -21 8 -219 8 -227 -1z m208 -58
l0 -30 -95 0 c-83 0 -95 2 -98 18 -8 43 3 48 100 45 l93 -3 0 -30z"/>
<path d="M1232 6584 c-21 -15 -22 -21 -22 -174 0 -153 1 -159 22 -174 26 -18
61 -20 89 -6 18 10 19 23 19 179 l0 168 -25 11 c-35 16 -56 15 -83 -4z m73
-170 l0 -159 -28 0 -29 0 0 155 c0 140 2 155 19 161 10 4 23 6 28 5 6 -2 10
-64 10 -162z"/>
<path d="M1414 6589 c-29 -10 -37 -25 -30 -55 5 -20 12 -24 44 -24 21 0 44 6
51 13 11 10 14 10 18 0 6 -16 65 -17 81 -1 34 34 -6 74 -65 65 -19 -3 -44 -2
-56 2 -12 5 -32 5 -43 0z m44 -37 c3 -18 -2 -22 -22 -22 -28 0 -34 18 -14 38
17 17 32 10 36 -16z m102 -2 c0 -16 -7 -20 -30 -20 -18 0 -30 5 -30 13 0 20
10 27 37 27 16 0 23 -6 23 -20z"/>
<path d="M1647 6582 c-14 -16 -17 -44 -17 -178 0 -111 4 -164 12 -172 15 -15
63 -16 89 -2 18 10 19 23 19 180 0 157 -1 170 -19 180 -30 15 -66 12 -84 -8z
m62 -16 c8 -9 11 -61 9 -162 l-3 -149 -25 0 -25 0 -3 149 c-2 141 3 176 28
176 4 0 13 -6 19 -14z"/>
<path d="M1387 6459 c-14 -52 28 -79 80 -52 23 12 28 12 35 -2 17 -29 88 -1
88 35 0 30 -22 38 -112 38 -77 1 -87 -1 -91 -19z m67 -5 c10 -26 7 -34 -13
-34 -26 0 -36 17 -21 35 16 19 26 19 34 -1z m106 -14 c0 -15 -7 -20 -24 -20
-27 0 -41 14 -31 30 3 6 17 10 31 10 17 0 24 -5 24 -20z"/>
<path d="M829 6346 c-8 -8 2 -76 11 -76 15 0 31 29 28 52 -3 21 -27 36 -39 24z"/>
<path d="M2107 6343 c-11 -19 -1 -68 13 -68 11 0 15 10 14 34 0 33 -16 52 -27
34z"/>
<path d="M734 6326 c-6 -17 2 -36 17 -36 12 0 12 37 -1 45 -6 3 -13 -1 -16 -9z"/>
<path d="M780 6315 c0 -17 5 -25 13 -22 6 2 12 12 12 22 0 10 -6 20 -12 23 -8
2 -13 -6 -13 -23z"/>
<path d="M2215 6330 c-3 -5 -17 -7 -31 -4 -20 5 -24 2 -24 -15 0 -24 4 -25 31
-11 13 7 19 7 19 0 0 -5 7 -10 15 -10 8 0 15 9 15 19 0 23 -16 36 -25 21z"/>
<path d="M2267 6334 c-10 -11 -8 -44 2 -44 6 0 13 4 16 10 8 12 -9 43 -18 34z"/>
<path d="M680 6309 c0 -25 33 -22 38 4 2 12 -3 17 -17 17 -15 0 -21 -6 -21
-21z"/>
<path d="M2300 6317 c0 -19 10 -27 26 -20 21 8 17 33 -6 33 -11 0 -20 -6 -20
-13z"/>
<path d="M1469 6273 c-11 -3 -18 -27 -27 -91 -6 -48 -14 -103 -17 -122 -4 -19
-9 -57 -11 -85 -3 -27 -9 -59 -14 -70 -5 -11 -11 -42 -13 -70 -3 -27 -10 -68
-17 -90 -6 -22 -13 -82 -16 -134 -4 -86 -3 -93 12 -80 12 10 15 23 10 56 -3
23 -2 44 3 47 4 3 11 31 14 63 7 71 32 107 77 111 52 5 84 -13 98 -58 6 -22
15 -105 19 -185 4 -103 10 -148 20 -156 18 -16 16 -39 -6 -63 -17 -18 -26 -51
-22 -80 3 -21 31 19 31 45 0 15 4 31 10 34 17 10 -2 370 -22 408 -11 21 -28
111 -33 180 -3 27 -7 53 -11 59 -6 10 -19 97 -31 208 -5 52 -17 82 -32 79 -3
-1 -13 -3 -22 -6z m35 -105 c6 -69 16 -147 31 -248 4 -25 11 -55 17 -67 15
-30 7 -36 -28 -23 -15 6 -46 8 -67 4 -40 -6 -40 -6 -33 22 9 40 25 151 36 264
6 52 12 101 15 108 11 30 23 6 29 -60z"/>
<path d="M777 6202 c-13 -14 -17 -38 -17 -97 0 -92 10 -104 83 -105 80 0 87 8
87 104 0 101 -11 116 -87 116 -36 0 -55 -5 -66 -18z m118 -92 l0 -75 -49 0
-49 0 -1 73 c-1 40 1 75 3 78 3 3 26 4 51 2 l45 -3 0 -75z"/>
<path d="M2057 6202 c-13 -14 -17 -38 -17 -100 0 -70 3 -83 19 -92 27 -14 114
-13 129 2 8 8 12 45 12 100 0 76 -2 89 -19 98 -33 17 -106 12 -124 -8z m108
-92 l0 -75 -40 -6 c-22 -4 -43 -5 -47 -2 -5 2 -8 40 -8 84 l0 80 48 -3 47 -3
0 -75z"/>
<path d="M958 5548 c-14 -12 -21 -46 -43 -203 -27 -192 -54 -346 -64 -360 -12
-17 -13 -185 -2 -185 15 0 24 45 17 76 -4 14 -3 31 2 37 5 7 13 38 16 69 9 73
35 108 81 108 87 0 104 -37 111 -243 3 -104 9 -146 19 -157 20 -22 19 -40 -4
-64 -17 -18 -26 -51 -22 -80 2 -19 31 18 31 41 0 13 4 32 9 41 14 27 -7 354
-28 428 -6 21 -8 41 -5 45 3 5 -2 22 -11 38 -8 17 -15 55 -15 85 0 30 -4 57
-9 60 -5 3 -9 30 -10 59 0 30 -5 66 -11 81 -5 15 -10 46 -10 70 0 37 -13 66
-30 66 -3 0 -13 -6 -22 -12z m36 -105 c6 -71 10 -105 31 -243 4 -25 11 -55 17
-67 15 -30 7 -36 -28 -23 -15 6 -46 8 -67 4 -40 -6 -40 -6 -33 22 9 39 24 148
36 264 12 104 15 120 28 120 5 0 12 -35 16 -77z"/>
<path d="M2049 5553 c-17 -4 -24 -32 -40 -158 -4 -38 -13 -101 -19 -140 -6
-38 -13 -95 -16 -125 -3 -30 -10 -59 -15 -64 -5 -6 -9 -22 -9 -36 0 -14 -6
-35 -14 -45 -8 -11 -11 -26 -7 -35 4 -8 5 -45 2 -82 -4 -38 -3 -68 1 -68 17 0
29 44 23 81 -4 25 -3 39 4 39 6 0 11 15 11 33 1 52 17 108 37 122 25 20 87 18
112 -2 27 -23 40 -93 45 -244 3 -89 8 -122 21 -143 17 -26 17 -27 -9 -64 -26
-38 -35 -82 -16 -82 10 0 18 15 37 76 16 49 -8 397 -28 418 -5 6 -9 31 -9 56
0 25 -4 50 -9 56 -5 5 -12 36 -15 69 -3 33 -11 92 -16 130 -6 39 -13 98 -16
133 -7 64 -20 83 -55 75z m27 -64 c-3 -16 -1 -52 3 -81 5 -29 14 -93 21 -143
6 -49 18 -104 25 -121 16 -38 11 -46 -23 -33 -14 5 -45 7 -70 3 -42 -6 -45 -5
-38 12 4 11 12 44 17 74 6 30 14 78 19 105 5 28 12 82 15 122 3 39 8 78 11 87
10 26 26 6 20 -25z"/>
<path d="M1497 5496 c5 -30 2 -34 -26 -44 -43 -15 -40 -34 6 -30 33 3 38 7 44
36 8 41 1 72 -17 72 -9 0 -11 -10 -7 -34z"/>
<path d="M1306 5498 c-21 -29 -20 -41 4 -69 l19 -24 -12 33 c-9 26 -9 37 1 53
18 29 8 35 -12 7z"/>
<path d="M1436 5504 c-9 -24 -7 -34 8 -34 13 0 26 20 26 41 0 15 -27 10 -34
-7z"/>
<path d="M1351 5481 c-13 -23 -4 -51 15 -51 9 0 14 11 14 29 0 37 -15 48 -29
22z"/>
<path d="M1354 5338 c3 -35 10 -106 15 -158 6 -52 14 -130 18 -172 5 -42 11
-79 14 -83 13 -12 19 116 10 177 -6 34 -16 116 -22 181 -10 90 -16 117 -27
117 -12 0 -13 -12 -8 -62z"/>
<path d="M1451 5356 c-10 -12 -7 -18 17 -30 41 -21 58 -3 26 28 -19 20 -28 20
-43 2z"/>
<path d="M1435 5289 c-4 -12 -3 -24 3 -28 13 -8 77 -6 91 4 23 14 9 23 -25 18
-28 -5 -40 -2 -50 11 -11 16 -13 16 -19 -5z"/>
<path d="M1584 5236 c-8 -20 -1 -47 11 -49 6 -1 11 13 13 31 3 32 -14 45 -24
18z"/>
<path d="M1442 5168 c3 -42 4 -43 41 -46 l37 -3 0 45 0 46 -41 0 -40 0 3 -42z"/>
<path d="M1566 5158 c-3 -7 -6 -48 -9 -91 -2 -42 -6 -80 -9 -83 -3 -2 -17 0
-31 7 -46 21 -74 5 -87 -49 -20 -83 -14 -205 12 -259 14 -29 72 -32 83 -5 9
20 23 109 31 202 3 36 12 83 19 105 18 57 23 177 8 182 -7 3 -15 -1 -17 -9z
m-48 -231 c4 -42 -11 -67 -38 -67 -23 0 -28 15 -22 68 4 40 6 43 31 40 22 -3
26 -8 29 -41z m-18 -87 c27 0 29 -2 24 -37 -11 -80 -26 -124 -43 -121 -11 2
-18 19 -23 53 -4 28 -10 65 -14 84 -6 30 -4 33 10 28 10 -4 30 -7 46 -7z"/>
<path d="M987 4776 c5 -30 2 -34 -26 -44 -43 -15 -40 -34 6 -30 33 3 38 7 44
36 8 41 1 72 -17 72 -9 0 -11 -10 -7 -34z"/>
<path d="M2076 4786 c7 -30 -10 -56 -37 -56 -11 0 -19 -7 -19 -16 0 -12 9 -14
38 -12 l37 3 0 49 c0 31 -5 51 -13 54 -9 3 -11 -3 -6 -22z"/>
<path d="M926 4784 c-16 -41 14 -49 32 -9 10 22 9 25 -7 25 -10 0 -22 -7 -25
-16z"/>
<path d="M2017 4793 c-11 -10 -8 -43 3 -43 9 0 30 31 30 44 0 8 -25 7 -33 -1z"/>
<path d="M1886 4774 c-9 -24 -7 -62 4 -69 6 -4 7 6 4 24 -4 19 -2 37 6 46 7 9
8 15 2 15 -5 0 -13 -7 -16 -16z"/>
<path d="M841 4761 c-13 -23 -4 -51 15 -51 9 0 14 11 14 29 0 37 -15 48 -29
22z"/>
<path d="M1933 4773 c-18 -6 -16 -52 2 -60 23 -8 27 1 18 34 -5 17 -13 28 -20
26z"/>
<path d="M844 4613 c3 -38 10 -108 16 -158 5 -49 13 -125 17 -167 5 -42 11
-79 14 -83 13 -12 19 116 10 177 -6 34 -16 116 -22 181 -9 92 -15 117 -26 117
-13 0 -14 -12 -9 -67z"/>
<path d="M1934 4608 c4 -40 11 -116 17 -168 5 -52 12 -124 15 -160 3 -36 9
-69 13 -73 13 -13 22 109 12 161 -5 26 -15 107 -21 180 -10 105 -16 132 -27
132 -13 0 -14 -12 -9 -72z"/>
<path d="M941 4636 c-10 -12 -7 -18 17 -30 41 -21 58 -3 26 28 -19 20 -28 20
-43 2z"/>
<path d="M2031 4636 c-9 -11 -6 -17 15 -31 33 -21 50 -8 28 23 -18 26 -27 27
-43 8z"/>
<path d="M925 4570 c-4 -12 -4 -24 -2 -27 10 -9 72 -10 90 -1 29 15 19 27 -19
21 -28 -5 -40 -2 -50 11 -11 16 -13 16 -19 -4z"/>
<path d="M2010 4568 c0 -22 5 -26 38 -31 38 -4 72 6 72 23 0 5 -16 6 -35 3
-26 -4 -41 -1 -55 12 -19 18 -20 17 -20 -7z"/>
<path d="M1074 4516 c-8 -20 -1 -47 11 -49 6 -1 11 13 13 31 3 32 -14 45 -24
18z"/>
<path d="M2164 4517 c-7 -20 -2 -47 11 -50 14 -3 19 43 6 56 -7 7 -12 6 -17
-6z"/>
<path d="M932 4448 c3 -42 4 -43 41 -46 l37 -3 0 45 0 46 -41 0 -40 0 3 -42z"/>
<path d="M2018 4485 c-3 -3 -2 -22 1 -43 6 -34 9 -37 44 -40 l37 -3 0 45 0 46
-38 0 c-21 0 -41 -2 -44 -5z"/>
<path d="M1055 4438 c-2 -7 -5 -48 -8 -91 -2 -42 -6 -80 -9 -83 -3 -2 -17 0
-31 7 -14 6 -37 9 -50 5 -42 -10 -61 -127 -42 -251 9 -59 28 -85 64 -85 43 0
54 36 67 220 3 41 10 81 16 87 10 13 28 181 21 196 -6 11 -23 8 -28 -5z m-47
-240 c3 -44 1 -48 -24 -54 -28 -7 -48 10 -39 34 3 8 5 27 5 43 0 27 3 30 28
27 25 -3 27 -7 30 -50z m-17 -78 c32 0 32 -1 7 -113 -14 -66 -40 -62 -50 8 -4
28 -10 65 -14 84 -6 30 -4 33 10 28 10 -4 31 -7 47 -7z"/>
<path d="M2145 4441 c-3 -6 -8 -46 -12 -91 -6 -84 -14 -100 -38 -80 -18 15
-66 9 -76 -10 -17 -33 -31 -130 -25 -166 4 -21 10 -59 13 -84 6 -49 24 -69 63
-70 31 0 46 31 55 115 11 105 22 189 28 210 11 38 16 185 7 185 -5 0 -11 -4
-15 -9z m-51 -207 c19 -49 -3 -99 -41 -92 -13 2 -18 13 -19 43 -1 22 1 46 3
53 7 17 50 15 57 -4z m4 -119 c6 -5 -18 -139 -27 -148 -16 -16 -31 2 -31 39 0
19 -7 51 -15 70 -8 20 -13 40 -10 44 4 7 73 3 83 -5z"/>
<path d="M453 3868 c4 -543 8 -617 38 -788 6 -36 14 -87 18 -115 4 -27 10 -56
14 -63 5 -6 13 -36 18 -65 11 -58 23 -112 38 -172 6 -22 14 -59 19 -83 5 -24
15 -49 21 -55 6 -6 11 -23 11 -38 0 -15 5 -31 10 -34 6 -3 10 -21 10 -40 0
-19 5 -37 10 -40 6 -3 10 -15 10 -27 0 -11 6 -32 14 -46 17 -34 36 -93 36
-114 0 -9 7 -21 15 -28 8 -7 15 -23 15 -36 0 -12 5 -26 10 -29 6 -3 10 -15 10
-26 0 -19 2 -26 33 -87 9 -19 17 -42 17 -52 0 -10 5 -22 10 -25 6 -3 10 -16
10 -29 0 -12 7 -31 15 -42 8 -10 15 -29 15 -41 0 -13 5 -23 10 -23 6 0 10 -13
10 -29 0 -16 7 -34 15 -41 9 -7 13 -21 10 -31 -3 -9 0 -21 7 -26 8 -4 20 -33
27 -63 8 -30 20 -64 27 -75 8 -11 14 -29 14 -42 0 -12 5 -25 10 -28 30 -19
-15 -40 -108 -51 l-57 -6 1 108 2 108 47 14 c57 16 49 35 -10 22 -22 -5 -59
-10 -82 -10 -23 0 -45 -5 -49 -12 -4 -6 -6 -64 -5 -129 3 -133 10 -122 -85
-132 -23 -3 -53 -13 -68 -22 -26 -17 -26 -20 -25 -116 1 -53 5 -102 8 -107 21
-32 57 -36 314 -34 l257 2 0 -32 c0 -17 6 -39 13 -47 7 -9 19 -36 26 -61 7
-25 17 -53 22 -62 5 -10 9 -26 9 -37 0 -10 7 -24 15 -31 8 -7 15 -23 15 -36 0
-12 5 -26 10 -29 6 -3 10 -12 10 -20 0 -11 -20 -15 -82 -17 l-83 -3 1 -50 c2
-125 57 -320 98 -347 6 -4 62 -8 124 -8 87 0 112 -3 112 -14 0 -7 11 -25 25
-40 21 -23 28 -25 46 -16 11 7 25 25 31 41 l10 29 113 0 c113 0 114 0 133 27
51 73 108 343 79 372 -6 6 -44 11 -84 11 l-73 0 6 28 c4 15 11 31 15 37 5 5 9
19 9 31 0 12 7 27 15 34 8 7 15 25 15 41 0 16 5 29 10 29 6 0 10 13 10 29 0
17 5 33 10 36 6 3 10 17 10 30 0 13 4 27 10 30 5 3 10 15 10 26 0 18 9 19 259
17 330 -2 311 -10 311 140 0 124 -4 130 -97 139 -29 3 -56 10 -59 15 -4 6 -6
60 -5 122 2 82 -2 116 -11 123 -7 6 -42 13 -78 16 -36 3 -73 8 -84 13 -13 5
-17 3 -14 -6 2 -7 19 -18 38 -24 l35 -11 3 -107 c2 -99 1 -108 -16 -108 -30 0
-136 21 -144 29 -8 7 22 104 35 118 4 3 7 15 7 26 0 10 6 31 14 45 32 62 86
216 86 245 0 9 5 17 11 19 9 3 24 46 36 111 3 15 9 27 14 27 5 0 9 11 9 24 0
13 7 29 15 36 8 7 15 23 15 36 0 12 4 26 10 29 6 3 10 17 10 30 0 13 5 27 10
30 6 3 10 18 10 33 0 15 7 36 15 46 8 11 15 30 15 43 0 13 5 23 10 23 6 0 10
13 10 29 0 16 6 42 14 58 19 38 36 95 36 121 0 11 4 24 10 27 5 3 10 21 10 39
0 17 4 36 10 42 5 5 15 32 20 59 6 28 16 70 21 95 5 25 12 66 16 93 3 26 10
50 14 53 5 3 9 19 9 36 0 18 6 57 14 87 33 128 39 249 43 809 l5 562 -21 0
c-21 0 -21 -1 -21 -477 -1 -538 -17 -840 -48 -916 -7 -16 -12 -44 -12 -63 0
-27 -4 -34 -20 -34 -22 0 -26 -10 -9 -27 7 -7 9 -27 6 -50 -11 -72 -23 -129
-32 -143 -5 -8 -12 -32 -16 -55 -4 -22 -13 -58 -19 -80 -6 -22 -15 -56 -20
-75 -21 -89 -63 -228 -76 -252 -8 -14 -14 -35 -14 -46 0 -12 -4 -24 -10 -27
-5 -3 -10 -15 -10 -26 0 -10 -4 -27 -9 -37 -5 -9 -17 -37 -26 -62 -10 -25 -21
-54 -25 -65 -5 -11 -18 -54 -30 -95 -12 -41 -34 -102 -51 -135 -16 -33 -29
-68 -29 -77 0 -9 -4 -20 -10 -23 -5 -3 -10 -15 -10 -25 0 -17 -18 -66 -41
-112 -5 -10 -9 -27 -9 -37 0 -11 -4 -23 -10 -26 -5 -3 -10 -16 -10 -28 0 -34
-16 -55 -31 -40 -9 9 -9 22 4 55 9 24 23 67 31 96 14 50 14 52 -5 52 -14 0
-19 -7 -19 -29 0 -17 -4 -33 -10 -36 -5 -3 -10 -19 -10 -35 0 -16 -4 -32 -10
-35 -5 -3 -10 -17 -10 -30 0 -13 -4 -27 -10 -30 -5 -3 -10 -19 -10 -34 0 -16
-7 -34 -15 -41 -9 -7 -15 -20 -13 -29 1 -9 -4 -26 -10 -39 -7 -12 -11 -26 -8
-31 3 -4 -1 -17 -9 -27 -8 -10 -15 -29 -15 -41 0 -12 -4 -25 -10 -28 -5 -3
-10 -17 -10 -31 0 -13 -4 -32 -9 -42 -5 -9 -15 -37 -21 -62 -24 -85 -52 -175
-61 -192 -5 -10 -9 -27 -9 -37 0 -11 -5 -23 -10 -26 -6 -4 -10 -12 -9 -18 4
-36 1 -37 -166 -37 l-164 0 -18 57 c-10 32 -18 63 -18 68 -1 6 -6 20 -13 32
-7 12 -12 29 -12 37 0 9 -4 24 -9 34 -5 9 -15 37 -21 62 -7 25 -16 54 -20 65
-4 11 -13 40 -20 65 -6 25 -16 53 -21 62 -5 10 -9 29 -9 42 0 14 -4 28 -10 31
-5 3 -10 17 -10 30 0 13 -4 27 -10 30 -5 3 -10 17 -10 30 0 13 -4 27 -10 30
-5 3 -10 19 -10 35 0 16 -4 32 -10 35 -5 3 -10 17 -10 31 0 13 -4 32 -9 42 -5
9 -14 35 -20 57 -7 22 -16 49 -20 60 -5 11 -14 38 -20 60 -7 22 -18 56 -26 75
-7 19 -18 55 -25 80 -7 25 -16 53 -21 62 -5 10 -9 27 -9 37 0 11 -4 23 -10 26
-5 3 -10 17 -10 30 0 13 -4 27 -10 30 -5 3 -10 19 -10 36 0 16 -4 29 -10 29
-5 0 -10 13 -10 28 0 15 -4 32 -8 38 -5 5 -15 36 -22 69 -7 33 -17 65 -20 70
-4 6 -10 24 -13 40 -4 25 -34 147 -63 260 -4 17 -9 35 -9 40 -6 39 -18 98 -30
145 -8 30 -17 72 -20 93 -4 24 -11 37 -21 37 -17 0 -15 -31 6 -125 4 -22 14
-67 20 -100 7 -33 16 -68 21 -77 5 -10 9 -33 9 -52 0 -19 4 -37 9 -40 5 -3 12
-22 15 -41 3 -19 9 -51 12 -70 3 -19 10 -38 15 -41 5 -3 9 -18 9 -34 0 -16 5
-32 10 -35 6 -3 10 -16 10 -27 0 -23 17 -81 31 -110 5 -10 9 -29 9 -42 0 -14
5 -28 10 -31 5 -3 10 -17 10 -30 0 -13 5 -27 10 -30 6 -3 10 -17 10 -30 0 -13
5 -27 10 -30 6 -3 10 -16 10 -29 0 -12 7 -31 15 -42 8 -10 15 -31 15 -46 0
-15 5 -30 10 -33 6 -3 10 -17 10 -30 0 -13 5 -27 10 -30 6 -3 10 -15 10 -26 0
-10 5 -28 12 -38 9 -15 9 -23 -1 -35 -22 -26 -41 -19 -41 13 0 17 -4 33 -10
36 -5 3 -10 17 -10 30 0 13 -4 27 -10 30 -5 3 -10 17 -10 29 0 13 -7 29 -15
36 -8 7 -15 25 -15 41 0 16 -4 29 -10 29 -5 0 -10 8 -10 18 0 24 -24 90 -38
104 -7 7 -12 22 -12 34 0 13 -4 25 -9 28 -5 3 -11 18 -14 33 -5 30 -24 87 -38
115 -5 10 -9 25 -9 33 0 8 -4 23 -9 33 -5 9 -15 37 -21 62 -7 25 -16 56 -20
70 -4 14 -12 43 -18 65 -30 113 -45 162 -53 183 -5 13 -9 33 -9 46 0 13 -7 40
-15 60 -9 20 -13 41 -10 47 4 5 0 23 -9 40 -13 26 -13 31 0 35 7 2 21 6 30 9
24 8 5 26 -20 19 -21 -5 -24 -1 -30 33 -18 107 -27 166 -36 253 -5 52 -14 113
-20 135 -6 24 -10 248 -10 558 0 460 -2 517 -15 517 -14 0 -15 -61 -12 -572z
m557 -2249 c0 -22 34 -136 53 -176 7 -16 7 -26 -2 -36 -9 -12 -7 -16 9 -20 11
-3 20 -13 20 -23 0 -10 9 -43 19 -73 11 -31 29 -90 41 -131 12 -41 26 -83 31
-92 5 -10 9 -23 9 -29 0 -6 6 -25 14 -42 7 -18 23 -66 36 -107 22 -75 28 -91
49 -143 14 -36 14 -58 -1 -32 -13 22 -50 122 -75 200 -15 50 -24 74 -48 130
-7 17 -18 50 -26 75 -7 25 -16 49 -21 54 -4 6 -8 22 -8 37 0 15 -7 32 -15 39
-8 7 -12 16 -9 22 3 5 -1 20 -10 33 -9 13 -16 33 -16 43 0 10 -5 23 -12 30 -6
6 -13 22 -14 34 -7 54 -17 88 -30 99 -8 6 -14 21 -14 33 0 12 -4 26 -9 32 -4
5 -11 21 -15 37 -6 24 -4 27 19 27 19 0 25 -5 25 -21z m-203 -120 c3 -113 -2
-141 -23 -137 -13 2 -16 22 -18 116 -1 107 3 124 29 118 6 -2 11 -44 12 -97z
m1385 96 c20 -8 16 -229 -5 -233 -8 -2 -18 2 -22 7 -5 9 -9 181 -6 224 1 8 14
9 33 2z m-1164 -241 c2 -16 8 -33 13 -38 5 -6 9 -20 9 -32 0 -13 4 -25 9 -29
5 -3 19 -37 31 -75 12 -39 26 -70 31 -70 6 0 7 -4 4 -10 -9 -15 -496 -13 -515
3 -12 9 -15 34 -14 107 1 91 2 95 25 102 60 16 123 28 239 43 69 9 129 21 135
26 16 15 30 4 33 -27z m892 23 c0 -7 -7 -22 -15 -33 -8 -10 -15 -29 -15 -41 0
-12 -4 -25 -10 -28 -5 -3 -10 -15 -10 -26 0 -10 -4 -27 -9 -37 -23 -46 -41
-95 -41 -112 0 -10 -4 -22 -10 -25 -5 -3 -10 -15 -10 -26 0 -10 -5 -27 -10
-37 -10 -16 -17 -37 -77 -217 -30 -90 -30 -91 -40 -82 -6 7 15 84 28 102 4 6
15 33 23 60 9 28 26 79 37 115 11 36 25 73 30 82 5 10 9 24 9 32 0 8 14 54 30
103 17 48 30 93 30 99 0 26 31 84 45 84 8 0 15 -6 15 -13z m48 3 c9 -5 82 -19
162 -31 214 -31 214 -31 228 -41 16 -14 17 -189 0 -206 -15 -15 -504 -17 -513
-2 -3 6 -2 10 2 10 5 0 15 21 22 48 8 26 17 52 20 57 8 11 22 55 42 128 7 26
15 47 16 47 2 0 11 -4 21 -10z m-196 -700 l68 0 -4 -72 c-3 -40 -9 -86 -15
-101 -6 -16 -9 -32 -6 -37 3 -5 -1 -21 -9 -37 -8 -15 -20 -41 -26 -58 -7 -16
-16 -37 -20 -45 -6 -13 -47 -15 -261 -18 -140 -1 -263 0 -274 2 -20 5 -33 29
-55 101 -7 22 -16 49 -21 60 -4 11 -10 45 -13 75 -3 30 -9 72 -12 92 l-6 37
73 3 c41 2 173 2 294 1 121 -2 250 -3 287 -3z m-264 -412 c-7 -13 -14 -25 -15
-27 -2 -2 -9 2 -18 9 -25 21 -18 40 15 40 28 0 29 -1 18 -22z"/>
<path d="M584 3878 c5 -553 9 -638 39 -828 11 -68 13 -98 5 -108 -16 -19 -3
-25 22 -10 18 10 24 10 27 1 6 -16 33 -17 33 -2 0 6 -9 13 -19 16 -16 4 -21
17 -25 62 -4 31 -13 88 -21 126 -25 120 -30 253 -30 788 0 493 -1 517 -18 517
-18 0 -18 -24 -13 -562z"/>
<path d="M2350 3953 c-1 -461 -8 -667 -30 -828 -21 -156 -23 -175 -11 -175 6
0 11 -7 11 -15 0 -8 -9 -15 -19 -15 -15 0 -20 -9 -24 -47 -6 -56 -19 -116 -56
-270 -5 -21 -16 -69 -25 -108 -22 -100 -47 -197 -56 -220 -4 -11 -12 -36 -17
-55 -29 -101 -57 -188 -68 -215 -8 -16 -21 -64 -30 -105 -9 -41 -28 -97 -41
-123 -13 -27 -24 -57 -24 -67 0 -11 -4 -22 -10 -25 -5 -3 -10 -16 -10 -28 1
-21 2 -20 25 8 14 17 25 38 25 47 0 9 5 20 10 23 6 3 10 15 10 26 0 10 4 27 9
37 5 9 14 37 21 62 7 25 16 53 21 62 5 10 9 28 9 41 0 13 3 27 7 31 8 8 34 74
37 96 1 8 8 25 15 38 6 12 10 26 7 31 -3 4 1 17 9 27 8 10 15 31 15 46 0 15 4
29 9 32 5 3 11 20 14 38 3 18 10 51 17 73 21 72 49 189 56 230 3 17 9 39 14
50 5 11 11 36 14 55 3 19 10 58 15 85 6 28 14 67 17 88 4 22 12 37 20 37 16 0
18 12 5 25 -6 6 -7 33 -1 70 9 61 22 182 40 380 6 61 10 320 10 578 -1 455 -2
467 -21 467 -19 0 -19 -12 -19 -487z"/>
<path d="M1135 4370 c-5 -8 -8 -23 -7 -32 2 -10 -2 -18 -7 -18 -6 0 -11 -5
-11 -12 0 -7 9 -3 21 8 12 13 19 31 17 45 -2 20 -5 21 -13 9z"/>
<path d="M2225 4370 c-5 -8 -8 -23 -7 -32 2 -9 -5 -18 -15 -20 -13 -2 -14 -6
-6 -11 15 -10 46 35 41 60 -3 15 -5 16 -13 3z"/>
<path d="M1472 4318 l3 -31 -87 -1 c-115 -1 -115 -19 -1 -26 78 -4 88 -7 88
-24 0 -12 -10 -23 -28 -29 -22 -7 -32 -4 -58 17 -17 14 -35 26 -40 26 -18 0
-8 -19 22 -43 27 -21 30 -27 20 -46 -9 -15 -21 -21 -46 -21 -25 0 -35 -4 -35
-16 0 -10 8 -15 23 -14 65 6 83 -19 42 -57 -14 -13 -25 -28 -25 -33 0 -5 -11
-12 -25 -16 -14 -3 -25 -12 -25 -20 0 -10 22 -14 87 -16 l87 -3 1 -29 c0 -44
23 -44 27 0 l3 37 83 -1 c49 -1 82 3 82 9 0 5 -6 12 -14 15 -8 3 -32 22 -54
43 -35 33 -38 40 -26 56 11 15 30 18 135 19 88 1 123 4 126 14 4 9 -25 12
-121 12 -108 0 -126 2 -135 17 -13 25 -25 9 -24 -32 1 -28 -3 -35 -18 -35 -10
0 -19 -7 -19 -15 0 -18 -12 -19 -28 -3 -9 9 -12 9 -12 0 0 -7 -9 -12 -20 -12
-22 0 -25 7 -11 28 4 8 18 12 31 10 27 -4 46 21 36 47 -4 12 -13 16 -28 12
-21 -6 -48 7 -48 23 0 5 21 8 46 8 35 0 44 -3 40 -14 -3 -8 -1 -14 5 -14 13 0
99 71 99 82 0 16 -25 7 -51 -18 -34 -32 -79 -26 -79 12 0 23 2 24 86 24 64 0
85 3 81 13 -2 8 -29 12 -83 13 l-79 0 -3 32 c-2 20 -9 32 -18 32 -11 0 -14 -9
-12 -32z m-27 -193 c0 -20 -6 -31 -17 -33 -11 -2 -18 3 -18 12 0 9 5 16 12 16
9 0 9 3 0 12 -17 17 -15 30 6 26 11 -2 17 -13 17 -33z m19 -88 c32 -23 14 -38
-46 -41 -59 -3 -62 1 -29 36 20 21 51 23 75 5z m113 -9 c13 -12 23 -24 23 -28
0 -11 -94 -4 -98 8 -14 43 37 56 75 20z"/>
<path d="M965 3618 c-2 -7 -3 -22 -2 -33 2 -18 -3 -20 -55 -17 -62 4 -118 -5
-118 -18 0 -5 39 -11 88 -12 78 -3 87 -5 87 -22 0 -12 -10 -23 -28 -29 -22 -7
-32 -4 -58 17 -17 14 -35 26 -40 26 -18 0 -8 -19 24 -44 26 -21 30 -29 21 -43
-7 -11 -26 -19 -48 -21 -56 -5 -40 -32 19 -32 12 0 26 -7 29 -16 8 -20 -41
-81 -71 -90 -13 -3 -23 -12 -23 -20 0 -10 22 -14 88 -16 l87 -3 0 -27 c1 -36
3 -37 50 -29 34 5 40 10 43 34 3 22 -1 27 -19 27 -17 0 -19 -3 -10 -13 13 -16
5 -27 -21 -27 -13 0 -18 7 -18 26 l0 25 79 -6 c51 -3 82 -2 86 5 3 5 0 13 -9
16 -8 3 -32 22 -54 43 -37 35 -38 39 -23 57 14 17 27 19 115 16 105 -4 151 2
141 18 -4 6 -59 10 -125 10 -95 0 -119 3 -124 15 -8 22 -19 18 -33 -10 -6 -14
-7 -25 -2 -25 5 0 9 -7 9 -15 0 -8 -9 -15 -20 -15 -11 0 -20 -7 -20 -15 0 -18
-12 -19 -28 -3 -9 9 -12 9 -12 0 0 -7 -9 -12 -20 -12 -22 0 -25 7 -11 28 4 8
18 12 31 10 27 -4 46 21 36 47 -4 12 -13 16 -28 12 -21 -6 -48 7 -48 23 0 5
21 8 46 8 35 0 44 -3 40 -14 -10 -25 15 -15 58 23 22 20 43 40 44 45 8 18 -23
7 -49 -18 -34 -32 -79 -26 -79 12 0 23 2 24 79 24 44 0 82 4 86 9 8 13 -52 24
-111 19 -49 -3 -49 -3 -52 30 -3 32 -19 43 -27 20z m-29 -202 c3 -14 3 -30 -1
-35 -9 -16 -35 -13 -35 4 0 8 5 15 12 15 9 0 9 3 0 12 -16 16 -15 28 3 28 8 0
17 -11 21 -24z m18 -99 c31 -23 14 -39 -42 -41 -55 -1 -63 6 -34 35 21 22 52
24 76 6z m113 -9 c13 -12 23 -24 23 -28 0 -11 -94 -4 -98 8 -14 43 37 56 75
20z"/>
<path d="M2052 3598 l3 -33 -62 3 c-34 2 -75 1 -92 -3 -55 -12 -22 -25 64 -25
66 0 84 -3 89 -16 8 -21 1 -31 -29 -38 -19 -5 -35 0 -61 20 -45 35 -56 23 -16
-19 39 -40 29 -67 -24 -67 -48 0 -40 -24 9 -28 24 -2 37 -9 39 -20 4 -18 -55
-84 -85 -95 -32 -12 -8 -28 30 -21 26 5 34 4 29 -5 -5 -7 0 -11 13 -11 23 0
36 -16 21 -25 -16 -10 -62 4 -55 15 3 6 -1 10 -9 10 -9 0 -16 -6 -16 -14 0
-23 27 -37 67 -34 33 3 38 7 41 31 3 22 -1 27 -19 27 -12 0 -20 3 -17 6 3 3
22 2 41 -1 31 -6 36 -11 39 -38 4 -45 26 -46 30 -1 l3 37 77 -2 c74 -2 110 11
72 26 -10 4 -34 23 -54 42 -35 33 -36 38 -23 58 12 17 21 20 54 16 32 -5 39
-3 39 11 0 12 -10 16 -45 16 -32 0 -45 4 -45 14 0 8 -6 16 -12 19 -8 2 -1 14
20 31 31 27 41 46 23 46 -5 0 -19 -11 -32 -25 -13 -13 -31 -25 -40 -25 -26 0
-51 24 -43 43 5 14 20 17 84 17 44 0 81 4 85 9 8 14 -52 23 -116 19 l-54 -3 3
33 c3 24 0 32 -13 32 -12 0 -16 -8 -13 -32z m8 -148 c0 -23 -10 -26 -28 -8
-18 18 -15 28 8 28 13 0 20 -7 20 -20z m40 4 c0 -10 6 -14 15 -11 20 8 29 -11
15 -28 -9 -11 -9 -15 -1 -15 6 0 11 -7 11 -15 0 -8 -9 -15 -20 -15 -11 0 -20
-7 -20 -15 0 -8 -7 -15 -15 -15 -8 0 -15 7 -15 16 0 8 7 22 15 30 8 9 15 19
15 24 0 5 -7 15 -15 24 -8 8 -15 19 -15 25 0 6 7 11 15 11 8 0 15 -7 15 -16z
m-74 -40 c8 -31 -8 -49 -33 -40 -17 7 -17 8 0 21 16 11 16 13 2 19 -19 7 -11
26 10 26 8 0 18 -12 21 -26z m34 -54 c0 -13 -7 -20 -20 -20 -19 0 -27 20 -13
33 13 14 33 6 33 -13z m-6 -50 c6 -6 6 -13 1 -19 -12 -10 -115 -23 -115 -14 0
4 10 17 22 31 18 18 29 22 53 18 16 -4 34 -11 39 -16z m103 -2 c13 -12 23 -24
23 -27 0 -3 -22 -6 -50 -6 -44 0 -50 3 -50 21 0 11 3 24 7 27 13 14 47 6 70
-15z"/>
<path d="M726 2951 c-10 -16 5 -42 23 -39 21 4 21 42 -1 46 -9 2 -19 -1 -22
-7z"/>
<path d="M827 2954 c-4 -4 -7 -16 -7 -26 0 -14 6 -19 23 -16 14 2 22 10 22 23
0 20 -25 32 -38 19z"/>
<path d="M2100 2935 c0 -18 5 -25 20 -25 15 0 20 7 20 25 0 18 -5 25 -20 25
-15 0 -20 -7 -20 -25z"/>
<path d="M2200 2935 c0 -30 25 -34 33 -6 5 22 0 31 -20 31 -7 0 -13 -11 -13
-25z"/>
<path d="M1238 2889 c-16 -9 -18 -29 -18 -179 0 -157 1 -170 19 -180 30 -15
66 -12 84 8 14 16 17 44 17 178 0 111 -4 164 -12 172 -15 15 -66 15 -90 1z
m70 -175 c2 -126 0 -153 -13 -164 -12 -10 -18 -10 -30 0 -12 10 -15 41 -15
160 0 80 3 150 7 154 4 4 16 6 28 4 19 -3 20 -11 23 -154z"/>
<path d="M1648 2889 c-16 -9 -18 -29 -18 -178 l0 -168 25 -11 c35 -16 56 -15
83 4 21 15 22 21 22 173 0 140 -2 160 -18 174 -21 19 -68 22 -94 6z m74 -178
c1 -151 0 -155 -22 -163 -12 -4 -26 -6 -31 -2 -11 6 -12 307 -2 318 4 4 18 6
31 4 l24 -3 0 -154z"/>
<path d="M80 2800 c0 -5 8 -10 17 -10 9 0 27 -10 40 -22 13 -12 23 -17 23 -10
0 12 -52 52 -69 52 -6 0 -11 -4 -11 -10z"/>
<path d="M1402 2714 c-24 -17 -29 -46 -9 -62 6 -5 51 -10 99 -10 77 -1 87 1
91 19 14 52 -28 79 -80 52 -23 -12 -28 -12 -35 2 -11 19 -38 19 -66 -1z m63
-34 c0 -9 -11 -16 -27 -18 -23 -3 -28 1 -28 18 0 17 5 21 28 18 16 -2 27 -9
27 -18z m91 9 c3 -6 -1 -18 -10 -27 -15 -15 -18 -15 -26 -2 -5 8 -10 21 -10
28 0 15 36 16 46 1z"/>
<path d="M1392 2598 c-35 -35 6 -74 67 -65 20 3 45 2 56 -2 42 -17 83 18 70
59 -5 15 -15 20 -44 20 -20 0 -43 -6 -50 -12 -11 -10 -14 -10 -18 0 -6 15 -65
16 -81 0z m76 -25 c-2 -11 -14 -19 -31 -21 -22 -3 -27 1 -27 17 0 17 6 21 31
21 24 0 30 -4 27 -17z m92 3 c0 -18 -27 -39 -40 -31 -5 3 -10 15 -10 26 0 14
7 19 25 19 15 0 25 -6 25 -14z"/>
<path d="M1189 2500 c0 -5 0 -56 -1 -112 0 -87 2 -103 16 -106 12 -3 16 5 17
35 1 23 3 29 6 16 6 -32 31 -29 35 5 3 27 3 27 91 30 62 2 94 -1 105 -10 13
-11 15 -10 9 12 -3 14 -2 32 3 40 8 13 11 13 26 -2 17 -16 17 -19 1 -36 -29
-32 -19 -78 20 -93 20 -7 22 -12 13 -28 -14 -27 -13 -57 4 -73 11 -12 11 -17
0 -33 -17 -24 -18 -66 -1 -88 11 -15 27 -17 122 -15 l110 3 3 44 c2 29 -2 49
-13 61 -14 16 -14 18 0 23 9 4 15 19 15 39 -1 65 -41 87 -165 90 l-90 3 0 30
0 30 94 3 c100 3 111 -1 111 -45 0 -14 6 -23 15 -23 10 0 15 10 15 31 0 20 4
29 13 27 18 -7 21 -47 3 -54 -22 -8 -20 -24 3 -24 30 0 45 72 19 98 -9 9 -9
15 0 24 16 16 15 70 -2 93 -11 16 -16 17 -29 7 -12 -10 -29 -11 -77 -2 -65 12
-166 5 -188 -13 -10 -8 -16 -7 -22 3 -12 19 -185 20 -218 2 -19 -11 -23 -10
-28 3 -7 17 -34 21 -35 5z m274 -32 c34 -16 34 -21 0 -43 -21 -14 -45 -17
-107 -16 -86 2 -109 14 -99 51 5 18 14 20 92 20 49 0 99 -6 114 -12z m251 -4
c4 -9 4 -25 0 -36 -5 -17 -15 -18 -102 -16 -84 3 -97 5 -100 21 -8 42 3 47
102 47 78 0 95 -3 100 -16z m64 -11 c2 -11 -4 -27 -12 -36 -9 -9 -16 -23 -16
-31 0 -9 -8 -16 -20 -16 -13 0 -20 7 -20 20 0 13 7 20 20 20 16 0 20 7 20 36
0 39 22 44 28 7z m-534 -39 c24 -9 20 -44 -4 -44 -15 0 -20 7 -20 25 0 27 1
28 24 19z m494 -188 c2 -16 -1 -33 -6 -38 -16 -16 -171 -16 -177 0 -7 20 -6
58 2 66 4 4 46 5 93 4 l85 -3 3 -29z m-1 -94 c6 -4 9 -19 6 -35 l-5 -28 -92 3
c-78 3 -91 5 -94 21 -8 41 4 47 90 47 46 0 88 -4 95 -8z"/>
<path d="M1360 2303 c-83 -3 -98 -7 -128 -29 -28 -22 -33 -31 -30 -62 2 -24 9
-38 19 -40 13 -2 16 6 15 40 l-1 43 98 3 97 3 0 -35 c0 -19 -5 -38 -12 -42 -6
-4 -46 -8 -87 -9 -102 -1 -131 -20 -131 -81 0 -54 6 -56 145 -52 l100 3 3 44
c2 29 -2 49 -13 61 -15 16 -15 18 1 24 13 5 16 16 12 56 -4 38 -2 50 8 50 8 0
14 7 14 15 0 8 -3 14 -7 13 -5 -1 -51 -4 -103 -5z m65 -198 l0 -30 -95 0 c-83
0 -95 2 -98 18 -8 43 3 48 100 45 l93 -3 0 -30z"/>
<path d="M1875 1634 c-28 -22 -29 -24 -8 -24 12 0 27 9 33 21 16 30 9 31 -25
3z"/>
<path d="M1440 1417 c-8 -7 -17 -21 -19 -32 -10 -52 4 -233 20 -250 5 -5 9
-19 9 -31 0 -29 36 -42 58 -21 21 21 34 92 39 213 4 97 3 103 -19 118 -27 19
-67 20 -88 3z m64 -50 c19 -14 19 -48 0 -214 -12 -105 -41 -42 -51 110 -5 79
-3 101 8 108 19 12 22 11 43 -4z"/>
</g>
</svg>
